<?xml version="1.0" encoding="utf-8"?>
<!-- Generator: Adobe Illustrator 19.0.0, SVG Export Plug-In . SVG Version: 6.00 Build 0)  -->
<svg version="1.1" id="Layer_1" xmlns="http://www.w3.org/2000/svg" xmlns:xlink="http://www.w3.org/1999/xlink" x="0px" y="0px"
	 width="150px" height="150px" viewBox="0 0 150 150" style="enable-background:new 0 0 150 150;" xml:space="preserve">
<style type="text/css">
	.st0{fill:#3FB561;}
	.st1{fill:#D7E9DC;}
	.st2{fill:#FEFEFE;}
</style>
<g id="XMLID_2_">
	<g id="XMLID_17_">
		<path id="XMLID_3_" class="st0" d="M41.8,102.2c0.1-0.9,0-1.7-0.5-2.4c-3.1-4.7-6.3-9.4-9.4-14.1c-0.4-0.6-0.9-1.5-1.6-1.3
			c-0.5,0.2-0.2,1.2-0.1,1.9c0.2,1.2,0.1,2.5,0.1,3.7c0,2.6-0.1,5.3,0,7.9c0.2,3.5,0.1,7,0.2,10.5c0,1.9-0.6,3.6-1.8,5
			c-4.1,4.7-8.2,9.4-12.3,14.1c-1.5,1.7-3.1,3.4-4.6,5.3c-1.2,1.5-2.6,2.5-4.5,2.7c-0.7,0-1.4,0-2.1,0c-1.8-0.2-3.2-1.1-4.2-2.6
			c-0.4-0.6-0.5-1.4-0.7-2.1c0-1,0-2,0-3c1.2-2.8,3.6-4.8,5.5-7.1c3.9-4.6,7.9-9,11.8-13.5c0.3-0.3,0.3-0.7,0.3-1.1
			c0-9.5,0-18.9,0-28.4c0-1.6,0.6-3.1,1.5-4.5c3.9-6.2,8-12.3,12-18.4c2.8-4.3,5.7-8.6,8.5-12.9c2.3-3.4,6.9-4.5,10.3-2.3
			c4.2,2.6,8.3,5.4,12.4,8.2c3.1,2.1,4.1,6.4,2.3,9.8c-0.7,1.4-1.7,2.7-2.6,4c-0.1,0.1-0.1,0.3-0.4,0.4c-0.5,0.1-2.7-1-3-1.5
			c-2.4-4.3-4.7-8.7-7.1-13c-0.4-0.2-0.2,0.1-0.2,0.2c0.8,3.2,1.5,6.3,2.3,9.5c0.6,2.4,1.2,4.9,1.8,7.3c0.1,0.5,0.3,0.6,0.7,0.8
			c5.1,1.8,10.2,3.7,15.2,5.5c0.6,0.2,1,0.3,1.4-0.5c0.5-0.9,1.5-1.1,2.4-0.7c3.2,1.4,6.4,2.8,9.6,4.2c1.3,0.6,1.6,1.5,1.1,2.8
			c-1.5,3.4-2.9,6.7-4.4,10.1c-0.6,1.4-1.4,1.8-2.8,1.2c-3.2-1.3-6.4-2.7-9.6-4.1c-1.2-0.5-1.5-1.5-1-3.1c-6-2.2-12.1-4.4-18.1-6.5
			c-2.3-0.8-3.6-2.3-4.2-4.6c-1.5-6.3-3.1-12.7-4.7-19c0-0.1-0.1-0.2-0.2-0.3c0,3.4-0.1,6.8,0,10.1c0.1,3.1,0.2,6.1,0.1,9.2
			c-0.2,3.5,2.7,7.5,6,8.7c0.8,0.3,1.6,0.6,2.5,0.9c0.5,0.2,0.6,0.4,0.3,0.9c-1,1.4-1.9,2.8-2.9,4.3c-0.4,0.6-0.5,1,0,1.7
			c2,2.9,3.9,6,6,8.8c1.7,2.4,1.9,4.8,1.5,7.6c-0.6,3.2-1,6.4-1.5,9.6c-0.5,3.6-1.1,7.2-1.7,10.8c-0.4,2.4-0.7,4.9-1.1,7.3
			c-0.4,2.6-1.8,4.3-4.3,5.1c-0.1,0-0.1,0.1-0.2,0.2c-0.9,0-1.9,0-2.8,0c-3.6-0.7-5.7-3.6-5.1-7.3"/>
		<path id="XMLID_1_" class="st0" d="M136.1,131.1c0.4,1.1,0.4,2.1-0.2,3.1c-0.4,0.8-1.1,1.2-1.9,1.4c-0.6,0-1.1,0-1.7,0
			c-1.3-0.2-2-1-2.4-2.1c-1.4-3.9-2.8-7.9-4.2-11.8c-1.7-4.7-3.4-9.5-5.1-14.2c-0.5-1.3-0.6-1.3-1.9-1.3c-5.5,0-11,0-16.5,0
			c-1,0-1.5,0.3-1.8,1.2c-2.2,6.1-4.3,12.2-6.5,18.3c-0.9,2.5-1.8,5-2.7,7.6c-0.4,1.3-1.2,2.3-2.6,2.4c-0.6-0.2-1.1-0.2-1.6-0.2
			c-2.1-1.1-2.6-2.4-1.8-4.7c2.9-8.2,5.8-16.4,8.8-24.7c0-0.1,0.1-0.2,0.1-0.3c-0.4-0.2-0.8-0.1-1.1-0.1c-6.6,0-13.3,0-19.9,0
			c-1.6,0-2.3-0.7-2.3-2.3c0-2.8,0-5.6,0-8.4c0-1.5,0.7-2.2,2.2-2.2c9.9,0,19.8,0,29.7,0c0.4,0,0.7,0,1.1,0v-0.1
			c-0.5-0.1-1.1-0.3-1.6-0.3c-1.2-0.1-2.1-0.5-2.2-1.8c-0.1-0.6-0.3-0.6-0.7-0.2c-0.2,0.2-0.5,0.4-0.8,0.6c-0.5,0.5-1,0.8-1.4-0.1
			c-0.3-0.6-0.7-0.3-1,0c-0.5,0.4-0.7,0.2-0.8-0.3c-0.4-1.8-0.5-1.9-1.9-0.7c-0.7,0.6-1.3,1-1.9-0.1c-0.3-0.5-0.6-0.2-0.9,0
			c-0.7,0.5-1.2,0.4-1.3-0.5c-0.1-1.1-0.6-1-1.2-0.3c-0.2,0.2-0.4,0.4-0.7,0.5c-0.7,0.5-1.5,0.3-2.1-0.2c-0.6-0.4-0.6-1.2-0.3-1.8
			c1.4-3.3,2.9-6.6,4.3-9.9c0.4-1,1.1-1.2,2.1-0.8c7.9,3.4,15.8,6.9,23.8,10.3c1.2,0.5,1.5,1.2,0.9,2.5c-0.5,1.1-0.9,2.1-1.4,3.3
			c5.3,0,10.4,0,15.5,0c5.8,0,11.6,0,17.5,0c1.2,0,2,0.3,2.6,1.3c0,3.4,0,6.9,0,10.3c-0.5,1.3-1,1.6-2.6,1.6c-6.3,0-12.6,0-18.9,0
			c-0.2,0-0.4,0-0.5,0c-0.8-0.1-1,0.1-0.7,0.9c0.7,1.9,1.4,3.8,2,5.7"/>
		<path id="XMLID_21_" class="st0" d="M68.8,20.2c1.7,0.6,3.4,1.2,4.9,2.3c3.5,2.6,5.3,7.6,4.2,11.9c-1.2,4.7-5,8-9.5,8.8
			c-5.9,1-12.3-2.9-13.3-9.8c-0.9-6.4,3.3-11.7,8.9-13c0.2,0,0.4,0,0.4-0.2C66,20.2,67.4,20.2,68.8,20.2z"/>
		<path id="XMLID_19_" class="st1" d="M51.6,47.7c-0.3-0.2-0.2-0.5-0.2-0.8c0.3,0.1,0.3,0.3,0.4,0.5C51.8,47.5,51.7,47.6,51.6,47.7z
			"/>
		<path id="XMLID_18_" class="st2" d="M73,81.2c3.7-2.4,3.4-4.2,3.2-7c0.9,0.4,1.7,0.8,2.5,1.1c0.4,0.2,0.4,0.4,0.3,0.7
			c-0.9,2-1.8,4-2.6,6c-0.2,0.4-0.4,0.4-0.7,0.3C74.8,82,73.9,81.6,73,81.2z"/>
	</g>
</g>
</svg>
