<?xml version="1.0" encoding="iso-8859-1"?>
<!-- Generator: Adobe Illustrator 19.0.0, SVG Export Plug-In . SVG Version: 6.00 Build 0)  -->
<svg xmlns="http://www.w3.org/2000/svg" xmlns:xlink="http://www.w3.org/1999/xlink" version="1.1" id="Capa_1" x="0px" y="0px" viewBox="0 0 512 512" style="enable-background:new 0 0 512 512;" xml:space="preserve" width="512px" height="512px">
<g>
	<g>
		<path d="M406,361c-8.284,0-15,6.716-15,15v23.787l-25.606,25.607c-5.858,5.858-5.858,15.355,0,21.213    c5.857,5.858,15.356,5.858,21.213,0l30-30C419.42,413.793,421,409.978,421,406v-30C421,367.716,414.284,361,406,361z" fill="#3fb661"/>
	</g>
</g>
<g>
	<g>
		<path d="M376,181h-60c-8.284,0-15,6.716-15,15v60c0,8.284,6.716,15,15,15h60c8.284,0,15-6.716,15-15v-60    C391,187.716,384.284,181,376,181z M361,241h-30v-30h30V241z" fill="#3fb661"/>
	</g>
</g>
<g>
	<g>
		<path d="M256,301h-60c-8.284,0-15,6.716-15,15v60c0,8.284,6.716,15,15,15h60c8.284,0,15-6.716,15-15v-60    C271,307.716,264.284,301,256,301z M241,361h-30v-30h30V361z" fill="#3fb661"/>
	</g>
</g>
<g>
	<g>
		<path d="M451,310.946V136V75c0-24.813-20.187-45-45-45h-17.58C382.228,12.542,365.555,0,346,0s-36.228,12.542-42.42,30H148.42    C142.228,12.542,125.555,0,106,0C94.045,0,82.652,4.597,73.921,12.944C68.795,17.845,64.99,23.662,62.664,30H45    C20.187,30,0,50.187,0,75v61v270c0,24.813,20.187,45,45,45h265.946c16.795,36.01,53.085,61,95.054,61c57.957,0,106-47.843,106-106    C512,364.032,487.01,327.742,451,310.946z M331,45c0-8.271,6.729-15,15-15s15,6.729,15,15v15h-30V45z M90,45    c0-7.991,7.477-15,16-15c8.271,0,15,6.729,15,15v15H90V45z M30,75c0-8.271,6.729-15,15-15h15v15c0,8.284,6.716,15,15,15h61    c8.284,0,15-6.716,15-15V60h150v15c0,8.284,6.716,15,15,15h60c8.284,0,15-6.716,15-15V60h15c8.271,0,15,6.729,15,15v46H30V75z     M302.056,421H45c-8.271,0-15-6.729-15-15V151h391v151.056c-4.902-0.691-9.908-1.056-15-1.056c-57.897,0-105,47.103-105,105    C301,411.092,301.365,416.098,302.056,421z M406,482c-41.774,0-75-34.579-75-76c0-41.355,33.645-75,75-75    c41.554,0,76,33.332,76,75C482,447.196,447.196,482,406,482z" fill="#3fb661"/>
	</g>
</g>
<g>
	<g>
		<path d="M136,181H75c-8.284,0-15,6.716-15,15v60c0,8.284,6.716,15,15,15h61c8.284,0,15-6.716,15-15v-60    C151,187.716,144.284,181,136,181z M121,241H90v-30h31V241z" fill="#3fb661"/>
	</g>
</g>
<g>
	<g>
		<path d="M136,301H75c-8.284,0-15,6.716-15,15v60c0,8.284,6.716,15,15,15h61c8.284,0,15-6.716,15-15v-60    C151,307.716,144.284,301,136,301z M121,361H90v-30h31V361z" fill="#3fb661"/>
	</g>
</g>
<g>
	<g>
		<path d="M256,181h-60c-8.284,0-15,6.716-15,15v60c0,8.284,6.716,15,15,15h60c8.284,0,15-6.716,15-15v-60    C271,187.716,264.284,181,256,181z M241,241h-30v-30h30V241z" fill="#3fb661"/>
	</g>
</g>
<g>
</g>
<g>
</g>
<g>
</g>
<g>
</g>
<g>
</g>
<g>
</g>
<g>
</g>
<g>
</g>
<g>
</g>
<g>
</g>
<g>
</g>
<g>
</g>
<g>
</g>
<g>
</g>
<g>
</g>
</svg>
