<?xml version="1.0" encoding="utf-8"?>
<!-- Generator: Adobe Illustrator 19.0.0, SVG Export Plug-In . SVG Version: 6.00 Build 0)  -->
<svg version="1.1" id="Layer_1" xmlns="http://www.w3.org/2000/svg" xmlns:xlink="http://www.w3.org/1999/xlink" x="0px" y="0px"
	 width="150px" height="150px" viewBox="0 0 150 150" style="enable-background:new 0 0 150 150;" xml:space="preserve">
<style type="text/css">
	.st0{fill:#50AF6B;}
	.st1{fill:#3FB561;}
</style>
<g id="XMLID_2_">
	<g id="XMLID_15_">
		<path id="XMLID_18_" class="st0" d="M71.7,147.8c0.6-0.3,1.1-0.3,1.7,0C72.8,147.8,72.2,147.8,71.7,147.8z"/>
		<g>
			<path class="st1" d="M147.6,68.4c-0.2-2.9-0.4-5.8-1-8.6c-1.4-6.4-3.6-12.5-6.6-18.3c-4.2-8.2-9.8-15.4-16.8-21.5
				c-8-7-17-12.1-27.2-15.1c-3.1-1-6.4-1.9-9.7-2.1c-1.7-0.1-3.5-0.1-5.3-0.3c-3.8,0-7.6,0-11.4,0c-0.4,0.3-0.8,0.1-1.2,0
				C66,2.7,63.6,2.5,61.2,3c-7,1.3-13.7,3.7-20,7c-9.8,5.1-17.9,12.2-24.6,20.9C11.1,38.2,7.2,46,4.7,54.7c-0.8,2.8-1.6,5.7-1.8,8.7
				c-0.1,1.6-0.1,3.1-0.3,4.7c0,4.3,0,8.6,0,12.9c0.2,0.3,0.1,0.6,0.1,0.9c0.1,2,0.1,3.9,0.4,5.8c1.4,8.2,4.2,15.9,8.3,23.2
				c4.5,8.1,10.5,15,17.7,20.9c7.8,6.4,16.7,11,26.4,13.7c3,0.8,6,1.6,9.1,1.8c2,0.2,4.1,0.2,6.1,0.4c0.3,0,0.7,0,1,0
				c0.6-0.2,1.1-0.2,1.7,0c1.9,0,3.9,0,5.8,0c0.3-0.2,0.7-0.1,1.1-0.1c2.3,0,4.6-0.1,6.8-0.4c6.1-0.8,11.9-2.7,17.6-5.2
				c10.1-4.4,18.7-10.9,25.9-19.2c7.1-8.1,12.1-17.4,15-27.7c0.9-3.2,1.7-6.4,1.9-9.8c0.1-2,0.1-4,0.3-6c0-1.9,0-3.9,0-5.8
				C147.6,71.7,147.7,70,147.6,68.4z M27.4,117.7c-0.9,0.9-0.9,0.9-1.7-0.1c-6.1-7.1-10.5-15.2-13.2-24.2c-1.1-3.8-1.8-7.6-2.3-11.5
				c-0.4-3.7-0.6-7.5-0.3-11.2c0.4-6.3,1.7-12.5,4-18.5c3.6-9.5,9.1-17.8,16.6-24.8c8.8-8.2,19-13.6,30.7-16.2
				c3.3-0.7,6.7-1.3,10.1-1.3c0.9,0,1.8-0.2,2.7-0.2c8.3-0.1,16.4,1.3,24.2,4.2c7,2.7,13.4,6.5,19.2,11.4c1.3,1.1,1.3,1.1,0.1,2.3
				C111,34,104.5,40.5,98,47c-0.2,0.2-0.4,0.6-0.8,0.5c-0.3-0.1-0.3-0.5-0.3-0.8c-0.7-3.4-2-6.7-4.2-9.8c3.7,0,7.1,0,10.6,0
				c0.5,0,1-0.1,1.4-0.1c2.8-0.4,4.4-2.7,4.2-4.9c-0.2-2.9-2.2-4.7-5-4.9c-0.1,0-0.3,0-0.4,0c-19,0-38,0-57,0c-2.8,0-4.8,1.5-5.3,4
				c-0.6,2.9,1.3,5.1,3.7,5.7c0.6,0.1,1.3,0.2,1.9,0.2c7.4,0,14.7-0.2,22.1,0.1c5.3,0.2,10,2,13.3,6.6c0.8,1.1,1.2,2.3,1.7,3.5
				c0.2,0.5,0.1,0.6-0.4,0.6c-0.2,0-0.5,0-0.7,0c-12.1,0-24.3,0-36.4,0c-2.5,0-4.6,1.7-5.1,3.9c-0.7,3.3,1.6,6.2,5.1,6.2
				c4.9,0,9.8,0,14.7,0c7.2,0,14.3,0,21.5,0c1,0,1,0.3,0.6,1c-2.3,4.6-6.2,7-11.1,8.2c-2.2,0.5-4.4,0.7-6.7,0.7c-4.9,0-9.8,0-14.7,0
				c-2,0-3.5,0.8-4.5,2.5c-1.7,3,0.1,7.3,4.5,7.3c5.2,0.1,10.4,0,15.7,0.1c0.3,0,0.6-0.1,1.1,0.2C66.2,78.9,65,79.9,64,81
				C51.8,93.2,39.6,105.4,27.4,117.7z M140.4,79.2c-0.4,7.3-2.1,14.4-4.9,21.1c-3.8,9-9.3,16.9-16.6,23.4
				c-8,7.2-17.3,12.2-27.8,14.8c-3.5,0.9-7,1.4-10.6,1.7c-3,0.3-6,0.3-8.9,0.1c-7.6-0.4-15-2.2-22-5.2c-6.3-2.7-12-6.4-17.2-10.9
				c-0.6-0.5-0.2-0.8,0.1-1.1c4.2-4.2,8.5-8.5,12.7-12.7c9.7-9.7,19.4-19.4,29.1-29.2c0.7-0.7,1-0.6,1.6,0c2,2,3.3,4.4,4.2,7
				c1.6,4.5,2.3,9.3,3.5,13.9c1.3,5.1,2.5,10.3,4.8,15.2c0.7,1.6,1.8,3,3,4.2c2.1,2.2,5.4,2.3,7.8,0.5c2.3-1.7,3-5,1.5-7.5
				c-1.2-1.9-1.9-4-2.5-6.1c-1.9-6.2-3.2-12.5-4.8-18.8c-1-4-2.4-7.9-4.9-11.3c-1.8-2.1-3.8-3.8-6.2-5.1c0.5-0.6,1-1,1.6-1.3
				c5-2.4,8.7-6.1,11.1-11.1c0.6-1.2,1.7-1.9,2.5-2.8c0.2-0.2,0.6-0.1,0.9-0.1c2-0.1,4,0.1,6-0.1c2.3-0.3,3.8-1.5,4.4-3.6
				c0.6-2.1-0.1-4-1.9-5.4c0.2-0.2,0.5-0.5,0.7-0.7c5.2-5.2,10.4-10.4,15.5-15.6c0.6-0.6,0.9-0.6,1.5,0.1
				c4.7,5.5,8.5,11.7,11.2,18.4c1.8,4.5,3.1,9.1,3.9,13.9S140.7,74.4,140.4,79.2z"/>
		</g>
	</g>
</g>
</svg>
