<?xml version="1.0" encoding="utf-8"?>
<!-- Generator: Adobe Illustrator 19.0.0, SVG Export Plug-In . SVG Version: 6.00 Build 0)  -->
<svg version="1.1" id="Layer_1" xmlns="http://www.w3.org/2000/svg" xmlns:xlink="http://www.w3.org/1999/xlink" x="0px" y="0px"
	 width="150px" height="150px" viewBox="0 0 150 150" style="enable-background:new 0 0 150 150;" xml:space="preserve">
<style type="text/css">
	.st0{fill:#3FB561;}
	.st1{fill:#91C6A0;}
	.st2{fill:#FEFEFE;}
</style>
<g id="XMLID_2_">
	<g id="XMLID_22_">
		<path id="XMLID_3_" class="st0" d="M61.6,89.6c0-1.7-0.1-3.3-1.1-4.9C60,84,59.8,83.6,58.7,84c-2.1,0.7-4.2,0-5.4-1.8
			c-3.7-5.8-7.1-11.8-9-18.5c-0.6-2.2-0.5-4.1,0.6-6.1c3-6,6.5-11.6,11.4-16.2c2.1-2,4.7-3.3,7.3-4.4c2.2-1,4.4-1.9,6.1-3.7
			c0.5-0.5,0.9-0.4,1.3,0.1c0.9,1,1.9,2,3,3c0.7,0.6,0.8,1.2,0.7,2c-0.8,4.9-1.5,9.8-2.3,14.7c-0.6,4-1.1,8-1.8,12
			c-0.2,1.1,0.1,1.8,0.7,2.5c1.1,1.4,2.2,2.9,3.2,4.4c0.5,0.7,0.8,0.7,1.3,0c1.2-1.7,2.5-3.4,3.7-5.1c0.3-0.4,0.4-0.7,0.3-1.2
			c-0.6-3.5-1-7.1-1.6-10.6c-0.5-3-0.9-6-1.4-9.1c-0.4-2.8-0.8-5.6-1.3-8.4c-0.1-0.4,0.2-0.6,0.4-0.8c1.2-1.2,2.4-2.4,3.6-3.6
			c0.3-0.3,0.5-0.5,0.9-0.1c2.2,2.3,5.2,3.4,8,4.6c3.4,1.5,6,3.8,8.3,6.5c3.6,4.2,6.3,8.9,8.8,13.8c1.1,2.2,0.8,4.3,0.1,6.4
			c-2,6.4-5.3,12.1-8.8,17.7c-1.2,1.8-3.5,2.5-5.7,1.7c-0.6-0.2-0.8-0.1-1.1,0.4c-1.4,1.9-1.4,4-1.4,6.2c0,17.1,0,34.2,0,51.4
			c0,2.1-0.5,4-2.1,5.5c-0.8,0.7-1.7,1.1-2.7,1.5c-0.9,0-1.8,0-2.7,0c-3.4-0.7-5.2-2.9-5.2-6.5c0-15.6,0-31.2,0-46.8
			c0-0.4,0-0.7,0-1.1c0-0.6-0.4-0.7-0.9-0.7s-0.8,0.2-0.7,0.8c0,0.2,0,0.4,0,0.6c0,1.7,0,3.4,0,5.2c0.1,14.1-0.3,28.2-0.2,42.4
			c0,2.4-1,4.2-3,5.5c-0.7,0.4-1.5,0.5-2.2,0.7c-0.8,0-1.7,0-2.6,0c-1.7-0.7-3.3-1.6-4.1-3.5c-0.3-0.8-0.6-1.6-0.6-2.5"/>
		<path id="XMLID_1_" class="st0" d="M24.3,96.9c-0.3-0.5-0.6-0.7-1.2-0.6c-2.3,0.5-3.9-0.4-5.2-2.3c-2.5-3.9-4.6-7.9-6.3-12.1
			c-0.4-1.1-0.5-2.2-0.8-3.4c0.1-1,0.1-1.8,0.1-2.7c1.7-3.8,3.8-7.3,6.2-10.7c2.7-3.8,6.2-6.6,10.6-8.2c1.6-0.6,3-1.4,4.2-2.6
			c0.4-0.4,0.7-0.4,1.1,0c0.8,0.8,1.5,1.6,2.4,2.4c0.7,0.6,0.8,1.3,0.7,2.1c-0.6,4.7-1.3,9.4-1.9,14.2c-0.4,2.8-0.7,5.6-1.1,8.4
			c-0.1,0.5,0,0.9,0.3,1.3c0.9,1.2,1.8,2.3,2.6,3.6c0.3,0.5,0.5,0.6,0.9,0.1c0.9-1.3,1.8-2.5,2.7-3.7c0.4-0.5,0.2-1.1,0.2-1.6
			c-0.5-3.5-0.9-7.1-1.4-10.6c-0.5-3.4-0.9-6.7-1.4-10.1c-0.1-0.6-0.2-1.2-0.2-1.9c-0.1-0.4,0-0.8,0.4-1.1c0.9-0.9,1.8-1.8,2.7-2.8
			c0.3-0.3,0.6-0.6,1-0.1c0.3,0.4,0.9,0.5,0.5,1.2c-1.1,2-2,4.2-1.6,6.6c0.3,2.5,1.1,4.9,2,7.2c2.2,5.5,5,10.7,8.3,15.5
			c1.5,2.2,3.8,3.4,6.5,3.5c0.9,0,1.1,0.4,0.7,1.1c-1,1.7-2,3.5-3.1,5.1c-0.9,1.4-2.8,1.9-4.5,1.3c-0.6-0.2-0.8,0-1.1,0.5
			c-1.1,1.4-1.1,3-1.1,4.7c0,13.9,0,27.8,0.1,41.7c0,3-1,5.1-3.8,6.2c-0.8,0-1.7,0-2.5,0c-2.8-0.7-4.1-2.5-4.1-5.5
			c0-12.6,0-25.1,0-37.7c0-0.3,0-0.6,0-0.8c0-0.4,0-0.9-0.6-0.9c-0.7,0-0.6,0.5-0.6,1c0,0.3,0,0.6,0,0.8c0,12.4,0,24.8,0,37.2
			c0,1.8-0.4,3.3-1.7,4.6c-0.7,0.7-1.5,1.1-2.5,1.2c-0.9,0-1.8,0-2.7,0c-2.8-0.9-3.9-2.4-3.9-5.4"/>
		<path id="XMLID_4_" class="st0" d="M101.4,95.6c-0.2-0.4-0.4-0.1-0.6-0.1c-2.5,0.7-4,0.2-5.4-2.1c-0.8-1.4-1.7-2.8-2.5-4.2
			c-0.5-0.8-0.3-1.1,0.6-1.1c2.7-0.1,5.1-1.3,6.5-3.5c4.1-6.3,7.7-12.8,9.8-20.1c0.9-3.1,0.8-6-0.8-8.9c-0.4-0.6-0.5-1.1,0.3-1.6
			c0.8-0.6,1,0.1,1.4,0.5c0.5,0.5,0.9,1.1,1.5,1.4c1.2,0.8,1.4,2,1.2,3.3c-0.6,4.2-1.1,8.3-1.7,12.5c-0.4,3.2-0.8,6.5-1.2,9.7
			c0,0.3,0.1,0.4,0.2,0.6c0.9,1.2,1.8,2.5,2.7,3.7c0.3,0.5,0.6,0.6,1,0c0.8-1.2,1.8-2.4,2.7-3.6c0.2-0.3,0.3-0.6,0.2-1.1
			c-0.4-2.9-0.8-5.8-1.2-8.7c-0.4-2.9-0.8-5.7-1.2-8.6c-0.3-2.1-0.6-4.2-0.9-6.3c0-0.3,0.2-0.4,0.3-0.6c1-1,2-2,3-3
			c0.3-0.3,0.6-0.4,0.9-0.1c1.7,1.8,4,2.7,6.3,3.6c3.3,1.4,5.7,3.7,7.9,6.4c2.7,3.3,4.8,7,6.6,10.9c0.2,0.4,0.4,0.8,0.3,1.3
			c0.2,0.4,0.1,0.7,0.1,1.1c0.1,2.5-1,4.7-2,6.9c-1.5,3.2-3.1,6.3-5,9.2c-1.2,1.9-2.8,3-5.2,2.5c-0.5-0.1-0.8,0.1-1.1,0.5
			c-0.6,0.9-0.9,1.9-0.9,3.1c0,14.4,0,28.8,0,43.1c0,1.9-0.4,3.5-1.8,4.9c-0.7,0.7-1.5,0.9-2.3,1.1c-0.9,0-1.8,0-2.7,0
			c-2.8-0.9-3.9-2.3-3.9-5.4c0-12.5,0-25,0-37.6c0-0.4,0-0.8,0-1.3c-0.1-0.5-0.4-0.7-0.9-0.7s-0.5,0.4-0.5,0.7c0,0.3,0,0.6,0,0.8
			c0,12.6,0,25.1,0,37.7c0,0.7,0,1.5-0.2,2.2c-0.6,1.8-1.7,3.1-3.7,3.5c-0.9,0.7-1.8,0.7-2.7,0.7c-1.9-0.8-3.3-2-3.7-4.1
			c-0.1-0.5-0.1-1-0.1-1.5"/>
		<path id="XMLID_31_" class="st0" d="M78.1,1.5c1.4,0.4,2.8,0.6,4.2,1.2c3.4,1.5,5.2,4.2,5.7,7.7c0.7,4.8,0.3,9.6-1.7,14.1
			c-1.6,3.6-4,6.5-8,7.6c-4.9,1.4-9.6-0.4-12.5-4.7c-1.9-2.8-2.9-6-3.3-9.3c-0.3-2.9-0.5-5.8,0.2-8.6c1.2-4.7,4.4-7.1,9-7.8
			c0.2,0,0.4,0.1,0.5-0.2C74.1,1.5,76.1,1.5,78.1,1.5z"/>
		<path id="XMLID_27_" class="st1" d="M139.5,77.5c-0.1,0-0.1,0-0.2,0c0-0.4,0-0.7,0-1.1c0.1,0,0.1,0,0.2,0
			C139.5,76.8,139.5,77.2,139.5,77.5z"/>
		<path id="XMLID_26_" class="st0" d="M47.1,38.9c0,3.8-0.7,7.4-2.8,10.6c-4,6-12.1,5.5-15.7-0.2c-1.4-2.3-2.2-4.8-2.5-7.5
			c-0.3-2.4-0.4-4.8,0.3-7.2c1-3.6,3.5-5.5,7-6.1c2.3-0.4,4.7-0.4,7.1,0.2c4.3,1,6.5,4.2,6.7,8.4C47.1,37.7,47.1,38.3,47.1,38.9z"/>
		<path id="XMLID_25_" class="st0" d="M113.7,28.3c2.3-0.1,4.5,0.3,6.4,1.3c2.5,1.3,3.8,3.6,4.2,6.3c0.6,4.1,0.1,8.1-1.6,11.8
			c-1.3,2.9-3.4,5.1-6.5,5.9c-4.3,1.1-8.4-0.8-10.6-4.9c-1.4-2.5-2-5.1-2.2-7.9c-0.2-1.9-0.1-3.8,0.3-5.6c0.7-3.5,3.7-6.1,7.3-6.6
			C111.8,28.3,112.8,28.2,113.7,28.3z"/>
		<path id="XMLID_24_" class="st2" d="M23.3,85.6c-1.6-2.5-3-5.1-3.8-7.9c-0.1-0.2-0.1-0.4,0-0.6c1.1-2.1,2.3-4.1,3.8-6.2
			C23.3,76,23.3,80.8,23.3,85.6z"/>
		<path id="XMLID_23_" class="st2" d="M126.9,86c0-5.1,0-10,0-15.1c1.6,2.1,2.8,4.2,3.9,6.3c0.2,0.4,0,0.6-0.1,0.9
			C129.7,80.8,128.4,83.3,126.9,86z"/>
	</g>
</g>
</svg>
