<?xml version="1.0"?>
<svg xmlns="http://www.w3.org/2000/svg" xmlns:xlink="http://www.w3.org/1999/xlink" version="1.1" id="Capa_1" x="0px" y="0px" viewBox="0 0 512.001 512.001" style="enable-background:new 0 0 512.001 512.001;" xml:space="preserve" width="512px" height="512px" class=""><g><rect x="88.88" y="106.72" style="fill:#D7DEDC" width="192.15" height="358.44" data-original="#FFB125" class="active-path" data-old_color="#4C5F7A"/><rect x="184.95" y="106.72" style="fill:#D7DEDC" width="96.07" height="358.44" data-original="#FF901D" class="" data-old_color="#FF901D"/><path style="fill:#FFFFFF;" d="M200.338,284.787h-61.596v-97.529c0-2.833,2.297-5.13,5.13-5.13h51.335c2.833,0,5.13,2.297,5.13,5.13  L200.338,284.787L200.338,284.787z" data-original="#FFFFFF" class=""/><path style="fill:#38485B" d="M277.515,123.852H71.308c-1.939,0-3.511-1.572-3.511-3.511v-19.855c0-1.939,1.572-3.511,3.511-3.511  h206.206c1.939,0,3.511,1.572,3.511,3.511v19.855C281.025,122.28,279.453,123.852,277.515,123.852z" data-original="#AF8A82" class="" data-old_color="#38485b"/><path style="fill:#D7DEDC" d="M16.064,473.366h264.961V292.032H28.663c-6.958,0-12.598,5.64-12.598,12.598v168.736H16.064z" data-original="#FF6D3A" class="" data-old_color="#FF6D3A"/><rect x="184.95" y="292.03" style="fill:#D7DEDC" width="96.07" height="181.33" data-original="#ED5729" class="" data-old_color="#ED5729"/><polygon style="fill:#D7DEDC" points="478.906,473.366 232.278,468.093 232.278,31.783 478.906,100.466 " data-original="#61AFF6" class="" data-old_color="#d7dedc"/><polygon style="fill:#D7DEDC" points="430.404,86.959 430.404,472.329 478.906,473.366 478.906,100.466 " data-original="#55A2F0" class="" data-old_color="#55A2F0"/><path style="fill:#38485B" d="M209.886,48.077l289.928,80.742c1.761,0.49,3.504-0.834,3.504-2.661v-20.507  c0-1.24-0.827-2.329-2.021-2.661L211.369,22.248c-1.761-0.49-3.504,0.834-3.504,2.661v20.507  C207.865,46.656,208.691,47.744,209.886,48.077z" data-original="#AF8A82" class="" data-old_color="#38485b"/><path style="fill:#D7DEDC" d="M446.208,355.885h-52.904c-2.308,0-4.18,1.871-4.18,4.18v113.302h61.264V360.064  C450.388,357.756,448.517,355.885,446.208,355.885z" data-original="#FFB125" class="active-path" data-old_color="#4C5F7A"/><path style="fill:#FFFFFF;" d="M351.063,419.611h-82.899v-56.576c0-2.31,1.872-4.182,4.182-4.182h74.535  c2.31,0,4.182,1.872,4.182,4.182L351.063,419.611L351.063,419.611z" data-original="#FFFFFF" class=""/><path style="fill:#6E8BB1" d="M346.881,358.853h-37.267v60.758h41.45v-56.576C351.063,360.725,349.19,358.853,346.881,358.853z" data-original="#E6E6E6" class="" data-old_color="#E6E6E6"/><path style="fill:#D7DEDC" d="M353.158,411.701h-87.09c-4.368,0-7.91,3.541-7.91,7.91c0,4.369,3.541,7.91,7.91,7.91h87.09  c4.368,0,7.91-3.541,7.91-7.91C361.068,415.242,357.527,411.701,353.158,411.701z" data-original="#55A2F0" class="" data-old_color="#55A2F0"/><path style="fill:#FFFFFF;" d="M429,272.386H282.183v-94.342c0-4.307,3.492-7.799,7.799-7.799h131.219  c4.307,0,7.799,3.492,7.799,7.799L429,272.386L429,272.386z" data-original="#FFFFFF" class=""/><path style="fill:#6E8BB1" d="M429,272.386h-73.408V170.245h65.609c4.307,0,7.799,3.492,7.799,7.799L429,272.386L429,272.386z" data-original="#E6E6E6" class="" data-old_color="#E6E6E6"/><rect x="88.88" y="266.74" style="fill:#38485B" width="390.03" height="25.292" data-original="#AF8A82" class="" data-old_color="#38485b"/><rect x="430.4" y="266.74" style="fill:#38485B" width="48.5" height="25.292" data-original="#927266" class="" data-old_color="#38485b"/><path style="fill:#586D8C" d="M186.182,355.131H61.004c-2.235,0-4.047,1.812-4.047,4.047v25.512h133.272v-25.512  C190.229,356.943,188.417,355.131,186.182,355.131z" data-original="#CCDFED" class="" data-old_color="#586d8c"/><rect x="56.957" y="384.69" style="fill:#6E8BB1" width="133.27" height="29.559" data-original="#E6E6E6" class="" data-old_color="#E6E6E6"/><rect x="56.957" y="414.25" style="fill:#586D8C" width="133.27" height="29.559" data-original="#CCDFED" class="" data-old_color="#586d8c"/><rect x="56.957" y="443.81" style="fill:#6E8BB1" width="133.27" height="29.559" data-original="#E6E6E6" class="" data-old_color="#E6E6E6"/><path style="fill:#63D282" d="M499.782,465.42H12.218C5.47,465.42,0,470.89,0,477.638l0,0c0,6.748,5.47,12.218,12.218,12.218  h487.565c6.748,0,12.218-5.47,12.218-12.218l0,0C512,470.89,506.53,465.42,499.782,465.42z" data-original="#77DD00" class="" data-old_color="#77DD00"/><path style="fill:#3FB661" d="M511.939,476.431c-0.031-0.318-0.084-0.629-0.139-0.939c-0.013-0.071-0.019-0.144-0.033-0.214  c-1.1-5.618-6.045-9.858-11.985-9.858h-36.284v2.944c0,6.846-5.549,12.395-12.395,12.395H12.218c-5.139,0-9.528-3.176-11.333-7.669  C0.319,474.496,0,476.029,0,477.638l0,0c0,6.748,5.47,12.217,12.217,12.217h451.281h36.284c6.748,0,12.218-5.47,12.218-12.218l0,0  C512,477.23,511.979,476.828,511.939,476.431z" data-original="#6EC102" class="" data-old_color="#3fb661"/><path style="fill:#38485B" d="M503.156,104.726c-0.295-0.829-0.975-1.49-1.859-1.736L454.655,90v26.242l45.16,12.577  c1.457,0.406,2.887-0.44,3.342-1.777v-22.316H503.156z" data-original="#927266" class="" data-old_color="#38485b"/><path style="fill:#D7DEDC" d="M435.537,404.845c-4.369,0-7.91,3.541-7.91,7.91v13.711c0,4.368,3.541,7.91,7.91,7.91  s7.91-3.541,7.91-7.91v-13.711C443.447,408.387,439.906,404.845,435.537,404.845z" data-original="#FF901D" class="" data-old_color="#FF901D"/></g> </svg>
