<?xml version="1.0"?>
<svg xmlns="http://www.w3.org/2000/svg" xmlns:xlink="http://www.w3.org/1999/xlink" version="1.1" id="Capa_1" x="0px" y="0px" viewBox="0 0 512 512" style="enable-background:new 0 0 512 512;" xml:space="preserve" width="512px" height="512px" class=""><g><rect x="308.131" y="236.451" style="fill:#D7DEDC" width="180.57" height="226.34" data-original="#E8679C" class="" data-old_color="#d7dedc"/><rect x="442.941" y="236.451" style="fill:#D7DEDC" width="45.764" height="226.34" data-original="#D65C94" class="" data-old_color="#d7dedc"/><path style="fill:#4C5F7A" d="M489.725,177.143c-0.604-2.027-2.467-3.416-4.582-3.416H302.135c-2.115,0-3.978,1.389-4.582,3.416  l-22.276,74.785v14.857c0,3.098,2.511,5.61,5.609,5.61h225.505c3.098,0,5.609-2.512,5.609-5.61v-14.857L489.725,177.143z" data-original="#AF8A82" class="" data-old_color="#4B5F7A"/><path style="fill:#38485B" d="M485.143,173.727h-45.764c2.115,0,3.978,1.389,4.582,3.416l12.503,41.975  c3.354,11.262-5.082,22.577-16.833,22.577H278.325l0,0l-2.939,26.184c0.509,2.574,2.777,4.515,5.501,4.515h225.504  c3.098,0,5.61-2.512,5.61-5.61v-14.857l-22.276-74.785C489.121,175.116,487.258,173.727,485.143,173.727z" data-original="#A07C75" class="" data-old_color="#38485b"/><path style="fill:#38485B" d="M506.391,272.394H280.887c-3.098,0-5.61-2.511-5.61-5.61v-14.857H512v14.857  C512,269.883,509.489,272.394,506.391,272.394z" data-original="#927266" class="" data-old_color="#38485b"/><path style="fill:#38485B" d="M437.261,339.36h-56.99c-12.566,0-22.754,10.187-22.754,22.754v96.374h102.498v-96.374  C460.015,349.547,449.828,339.36,437.261,339.36z" data-original="#2D5872" class="" data-old_color="#38485b"/><rect x="357.521" y="370.221" style="fill:#4C5F7A" width="102.5" height="30.858" data-original="#1D4859" class="active-path" data-old_color="#4c5f7a"/><rect x="357.521" y="401.081" style="fill:#38485B" width="102.5" height="30.858" data-original="#2D5872" class="" data-old_color="#38485b"/><rect x="357.521" y="431.931" style="fill:#4C5F7A" width="102.5" height="30.858" data-original="#1D4859" class="active-path" data-old_color="#4c5f7a"/><rect x="16.497" y="125.961" style="fill:#D7DEDC" width="312.18" height="336.83" data-original="#FF7BAC" class="" data-old_color="#d7dedc"/><rect x="283.851" y="125.961" style="fill:#D7DEDC" width="44.827" height="336.83" data-original="#E8679C" class="" data-old_color="#d7dedc"/><path style="fill:#38485B" d="M212.583,462.793h-84.822V334.22c0-3.675,2.979-6.654,6.654-6.654h71.515  c3.675,0,6.653,2.979,6.653,6.654V462.793z" data-original="#FFB125" class="" data-old_color="#38485b"/><g>
	<path style="fill:#FFFFFF;" d="M86.099,405.932H52.512c-4.099,0-7.421-3.323-7.421-7.421v-56.758c0-4.099,3.323-7.421,7.421-7.421   h33.587c4.099,0,7.421,3.323,7.421,7.421v56.758C93.521,402.609,90.198,405.932,86.099,405.932z" data-original="#FFFFFF" class=""/>
	<path style="fill:#FFFFFF;" d="M287.834,405.932h-33.587c-4.099,0-7.421-3.323-7.421-7.421v-56.758   c0-4.099,3.323-7.421,7.421-7.421h33.587c4.099,0,7.421,3.323,7.421,7.421v56.758C295.255,402.609,291.933,405.932,287.834,405.932   z" data-original="#FFFFFF" class=""/>
	<path style="fill:#FFFFFF;" d="M86.099,241.133H52.512c-4.099,0-7.421-3.323-7.421-7.421v-56.758c0-4.099,3.323-7.421,7.421-7.421   h33.587c4.099,0,7.421,3.323,7.421,7.421v56.758C93.521,237.811,90.198,241.133,86.099,241.133z" data-original="#FFFFFF" class=""/>
	<path style="fill:#FFFFFF;" d="M287.834,241.133h-33.587c-4.099,0-7.421-3.323-7.421-7.421v-56.758   c0-4.099,3.323-7.421,7.421-7.421h33.587c4.099,0,7.421,3.323,7.421,7.421v56.758C295.255,237.811,291.933,241.133,287.834,241.133   z" data-original="#FFFFFF" class=""/>
	<path style="fill:#FFFFFF;" d="M186.965,241.133h-33.587c-4.099,0-7.421-3.323-7.421-7.421v-56.758   c0-4.099,3.323-7.421,7.421-7.421h33.587c4.099,0,7.421,3.323,7.421,7.421v56.758C194.387,237.811,191.064,241.133,186.965,241.133   z" data-original="#FFFFFF" class=""/>
</g><path style="fill:#4C5F7A" d="M314.75,40.121c-0.68-2.283-2.779-3.848-5.162-3.848H30.758c-2.382,0-4.482,1.565-5.162,3.848  L0.313,125v18.253c0,1.694,1.373,3.067,3.067,3.067h333.586c1.694,0,3.067-1.373,3.067-3.067V125L314.75,40.121z" data-original="#AF8A82" class="" data-old_color="#4B5F7A"/><path style="fill:#38485B" d="M340.033,133.553v-8.552l-2.697-9.054l-1.425-4.783L314.75,40.121  c-0.51-1.712-1.818-3.021-3.446-3.568c-0.271-0.091-0.552-0.161-0.838-0.209c-0.287-0.047-0.58-0.072-0.878-0.072h-46.302  c2.382,0,4.482,1.565,5.162,3.848l8.28,27.798c7.04,23.633-10.664,47.379-35.324,47.379H3.203l-0.193,0.648l-2.697,9.054l0,0v18.253  c0,1.694,1.373,3.067,3.067,3.067h333.586c0.635,0,1.225-0.193,1.715-0.524c0.163-0.11,0.315-0.236,0.454-0.374  c0.555-0.555,0.898-1.322,0.898-2.169V133.553z" data-original="#A07C75" class="" data-old_color="#38485b"/><path style="fill:#38485B" d="M336.966,146.32H3.38c-1.694,0-3.067-1.373-3.067-3.067V125h339.72v18.253  C340.033,144.947,338.66,146.32,336.966,146.32z" data-original="#927266" class="" data-old_color="#38485b"/><path style="fill:#586D8C" d="M196.378,380.004c-4.122,0-7.463,3.341-7.463,7.463v15.424c0,4.122,3.341,7.463,7.463,7.463  s7.463-3.341,7.463-7.463v-15.424C203.842,383.345,200.501,380.004,196.378,380.004z" data-original="#FF901D" class="" data-old_color="#596E8C"/><path style="fill:#63D282" d="M489.876,449.857H12.937c-7.144,0-12.936,5.792-12.936,12.936l0,0  c0,7.144,5.792,12.936,12.936,12.936h476.94c7.144,0,12.936-5.792,12.936-12.936l0,0  C502.812,455.649,497.021,449.857,489.876,449.857z" data-original="#77DD00" class="" data-old_color="#63D181"/><path style="fill:#3FB661" d="M500.375,470.331c0.116-0.162,0.232-0.323,0.34-0.49c0.111-0.17,0.213-0.344,0.315-0.519  c0.102-0.174,0.205-0.347,0.299-0.527c0.094-0.179,0.178-0.363,0.263-0.547c0.086-0.185,0.175-0.368,0.253-0.557  c0.077-0.188,0.142-0.382,0.21-0.574c0.069-0.194,0.142-0.386,0.202-0.584c0.059-0.197,0.104-0.399,0.154-0.6  c0.05-0.201,0.107-0.4,0.148-0.605c0.042-0.213,0.067-0.432,0.099-0.649c0.029-0.199,0.068-0.395,0.088-0.597l0,0l0,0  c0.042-0.424,0.065-0.854,0.065-1.289c0-0.35-0.038-0.69-0.065-1.033v-0.256c-0.006-0.065-0.021-0.128-0.028-0.192  c-0.018-0.16-0.046-0.316-0.07-0.474c-0.051-0.334-0.113-0.664-0.189-0.99c-0.037-0.159-0.073-0.318-0.116-0.474  c-0.106-0.387-0.228-0.765-0.368-1.137c-0.027-0.07-0.046-0.144-0.074-0.214c-0.171-0.432-0.371-0.849-0.586-1.257  c-0.022-0.042-0.038-0.089-0.061-0.131c-0.002,0.004-0.005,0.008-0.007,0.012c-2.188-4.041-6.454-6.79-11.372-6.79h-32.893l0,0  c0,7.487-6.07,13.557-13.557,13.557H12.937c-4.915,0-9.19-2.741-11.379-6.779c-1.144,2.11-1.719,4.572-1.518,7.183  c0.524,6.797,6.467,11.911,13.285,11.911h443.658h32.893c0.434,0,0.862-0.023,1.284-0.065c0.142-0.014,0.279-0.042,0.419-0.06  c0.278-0.037,0.556-0.072,0.829-0.126c0.165-0.033,0.325-0.079,0.488-0.118c0.241-0.058,0.482-0.113,0.718-0.184  c0.171-0.052,0.336-0.114,0.503-0.173c0.22-0.076,0.44-0.152,0.654-0.239c0.17-0.069,0.334-0.148,0.5-0.224  c0.203-0.094,0.406-0.187,0.603-0.291c0.165-0.087,0.326-0.181,0.487-0.275c0.188-0.109,0.375-0.22,0.556-0.338  c0.159-0.103,0.313-0.212,0.467-0.322c0.173-0.124,0.344-0.25,0.511-0.382c0.15-0.119,0.296-0.242,0.441-0.367  c0.158-0.138,0.313-0.278,0.465-0.423c0.14-0.134,0.277-0.27,0.412-0.41c0.143-0.149,0.281-0.302,0.417-0.459  c0.129-0.148,0.256-0.297,0.378-0.451C500.134,470.662,500.255,470.498,500.375,470.331z" data-original="#6EC102" class="" data-old_color="#3fb661"/><g>
	<path style="fill:#6E8BB1" d="M86.099,169.532H69.306v71.601h16.793c4.099,0,7.421-3.323,7.421-7.421v-56.758   C93.521,172.855,90.198,169.532,86.099,169.532z" data-original="#E1EFFB" class="" data-old_color="#6D8BB1"/>
	<path style="fill:#6E8BB1" d="M86.099,334.331H69.306v71.601h16.793c4.099,0,7.421-3.323,7.421-7.421v-56.758   C93.521,337.654,90.198,334.331,86.099,334.331z" data-original="#E1EFFB" class="" data-old_color="#6D8BB1"/>
	<path style="fill:#6E8BB1" d="M186.967,169.532h-16.793v71.601h16.793c4.099,0,7.421-3.323,7.421-7.421v-56.758   C194.387,172.855,191.064,169.532,186.967,169.532z" data-original="#E1EFFB" class="" data-old_color="#6D8BB1"/>
	<path style="fill:#6E8BB1" d="M287.834,169.532h-16.793v71.601h16.793c4.099,0,7.421-3.323,7.421-7.421v-56.758   C295.255,172.855,291.933,169.532,287.834,169.532z" data-original="#E1EFFB" class="" data-old_color="#6D8BB1"/>
	<path style="fill:#6E8BB1" d="M287.834,334.418h-16.793v71.601h16.793c4.099,0,7.421-3.323,7.421-7.421V341.84   C295.255,337.74,291.933,334.418,287.834,334.418z" data-original="#E1EFFB" class="" data-old_color="#6D8BB1"/>
</g></g> </svg>
