<?xml version="1.0"?>
<svg xmlns="http://www.w3.org/2000/svg" xmlns:xlink="http://www.w3.org/1999/xlink" version="1.1" id="Capa_1" x="0px" y="0px" viewBox="0 0 512 512" style="enable-background:new 0 0 512 512;" xml:space="preserve" width="512px" height="512px" class=""><g><rect x="37.309" y="49.27" style="fill:#D7DEDC" width="184.25" height="446.11" data-original="#FF7BAC" class="" data-old_color="#d7dedc"/><rect x="37.309" y="466.06" style="fill:#586D8C" width="125.03" height="29.326" data-original="#FF901D" class="" data-old_color="#586d8c"/><rect x="37.309" y="440.5" style="fill:#38485B" width="125.03" height="25.672" data-original="#FFB125" class="" data-old_color="#38485b"/><g>
	<rect x="37.309" y="49.27" style="fill:#D7DEDC" width="15.25" height="446.11" data-original="#E8679C" class="" data-old_color="#d7dedc"/>
	<rect x="134.999" y="114.03" style="fill:#D7DEDC" width="340.65" height="381.36" data-original="#E8679C" class="" data-old_color="#d7dedc"/>
</g><rect x="429.909" y="114.03" style="fill:#D7DEDC" width="45.741" height="381.36" data-original="#D35991" class="" data-old_color="#d7dedc"/><rect x="150.819" y="114.03" style="fill:#D7DEDC" width="324.82" height="190.68" data-original="#61AFF6" class="" data-old_color="#d7dedc"/><rect x="429.909" y="114.03" style="fill:#D7DEDC" width="45.741" height="190.68" data-original="#55A2F0" class="" data-old_color="#d7dedc"/><g>
	<path style="fill:#38485B" d="M426.72,374.326h-64.109c-2.18,0-3.947,1.767-3.947,3.947v116.829h72.004V378.273   C430.668,376.093,428.9,374.326,426.72,374.326z" data-original="#FFB125" class="" data-old_color="#38485b"/>
	<path style="fill:#38485B" d="M423.069,197.685h-56.806c-1.932,0-3.498,1.566-3.498,3.498v103.52h63.801v-103.52   C426.567,199.251,425.001,197.685,423.069,197.685z" data-original="#FFB125" class="" data-old_color="#38485b"/>
</g><path style="fill:#4C5F7A" d="M476.44,66.694c-0.572-1.921-2.339-3.239-4.344-3.239H239.152c-2.005,0-3.772,1.317-4.344,3.239  l-21.119,70.902v14.085c0,2.937,2.381,5.318,5.318,5.318H492.24c2.937,0,5.318-2.381,5.318-5.318v-14.085L476.44,66.694z" data-original="#AF8A82" class="" data-old_color="#4c5f7a"/><path style="fill:#38485B" d="M476.44,66.694c-0.572-1.921-2.339-3.239-4.344-3.239h-45.988c2.005,0,3.771,1.317,4.344,3.239  l10.736,36.042c3.47,11.649-5.257,23.353-17.411,23.353h-206.66l-3.427,11.506v14.085c0,2.937,2.381,5.318,5.318,5.318h273.233  c2.937,0,5.318-2.381,5.318-5.318v-11.506v-2.579L476.44,66.694z" data-original="#A07C75" class="" data-old_color="#38485b"/><path style="fill:#38485B" d="M492.241,157H219.008c-2.937,0-5.318-2.381-5.318-5.318v-14.085h283.87v14.085  C497.559,154.619,495.178,157,492.241,157z" data-original="#927266" class="" data-old_color="#38485b"/><rect x="313.689" y="276.51" style="fill:#4C5F7A" width="161.96" height="28.19" data-original="#AF8A82" class="" data-old_color="#4c5f7a"/><rect x="37.309" y="49.27" style="fill:#D7DEDC" width="276.38" height="255.43" data-original="#21D8DE" class="" data-old_color="#d7dedc"/><rect x="267.619" y="49.27" style="fill:#D7DEDC" width="46.07" height="255.43" data-original="#11B9C1" class="" data-old_color="#d7dedc"/><path style="fill:#FFFFFF;" d="M265.674,245.884h-58.06c-2.671,0-4.836-2.165-4.836-4.836v-82.447c0-2.671,2.165-4.836,4.836-4.836  h58.06c2.671,0,4.836,2.165,4.836,4.836v82.447C270.51,243.719,268.345,245.884,265.674,245.884z" data-original="#FFFFFF"/><path style="fill:#6E8BB1" d="M265.674,153.765h-29.03v92.119h29.03c2.671,0,4.836-2.165,4.836-4.836v-82.447  C270.51,155.931,268.345,153.765,265.674,153.765z" data-original="#E1EFFB" class="active-path" data-old_color="#6e8bb1"/><path style="fill:#FFFFFF;" d="M139.933,245.884h-58.06c-2.671,0-4.836-2.165-4.836-4.836v-82.447c0-2.671,2.165-4.836,4.836-4.836  h58.06c2.671,0,4.836,2.165,4.836,4.836v82.447C144.769,243.719,142.604,245.884,139.933,245.884z" data-original="#FFFFFF"/><path style="fill:#6E8BB1" d="M139.933,153.765h-29.03v92.119h29.03c2.671,0,4.836-2.165,4.836-4.836v-82.447  C144.769,155.931,142.604,153.765,139.933,153.765z" data-original="#E1EFFB" class="active-path" data-old_color="#6e8bb1"/><path style="fill:#FFFFFF;" d="M233.634,456.217h-51.211c-1.097,0-1.986-0.889-1.986-1.986v-53.805c0-1.097,0.889-1.986,1.986-1.986  h51.211c1.097,0,1.986,0.889,1.986,1.986v53.805C235.619,455.328,234.73,456.217,233.634,456.217z" data-original="#FFFFFF"/><path style="fill:#6E8BB1" d="M233.634,398.441h-25.605v57.776h25.605c1.097,0,1.986-0.889,1.986-1.986v-53.804  C235.619,399.331,234.73,398.441,233.634,398.441z" data-original="#E1EFFB" class="active-path" data-old_color="#6e8bb1"/><path style="fill:#FFFFFF;" d="M323.614,456.217h-51.211c-1.097,0-1.986-0.889-1.986-1.986v-53.805c0-1.097,0.889-1.986,1.986-1.986  h51.211c1.097,0,1.986,0.889,1.986,1.986v53.805C325.6,455.328,324.711,456.217,323.614,456.217z" data-original="#FFFFFF"/><path style="fill:#6E8BB1" d="M323.614,398.441h-25.605v57.776h25.606c1.097,0,1.986-0.889,1.986-1.986v-53.804  C325.6,399.331,324.711,398.441,323.614,398.441z" data-original="#E1EFFB" class="active-path" data-old_color="#6e8bb1"/><g>
	<path style="fill:#586D8C" d="M412.593,450.263c-4.142,0-7.5-3.357-7.5-7.5v-11.944c0-4.143,3.358-7.5,7.5-7.5s7.5,3.357,7.5,7.5   v11.944C420.093,446.905,416.735,450.263,412.593,450.263z" data-original="#FF901D" class="" data-old_color="#586d8c"/>
	<path style="fill:#586D8C" d="M412.593,257.683c-4.142,0-7.5-3.357-7.5-7.5v-11.944c0-4.143,3.358-7.5,7.5-7.5s7.5,3.357,7.5,7.5   v11.944C420.093,254.325,416.735,257.683,412.593,257.683z" data-original="#FF901D" class="" data-old_color="#586d8c"/>
</g><g>
	<path style="fill:#D7DEDC" d="M280.885,238.384h-87.113c-4.142,0-7.5,3.357-7.5,7.5s3.358,7.5,7.5,7.5h87.113   c4.142,0,7.5-3.357,7.5-7.5S285.027,238.384,280.885,238.384z" data-original="#11B9C1" class="" data-old_color="#d7dedc"/>
	<path style="fill:#D7DEDC" d="M155.145,238.384H68.032c-4.142,0-7.5,3.357-7.5,7.5s3.358,7.5,7.5,7.5h87.112   c4.142,0,7.5-3.357,7.5-7.5S159.287,238.384,155.145,238.384z" data-original="#11B9C1" class="" data-old_color="#d7dedc"/>
</g><g>
	<path style="fill:#D7DEDC" d="M240.072,448.718H177.1c-4.142,0-7.5,3.357-7.5,7.5s3.358,7.5,7.5,7.5h62.972   c4.142,0,7.5-3.357,7.5-7.5S244.214,448.718,240.072,448.718z" data-original="#D85D95" class="" data-old_color="#d7dedc"/>
	<path style="fill:#D7DEDC" d="M330.053,448.718h-62.971c-4.142,0-7.5,3.357-7.5,7.5s3.358,7.5,7.5,7.5h62.971   c4.142,0,7.5-3.357,7.5-7.5S334.195,448.718,330.053,448.718z" data-original="#D85D95" class="" data-old_color="#d7dedc"/>
</g><path style="fill:#4C5F7A" d="M312.549,3.648C311.905,1.484,309.914,0,307.656,0H43.302c-2.259,0-4.249,1.484-4.894,3.648  L14.439,84.12v17.306c0,1.606,1.302,2.907,2.908,2.907h316.265c1.606,0,2.908-1.302,2.908-2.907V84.12L312.549,3.648z" data-original="#AF8A82" class="" data-old_color="#4c5f7a"/><path style="fill:#38485B" d="M17.347,104.333h316.265c1.606,0,2.908-1.302,2.908-2.908V91.319V84.12L312.549,3.648  C311.904,1.484,309.914,0,307.656,0h-45.867c2.259,0,4.249,1.484,4.894,3.648l13.547,45.481  c3.697,12.412-5.601,24.884-18.552,24.884H17.45L14.439,84.12v17.306C14.439,103.032,15.741,104.333,17.347,104.333z" data-original="#A07C75" class="" data-old_color="#38485b"/><path style="fill:#38485B" d="M484.999,297.203h-458c-4.142,0-7.5,3.357-7.5,7.5s3.358,7.5,7.5,7.5h458c4.142,0,7.5-3.357,7.5-7.5  S489.141,297.203,484.999,297.203z" data-original="#927266" class="" data-old_color="#38485b"/><path style="fill:#63D282" d="M488.636,486.002H23.362c-7.179,0-12.999,5.82-12.999,12.999l0,0c0,7.179,5.82,12.999,12.999,12.999  h465.275c7.179,0,12.999-5.82,12.999-12.999l0,0C501.635,491.822,495.816,486.002,488.636,486.002z" data-original="#2D5871" class="" data-old_color="#63d282"/><path style="fill:#3FB661" d="M499.186,506.576c0.117-0.162,0.233-0.324,0.342-0.492c0.111-0.17,0.214-0.346,0.317-0.522  c0.103-0.175,0.206-0.349,0.301-0.529c0.094-0.18,0.179-0.365,0.265-0.55c0.087-0.186,0.176-0.369,0.254-0.56  c0.077-0.189,0.143-0.384,0.211-0.577c0.069-0.195,0.143-0.388,0.203-0.587c0.06-0.198,0.105-0.401,0.155-0.603  c0.051-0.202,0.108-0.402,0.149-0.608c0.043-0.214,0.068-0.435,0.1-0.653c0.029-0.2,0.068-0.397,0.088-0.6l0,0l0,0  c0.042-0.426,0.065-0.858,0.065-1.295c0-0.352-0.038-0.694-0.065-1.038v-0.257c-0.006-0.065-0.021-0.128-0.028-0.193  c-0.018-0.161-0.046-0.318-0.07-0.476c-0.051-0.336-0.114-0.667-0.19-0.994c-0.037-0.16-0.074-0.319-0.117-0.477  c-0.106-0.388-0.23-0.769-0.37-1.142c-0.027-0.071-0.046-0.145-0.074-0.215c-0.172-0.434-0.372-0.854-0.589-1.263  c-0.023-0.042-0.038-0.089-0.061-0.131c-0.002,0.004-0.005,0.008-0.007,0.012c-2.198-4.06-6.486-6.823-11.428-6.823h-33.054l0,0  c0,7.524-6.099,13.624-13.624,13.624H23.362c-4.939,0-9.234-2.755-11.434-6.812c-1.149,2.12-1.727,4.595-1.525,7.218  C10.929,506.862,16.901,512,23.752,512h431.83h33.054c0.436,0,0.866-0.023,1.291-0.065c0.142-0.014,0.28-0.042,0.421-0.06  c0.279-0.037,0.559-0.073,0.833-0.127c0.166-0.033,0.327-0.079,0.49-0.118c0.242-0.058,0.485-0.114,0.721-0.185  c0.172-0.052,0.337-0.115,0.506-0.173c0.221-0.077,0.442-0.152,0.657-0.24c0.17-0.07,0.335-0.149,0.502-0.226  c0.204-0.094,0.408-0.188,0.606-0.292c0.166-0.087,0.327-0.182,0.489-0.276c0.189-0.11,0.376-0.221,0.559-0.34  c0.16-0.104,0.315-0.213,0.469-0.324c0.174-0.125,0.346-0.251,0.513-0.384c0.151-0.12,0.298-0.243,0.443-0.369  c0.159-0.138,0.315-0.279,0.467-0.425c0.141-0.135,0.279-0.272,0.414-0.412c0.144-0.15,0.282-0.304,0.419-0.461  c0.13-0.149,0.257-0.298,0.38-0.453C498.944,506.908,499.066,506.743,499.186,506.576z" data-original="#1D4859" class="" data-old_color="#3fb661"/><path style="fill:#38485B" d="M333.611,104.333H17.347c-1.606,0-2.908-1.302-2.908-2.908V84.12h322.08v17.306  C336.519,103.032,335.217,104.333,333.611,104.333z" data-original="#927266" class="" data-old_color="#38485b"/></g> </svg>
