<?xml version="1.0" encoding="utf-8"?>
<!-- Generator: Adobe Illustrator 16.0.0, SVG Export Plug-In . SVG Version: 6.00 Build 0)  -->
<!DOCTYPE svg PUBLIC "-//W3C//DTD SVG 1.1//EN" "http://www.w3.org/Graphics/SVG/1.1/DTD/svg11.dtd">
<svg version="1.1" id="Layer_1" xmlns="http://www.w3.org/2000/svg" xmlns:xlink="http://www.w3.org/1999/xlink" x="0px" y="0px"
	 width="50px" height="50px" viewBox="0 0 50 50" enable-background="new 0 0 50 50" xml:space="preserve">
<g>
	<path fill="#414042" d="M29.104,39.543h-8.35c-0.646,0-1.17,0.524-1.17,1.172c0,0.646,0.524,1.17,1.17,1.17h8.35
		c0.646,0,1.172-0.523,1.172-1.17C30.275,40.067,29.75,39.543,29.104,39.543z"/>
	<path fill="#414042" d="M22.779,46.368c0.159,1.052,1.057,1.861,2.153,1.861c1.095,0,1.995-0.81,2.153-1.861
		c1.435-0.084,2.573-1.263,2.573-2.717h-9.458C20.201,45.106,21.343,46.285,22.779,46.368z"/>
	<path fill="#414042" d="M24.932,7.916c0.863,0,1.561-0.699,1.561-1.561V2.722c0-0.863-0.698-1.562-1.561-1.562
		c-0.863,0-1.561,0.699-1.561,1.562v3.633C23.371,7.217,24.069,7.916,24.932,7.916z"/>
	<path fill="#414042" d="M14.685,10.191c0.307,0.421,0.782,0.645,1.266,0.645c0.317,0,0.639-0.097,0.916-0.299
		c0.697-0.506,0.853-1.482,0.346-2.18l-2.135-2.94C14.57,4.72,13.596,4.563,12.896,5.07c-0.697,0.507-0.852,1.483-0.346,2.181
		L14.685,10.191z"/>
	<path fill="#414042" d="M35.177,33.081c-0.506-0.696-1.482-0.852-2.182-0.345c-0.696,0.508-0.852,1.484-0.344,2.181l2.136,2.94
		c0.305,0.419,0.781,0.644,1.265,0.644c0.318,0,0.639-0.097,0.916-0.299c0.697-0.506,0.854-1.483,0.346-2.181L35.177,33.081z"/>
	<path fill="#414042" d="M10.882,15.429l-3.455-1.124c-0.828-0.267-1.702,0.182-1.969,1.002c-0.267,0.819,0.182,1.701,1.001,1.968
		L9.916,18.4c0.162,0.051,0.323,0.076,0.483,0.076c0.659,0,1.271-0.419,1.486-1.08C12.151,16.577,11.703,15.696,10.882,15.429z"/>
	<path fill="#414042" d="M43.402,25.996l-3.455-1.122c-0.82-0.265-1.699,0.183-1.967,1.002c-0.267,0.82,0.183,1.702,1.003,1.968
		l3.456,1.123c0.16,0.051,0.321,0.075,0.482,0.075c0.658,0,1.27-0.42,1.484-1.079C44.673,27.144,44.224,26.264,43.402,25.996z"/>
	<path fill="#414042" d="M9.917,24.874l-3.458,1.121c-0.82,0.267-1.27,1.147-1.003,1.967c0.214,0.66,0.826,1.081,1.485,1.081
		c0.159,0,0.323-0.025,0.482-0.077l3.456-1.121c0.821-0.267,1.271-1.147,1.004-1.967C11.619,25.058,10.745,24.609,9.917,24.874z"/>
	<path fill="#414042" d="M39.466,18.476c0.16,0,0.322-0.025,0.481-0.076l3.455-1.123c0.821-0.267,1.271-1.147,1.004-1.968
		c-0.267-0.82-1.151-1.268-1.967-1.003l-3.456,1.123c-0.82,0.267-1.27,1.147-1.003,1.967C38.195,18.056,38.807,18.476,39.466,18.476
		z"/>
	<path fill="#414042" d="M14.687,33.081l-2.138,2.938c-0.508,0.698-0.354,1.675,0.345,2.182c0.276,0.202,0.598,0.3,0.917,0.3
		c0.483,0,0.958-0.224,1.264-0.644l2.139-2.938c0.507-0.697,0.353-1.674-0.345-2.182C16.172,32.227,15.191,32.383,14.687,33.081z"/>
	<path fill="#414042" d="M34.786,5.417l-2.135,2.94c-0.506,0.698-0.352,1.674,0.346,2.18c0.277,0.202,0.6,0.299,0.916,0.299
		c0.484,0,0.96-0.223,1.267-0.645l2.135-2.94c0.507-0.698,0.351-1.674-0.347-2.181C36.267,4.562,35.293,4.718,34.786,5.417z"/>
	<path fill="#414042" d="M36.21,21.693c0-6.229-5.05-11.28-11.279-11.28c-6.23,0-11.281,5.05-11.281,11.28
		c0,2.628,0.904,5.042,2.415,6.958c1.323,1.679,2.576,3.512,3.662,5.356v3.746H30.07v-3.647c1.077-1.793,2.468-3.858,3.725-5.453
		C35.307,26.736,36.21,24.323,36.21,21.693z"/>
</g>
</svg>
