<?xml version="1.0" encoding="utf-8"?>
<!-- Generator: Adobe Illustrator 16.0.0, SVG Export Plug-In . SVG Version: 6.00 Build 0)  -->
<!DOCTYPE svg PUBLIC "-//W3C//DTD SVG 1.1//EN" "http://www.w3.org/Graphics/SVG/1.1/DTD/svg11.dtd">
<svg version="1.1" id="Layer_1" xmlns="http://www.w3.org/2000/svg" xmlns:xlink="http://www.w3.org/1999/xlink" x="0px" y="0px"
	 width="470px" height="380px" viewBox="0 0 470 380" enable-background="new 0 0 470 380" xml:space="preserve">
<g>
	<g opacity="0.8">
		<g>
			<g>
				<path fill="#F3F3F3" d="M413.173,248.688h-3.127c-1.618,0-2.931-1.312-2.931-2.931v-0.06c0-1.618,1.313-2.93,2.931-2.93h3.127
					c1.618,0,2.93,1.312,2.93,2.93v0.06C416.103,247.377,414.791,248.688,413.173,248.688z"/>
			</g>
			<g>
				<path fill="#F3F3F3" d="M424.33,123.894H299.79c-9.333-2.601-16.185-11.16-16.185-21.321v-0.45
					c0-10.615,7.475-19.483,17.448-21.635h25.202c12.226,0,22.137-9.911,22.137-22.138v-0.447c0-12.227-9.911-22.138-22.137-22.138
					H96.048c-12.226,0-22.138,9.911-22.138,22.138v0.447c0,12.227,9.912,22.138,22.138,22.138h21.566
					c9.4,2.553,16.318,11.149,16.318,21.358v0.449c0,10.559-7.397,19.387-17.289,21.599H55.794
					c-12.226,0-22.137,9.911-22.137,22.137v0.447c0,12.226,9.911,22.137,22.137,22.137h35.919
					c-11.317,0.983-20.198,10.476-20.198,22.048v0.447c0,12.227,9.911,22.139,22.137,22.139H323.86
					c12.227,0,22.138-9.912,22.138-22.139v-0.447c0-11.572-8.881-21.064-20.198-22.048h98.53c12.226,0,22.138-9.911,22.138-22.137
					v-0.447C446.468,133.805,436.556,123.894,424.33,123.894z"/>
				<path fill="#F3F3F3" d="M421.936,257.177h-124.54c-9.333-2.601-16.185-11.159-16.185-21.32v-0.45
					c0-12.225,9.912-22.137,22.136-22.137H112.9c10.561,1.674,18.638,10.828,18.638,21.859v0.45c0,10.559-7.397,19.387-17.29,21.598
					H53.4c-12.226,0-22.138,9.912-22.138,22.138v0.447c0,12.227,9.912,22.137,22.138,22.137h368.536
					c12.227,0,22.137-9.91,22.137-22.137v-0.447C444.072,267.089,434.162,257.177,421.936,257.177z"/>
			</g>
			<g>
				<path fill="#F3F3F3" d="M401.737,99.597h-40.736c-1.619,0-2.932-1.312-2.932-2.931v-0.06c0-1.618,1.313-2.93,2.932-2.93h40.736
					c1.618,0,2.93,1.312,2.93,2.93v0.06C404.667,98.285,403.355,99.597,401.737,99.597z"/>
				<path fill="#F3F3F3" d="M415.062,99.597h-3.126c-1.619,0-2.932-1.312-2.932-2.931v-0.06c0-1.618,1.313-2.93,2.932-2.93h3.126
					c1.618,0,2.931,1.312,2.931,2.93v0.06C417.992,98.285,416.68,99.597,415.062,99.597z"/>
			</g>
			<g>
				<path fill="#F3F3F3" d="M54.837,103.303H14.101c-1.619,0-2.931-1.312-2.931-2.93v-0.06c0-1.619,1.312-2.931,2.931-2.931h40.736
					c1.618,0,2.931,1.312,2.931,2.931v0.06C57.768,101.991,56.456,103.303,54.837,103.303z"/>
				<path fill="#F3F3F3" d="M68.162,103.303h-3.126c-1.618,0-2.931-1.312-2.931-2.93v-0.06c0-1.619,1.313-2.931,2.931-2.931h3.126
					c1.619,0,2.931,1.312,2.931,2.931v0.06C71.093,101.991,69.781,103.303,68.162,103.303z"/>
			</g>
			<g>
				<path fill="#F3F3F3" d="M155.264,18.238H196c1.618,0,2.93-1.312,2.93-2.931v-0.059c0-1.619-1.312-2.931-2.93-2.931h-40.737
					c-1.619,0-2.931,1.312-2.931,2.931v0.059C152.333,16.926,153.645,18.238,155.264,18.238z"/>
				<path fill="#F3F3F3" d="M141.939,18.238h3.127c1.618,0,2.93-1.312,2.93-2.931v-0.059c0-1.619-1.312-2.931-2.93-2.931h-3.127
					c-1.618,0-2.93,1.312-2.93,2.931v0.059C139.009,16.926,140.321,18.238,141.939,18.238z"/>
			</g>
		</g>
		<path fill="#F3F3F3" d="M422.729,368.031H46.31c-6.078,0-11.006-4.928-11.006-11.006v-0.224c0-6.078,4.928-11.006,11.006-11.006
			h376.42c6.078,0,11.006,4.928,11.006,11.006v0.224C433.735,363.104,428.808,368.031,422.729,368.031z"/>
	</g>
	<g>
		<g>
			<g>
				<path fill="#E7E7E7" stroke="#3BB34A" stroke-width="2" stroke-miterlimit="10" d="M413.795,179.203c0,0-5.239,17.849,0,23.185
					l14.121-5.724C427.916,196.664,421.943,182.113,413.795,179.203z"/>
				<path fill="#E7E7E7" stroke="#3BB34A" stroke-width="2" stroke-miterlimit="10" d="M428.091,191.742
					c0,0,4.729-8.004,14.187-10.333c0,0,2.109,15.424-4.074,19.644L428.091,191.742z"/>
				<path fill="#F3F3F3" stroke="#3BB34A" stroke-width="2" stroke-miterlimit="10" d="M426.137,213.602
					c0,0,1.396-20.661,23.416-26.968c0,0,0.971,19.596-10.863,26.968H426.137z"/>
				<path fill="#F3F3F3" stroke="#3BB34A" stroke-width="2" stroke-miterlimit="10" d="M402.699,186.148
					c0,0-2.23,19.984,9.894,26.872h11.641C424.233,213.021,425.884,193.618,402.699,186.148z"/>
			</g>
			<path fill="#E7E7E7" stroke="#3BB34A" stroke-width="2" stroke-miterlimit="10" d="M420.548,213.021
				c0,0-11.107-18.141,5.506-39.871c0,0,13.604,15.23,6.038,39.871H420.548z"/>
			<path fill="#E0E1E0" stroke="#3BB34A" stroke-width="2" stroke-miterlimit="10" d="M445.477,213.966
				c0,1.49-1.247,2.699-2.786,2.699h-33.275c-1.539,0-2.784-1.209-2.784-2.699l0,0c0-1.49,1.245-2.698,2.784-2.698h33.275
				C444.229,211.268,445.477,212.476,445.477,213.966L445.477,213.966z"/>
			<polygon fill="#E0E1E0" stroke="#3BB34A" stroke-width="2" stroke-miterlimit="10" points="437.039,244.355 415.235,244.355 
				409.415,216.615 442.859,216.615 			"/>
		</g>
		
			<rect x="321.196" y="285.971" fill="#929497" stroke="#3BB34A" stroke-width="2" stroke-miterlimit="10" width="34.292" height="34.293"/>
		
			<rect x="408.908" y="285.971" fill="#929497" stroke="#3BB34A" stroke-width="2" stroke-miterlimit="10" width="34.293" height="34.293"/>
		
			<rect x="72.738" y="285.971" fill="#929497" stroke="#3BB34A" stroke-width="2" stroke-miterlimit="10" width="34.292" height="34.293"/>
		
			<line fill="none" stroke="#50B75B" stroke-width="2" stroke-linecap="round" stroke-miterlimit="10" x1="29.509" y1="320.264" x2="358.591" y2="320.264"/>
		
			<line fill="none" stroke="#50B75B" stroke-width="2" stroke-linecap="round" stroke-miterlimit="10" x1="379.062" y1="320.264" x2="458.74" y2="320.264"/>
		<g>
			<circle fill="#F1B6A1" cx="278.106" cy="199.554" r="7.906"/>
			<path fill="#F1B6A1" d="M270.635,206.617l0.038,0.009c1.025,0.227,2.04-0.42,2.268-1.445l1.463-6.6
				c0.227-1.025-0.421-2.04-1.446-2.267l-0.036-0.009c-1.025-0.228-2.041,0.42-2.269,1.445l-1.462,6.599
				C268.964,205.375,269.61,206.391,270.635,206.617z"/>
		</g>
		<g>
			<path fill="#E7E7E7" stroke="#50B75B" stroke-width="2" stroke-miterlimit="10" d="M353.223,271.148L79.18,271.966l-0.262-87.775
				c-0.033-11.299,9.098-20.485,20.397-20.519l233.126-0.696c11.299-0.034,20.485,9.099,20.52,20.397L353.223,271.148z"/>
			<path fill="#F2F2F2" stroke="#50B75B" stroke-width="2" stroke-miterlimit="10" d="M326.811,302.522l-225.688,0.674
				c-6.189,0.018-11.221-4.984-11.24-11.173l-0.107-36.176c-0.019-6.188,4.983-11.221,11.172-11.239l225.689-0.674
				c6.189-0.019,11.222,4.984,11.24,11.173l0.107,36.176C338.002,297.472,333,302.504,326.811,302.522z"/>
			<path fill="#F2F2F2" stroke="#50B75B" stroke-width="2" stroke-miterlimit="10" d="M79.066,303.262l-29.518,0.088
				c-5.992,0.018-10.864-4.825-10.882-10.817l-0.211-70.722c-0.018-5.992,4.826-10.864,10.818-10.882l29.517-0.088
				c5.992-0.018,10.864,4.825,10.882,10.817l0.211,70.722C89.901,298.372,85.058,303.244,79.066,303.262z"/>
			<path fill="#F2F2F2" stroke="#50B75B" stroke-width="2" stroke-miterlimit="10" d="M378.384,302.369l-29.517,0.087
				c-5.992,0.019-10.865-4.825-10.883-10.817l-0.21-70.721c-0.02-5.992,4.824-10.864,10.816-10.883l29.518-0.088
				c5.991-0.018,10.863,4.825,10.883,10.818l0.21,70.721C389.219,297.479,384.376,302.351,378.384,302.369z"/>
		</g>
		<polyline fill="#FFFFFF" stroke="#3BB34A" stroke-width="2" stroke-linecap="round" stroke-miterlimit="10" points="
			147.229,149.2 229.356,149.2 229.356,164.536 146.249,164.536 		"/>
		
			<rect x="280.79" y="184.207" fill="#FFFFFF" stroke="#50B75B" stroke-width="2" stroke-miterlimit="10" width="17.13" height="59.728"/>
		<path fill="#6A635D" d="M241.379,96.637l-0.169,2.947l-0.16-0.009C240.994,98.55,241.127,97.567,241.379,96.637z"/>
		<g>
			<g>
				
					<rect x="403.871" y="243.697" fill="#D9DBDF" stroke="#3BB34A" stroke-width="2" stroke-miterlimit="10" width="34.255" height="69.678"/>
			</g>
			<g>
				
					<rect x="438.126" y="243.697" fill="#B6C4CF" stroke="#3BB34A" stroke-width="2" stroke-miterlimit="10" width="10.148" height="69.678"/>
			</g>
		</g>
		<g>
			<path fill="#E6E6E5" stroke="#3BB34A" stroke-width="2" stroke-miterlimit="10" d="M86.637,344.036c0,0-8.105-0.03-15.146-6.021
				c-7.04-5.99,0.992,18.531,21.626,19.176L86.637,344.036z"/>
			<path fill="#FFFFFF" stroke="#3BB34A" stroke-width="2" stroke-miterlimit="10" d="M123.978,361.649
				c6-2.116,8.013-14.781,6.582-30.006c-0.713-7.583-6.582-13.338-6.582-13.338l-33.309-1.99c0,0-17.768,21.731-4.577,37.044
				c3.414,3.964,7.424,6.516,11.555,8.094"/>
			<g>
				<path fill="#3BB34A" d="M88.705,320.485c0,0,16.309,12.103,36.162,1.76l-0.88-3.08l-33.742-3.301L88.705,320.485z"/>
				<circle fill="#F7CF6E" cx="112.47" cy="327.087" r="2.714"/>
				<circle fill="#FBD97A" cx="112.47" cy="327.087" r="../../index.html"/>
				<path fill="#F7CF6E" d="M114.121,325.351c0,0-0.453,3.154-3.875,2.727c0,0,0.366,1.431,2.04,1.443
					c1.675,0.011,2.641-1.247,2.677-1.713c0.036-0.464-0.013-1.943-0.403-2.188C114.17,325.375,114.121,325.351,114.121,325.351z"/>
				<path opacity="0.85" fill="#FFFFFF" d="M112.56,324.998c0.242,0.338-0.61,0.19-1.206,0.619
					c-0.598,0.429-0.713,1.271-0.955,0.934c-0.243-0.337-0.057-1.065,0.539-1.493C111.535,324.628,112.318,324.661,112.56,324.998z"
					/>
			</g>
			
				<ellipse fill="#FFFFFF" stroke="#3BB34A" stroke-width="2" stroke-miterlimit="10" cx="108.58" cy="300.021" rx="25.576" ry="24.429"/>
			<g>
				<path fill="#E6E6E5" stroke="#3BB34A" stroke-width="2" stroke-miterlimit="10" d="M90.468,282.749
					c0,0,6.069,16.63,0.051,21.649c-6.019,5.018-11.602,4.592-11.602,4.592s-3.196-0.045-3.024-3.389
					C76.066,302.258,76.092,285.461,90.468,282.749z"/>
				<circle fill="#DEDEDD" cx="120.173" cy="294.25" r="9.633"/>
				<path fill="#E6E6E5" stroke="#3BB34A" stroke-width="2" stroke-miterlimit="10" d="M118.957,278.387
					c0,0,1.388,17.649,8.947,19.714c7.561,2.065,12.462-0.643,12.462-0.643s2.889-1.368,1.342-4.338
					S133.161,274.882,118.957,278.387z"/>
				
					<ellipse transform="matrix(0.9903 -0.1392 0.1392 0.9903 -42.5517 18.6884)" fill="#F7F8F8" cx="112.348" cy="313.591" rx="13.626" ry="8.911"/>
			</g>
			<g>
				<circle fill="#4E4E4E" cx="101.726" cy="301.036" r="2.538"/>
				<circle fill="#4E4E4E" cx="117.975" cy="297.482" r="2.538"/>
			</g>
			<circle fill="#3BB34A" cx="101.726" cy="301.037" r="2.538"/>
			<g>
				<path fill="#3BB34A" d="M107.648,311.253c0.277,1.243,2.403,2.873,4.472,2.41c2.069-0.463,3.298-2.844,3.021-4.086
					c-0.278-1.24-2.181-1.872-4.248-1.409C108.824,308.631,107.37,310.013,107.648,311.253z"/>
				
					<line fill="none" stroke="#3BB34A" stroke-linecap="round" stroke-miterlimit="10" x1="111.642" y1="312.673" x2="112.146" y2="317.594"/>
				<path fill="none" stroke="#3BB34A" stroke-linecap="round" stroke-miterlimit="10" d="M106.177,316.454
					c0,0,6.083,3.836,11.981-2.057"/>
			</g>
			<path fill="#FFFFFF" stroke="#3BB34A" stroke-width="2" stroke-miterlimit="10" d="M108.587,361.972
				c0.033-0.253,0.055-0.51,0.055-0.771V340.68c0-3.313-2.686-6-6.001-6c-3.313,0-6,2.688-6,6V361.2
				c0,0.262,0.022,0.519,0.055,0.771"/>
			<path fill="#FFFFFF" stroke="#3BB34A" stroke-width="2" stroke-miterlimit="10" d="M131.844,361.972
				c0.033-0.253,0.057-0.51,0.057-0.771V340.68c0-3.313-2.688-6-6.003-6c-3.313,0-6,2.688-6,6V361.2
				c0,0.262,0.022,0.519,0.056,0.771"/>
			<circle fill="#3BB34A" cx="117.976" cy="297.482" r="2.537"/>
		</g>
		<path fill="#F3F3F3" stroke="#3BB34A" stroke-width="2" stroke-miterlimit="10" d="M226.768,166.02H214.69
			c-3.562,0-6.448-2.887-6.448-6.448v-8.158c0-3.561,2.886-6.447,6.448-6.447h30.979l15.016-0.51
			c22.186,0,40.174,15.184,40.174,33.92v7.982c0,1.019-0.832,1.844-1.851,1.844h-16.969"/>
		<g>
			<g>
				<path fill="#FFFFFF" stroke="#50B75B" stroke-width="2" stroke-miterlimit="10" d="M225.228,104.203
					c0,3.908,1.728,7.077,5.638,7.077V97.126C226.955,97.126,225.228,100.294,225.228,104.203z"/>
				<path fill="#FFFFFF" stroke="#50B75B" stroke-width="2" stroke-miterlimit="10" d="M281.04,97.126v14.154
					c3.909,0,5.859-3.169,5.859-7.077C286.899,100.294,284.949,97.126,281.04,97.126z"/>
			</g>
			<path fill="#FFFFFF" stroke="#50B75B" stroke-width="2" stroke-miterlimit="10" d="M245.72,125.193v17.985
				c0,4.355,4.564,7.886,10.189,7.886c5.63,0,10.191-3.53,10.191-7.886v-17.985H245.72z"/>
			<path fill="#FFFFFF" stroke="#50B75B" stroke-width="2" stroke-miterlimit="10" d="M230.946,80.651v30.188
				c0,14.286,11.244,25.867,25.117,25.867c13.872,0,25.118-11.581,25.118-25.867V80.651H230.946z"/>
			<g>
				<path fill="#F3F3F3" stroke="#3BB34A" stroke-width="2" stroke-miterlimit="10" d="M246.755,117.785
					c0,2.932,1.368,5.541,3.502,7.229c1.567,1.244,3.555,1.986,5.713,1.986h0.187c2.158,0,4.141-0.738,5.708-1.983
					c2.135-1.688,3.507-4.3,3.507-7.232V116.3h-18.616V117.785z"/>
			</g>
			<path fill="#A6A8AC" stroke="#50B75B" stroke-width="2" stroke-miterlimit="10" d="M280.642,97.126l-38.713-10.803
				l-11.793,10.803c-2.982,0-5.402-2.419-5.402-5.403V70.522c0,0,0.272-7.615,8.191-7.615c5.024,0,6.844,2.258,6.844,2.258
				s12.603-9.003,29.887-9.003c17.285,0,20.888-12.244,20.888-12.244S303.868,83.351,280.642,97.126z"/>
		</g>
		<polyline fill="#F3F3F3" stroke="#3BB34A" stroke-width="2" stroke-miterlimit="10" points="283.711,169.432 283.711,223.063 
			226.768,223.063 226.768,159.866 		"/>
		<path fill="#A6A8AC" stroke="#50B75B" stroke-width="2" stroke-miterlimit="10" d="M202.691,101.578v44.976
			c0,3.803-3.086,6.88-6.879,6.88h-42.23c-3.803,0-6.88-3.078-6.88-6.88v-44.976c0-15.468,12.533-28,27.989-28
			C190.158,73.578,202.691,86.109,202.691,101.578z"/>
		<path fill="#FFFFFF" stroke="#50B75B" stroke-width="2" stroke-miterlimit="10" d="M205.405,166.051
			c-10.101,0-18.29-17.979-18.29-28.081h-22.161c0,10.101-8.188,26.565-18.287,26.565"/>
		<path fill="#FFFFFF" stroke="#50B75B" stroke-width="2" stroke-miterlimit="10" d="M198.293,113.206
			c0,3.784-0.472,7.417-1.331,10.776c-3.114,12.117-11.304,20.761-20.923,20.761c-9.625,0-17.814-8.645-20.929-20.761
			c-0.86-3.359-1.331-6.993-1.331-10.776c0-3.775,0.471-7.408,1.331-10.768c0,0,12.037-4.716,20.925,0
			c8.889,4.714,20.926,0,20.926,0C197.821,105.798,198.293,109.431,198.293,113.206z"/>
		<path fill="#F3F3F3" stroke="#3BB34A" stroke-width="2" stroke-linejoin="round" stroke-miterlimit="10" d="M122.615,243.935
			l11.279-65.888c2.905-16.898,8.102-21.79,20.146-21.79c0,0-3.179,0,3.333,0c6.338,0,16.021,18.491,32.946,1.418l0.006-0.006
			c0.014-0.013,0.033-0.032,0.059-0.051c0.302-0.277,1.676-1.36,4.119-1.36h3.789c12.043,0,21.357,18.549,21.357,30.593
			l8.052,57.085"/>
		<path fill="#FFFFFF" stroke="#50B75B" stroke-width="2" stroke-miterlimit="10" d="M242.093,354.618v-3.194
			c0-3.368-2.729-6.098-6.098-6.098h-0.306v-7.327c0-2.642-1.898-4.84-4.406-5.303c-0.32-0.062-0.648-0.091-0.987-0.091h-5.183
			c-0.333,0-0.664,0.029-0.982,0.091c-2.513,0.463-4.416,2.655-4.416,5.303v7.327h-0.305c-3.369,0-6.099,2.729-6.099,6.098v2.55
			c0,0,0.061,3.659,3.659,3.659c0.182,0,0.326,0.021,0.45,0.054h21.686C242.093,357.687,242.093,354.618,242.093,354.618z"/>
		<path fill="#FFFFFF" stroke="#50B75B" stroke-width="2" stroke-miterlimit="10" d="M296.477,352.551l-0.483,2.934l-0.192,1.328
			c-0.188,1.206-1.311,2.037-2.516,1.857l-31.09-4.675c-2.61-0.387-2.837-2.515-2.746-3.714l0.109-0.735
			c0.013-0.063,0.019-0.097,0.019-0.097l4.881-14.261l16.055,3.068l1.399,4.745l0.367,0.793l8.956,1.471
			C294.697,345.826,297.038,349.096,296.477,352.551z"/>
		
			<line fill="none" stroke="#3BB34A" stroke-width="2" stroke-linecap="round" stroke-miterlimit="10" x1="141.31" y1="221.088" x2="148.134" y2="200.593"/>
		<polygon fill="#929497" stroke="#3BB34A" stroke-width="2" stroke-miterlimit="10" points="292.871,247.371 205.25,247.371 
			208.333,221.844 292.871,221.844 		"/>
		<g>
			<path fill="#A2A1A2" stroke="#3BB34A" stroke-width="2" stroke-miterlimit="10" d="M238.494,338.183l-22.242,2.89l-14.09-108.444
				c-0.79-6.081,3.499-11.651,9.58-12.441l0.223-0.028c6.081-0.79,11.651,3.499,12.44,9.579L238.494,338.183z"/>
		</g>
		<path fill="#FFFFFF" stroke="#50B75B" stroke-width="2" stroke-miterlimit="10" d="M116.444,269.312
			c-0.147,2.3,3.983,2.527,7.86,7.991c3.877,5.465-0.064,6.715-1.744,5.659c-8.921-5.606-8.83,17.69-18.049,9.091
			c-4.64-4.329-1.042-19.761,3.817-24.62c4.858-4.858,5.837-2.533,7.182-7.465l11.447-42.002c1.158-3.839,5.208-6.012,9.048-4.854
			l0.14,0.042c3.839,1.158,6.013,5.209,4.854,9.048l-19.165,51.363"/>
		<path fill="#FFFFFF" stroke="#50B75B" stroke-width="2" stroke-linecap="round" stroke-miterlimit="10" d="M148.259,155.017
			c-0.127,1.979,2.731,5.342,6.064,10.04c3.333,4.699-0.056,5.773-1.5,4.865c-7.669-4.819-7.591,15.209-15.518,7.816
			c-3.988-3.722-1.888-24.883,9.456-27.585"/>
		<g>
			<path fill="#A2A1A2" stroke="#3BB34A" stroke-width="2" stroke-miterlimit="10" d="M261.751,336.232l22.158,3.48l16.97-108.032
				c0.952-6.058-3.188-11.739-9.244-12.691l-0.222-0.034c-6.059-0.952-11.74,3.188-12.692,9.245L261.751,336.232z"/>
		</g>
		<g>
			<g>
				<path fill="#F3F3F3" stroke="#3BB34A" stroke-width="2" stroke-miterlimit="10" d="M168.97,128.42
					c0,2.226,1.039,4.207,2.658,5.488c1.19,0.945,2.699,1.508,4.337,1.508h0.143c1.638,0,3.144-0.561,4.334-1.505
					c1.62-1.281,2.662-3.265,2.662-5.491v-0.474H168.97V128.42z"/>
			</g>
		</g>
		<g>
			<path fill="#3BB34A" d="M191.256,353.55l-12.083,0.775c-2.43,0.156-4.527-1.688-4.683-4.118l3.003-26.52l10.999-1.012
				l6.882,26.19C195.53,351.297,193.687,353.394,191.256,353.55z"/>
			<path fill="#FFFFFF" stroke="#3BB34A" stroke-width="2" stroke-miterlimit="10" d="M194.364,348.164l0.097,0.385
				c0.234,1.667-1.005,3.192-2.688,3.301l-13.585,0.872c-1.72,0.11-3.156-1.289-3.093-3.003l0.529-4.508l1.711-14.56l-0.204-1.905
				l-0.287-2.628l-10.23-93.905c-0.632-6.589,3.608-12.371,9.472-12.939l0.209-0.013c5.864-0.567,11.133,4.305,11.765,10.893
				l1.698,94.854l0.045,2.68l0.036,1.853l3.473,14.3L194.364,348.164z"/>
			<path fill="#50B75B" d="M194.364,348.164c-6.43-1.425-13.143-0.894-19.27,1.555l0.529-4.508
				c5.698-1.894,11.769-2.365,17.689-1.371L194.364,348.164z"/>
			<path fill="#50B75B" d="M189.758,325.008l0.045,2.68c-4.148,0.83-8.436,1.187-12.672,1.059l-0.287-2.628
				C181.166,326.305,185.553,325.932,189.758,325.008z"/>
		</g>
		<g>
			<path fill="#3BB34A" d="M151.672,357.706h12.108c2.436,0,4.41-1.975,4.41-4.409l-4.697-26.272l-11.041-0.306l-5.189,26.578
				C147.263,355.731,149.237,357.706,151.672,357.706z"/>
			<path fill="#FFFFFF" stroke="#3BB34A" stroke-width="2" stroke-miterlimit="10" d="M148.226,352.53l-0.072,0.391
				c-0.127,1.679,1.206,3.121,2.895,3.121h13.611c1.725,0,3.067-1.488,2.895-3.194l-0.816-4.464l-2.641-14.42l0.081-1.915
				l0.118-2.642l4.193-94.367c0.208-6.616-4.392-12.115-10.283-12.306H158c-5.89-0.191-10.836,5.009-11.045,11.625l4.384,94.768
				l0.127,2.677l0.082,1.852l-2.55,14.492L148.226,352.53z"/>
			<path fill="#50B75B" d="M148.226,352.53c6.325-1.833,13.059-1.733,19.33,0.317l-0.816-4.464
				c-4.995-2.297-11.449-2.033-17.742-0.236L148.226,352.53z"/>
			<path fill="#50B75B" d="M151.339,329.127l0.127,2.677c4.192,0.563,8.494,0.645,12.714,0.245l0.118-2.642
				C159.996,329.87,155.595,329.779,151.339,329.127z"/>
		</g>
		
			<line fill="none" stroke="#3BB34A" stroke-width="2" stroke-linecap="round" stroke-miterlimit="10" x1="203.209" y1="191.465" x2="205.998" y2="222.729"/>
		<g>
			<circle fill="#50B75B" cx="163.021" cy="115.872" r="2.366"/>
			<circle fill="#50B75B" cx="189.052" cy="115.872" r="2.366"/>
		</g>
		<g>
			<circle fill="#50B75B" cx="242.895" cy="104.203" r="2.366"/>
			<circle fill="#50B75B" cx="268.925" cy="104.203" r="2.367"/>
		</g>
		
			<line fill="none" stroke="#3BB34A" stroke-width="2" stroke-linecap="round" stroke-miterlimit="10" x1="96.695" y1="361.972" x2="131.844" y2="361.972"/>
		
			<line fill="none" stroke="#50B75B" stroke-width="2" stroke-linecap="round" stroke-miterlimit="10" x1="363.694" y1="320.264" x2="372.936" y2="320.264"/>
	</g>
</g>
</svg>
