<?xml version="1.0" encoding="utf-8"?>
<!-- Generator: Adobe Illustrator 16.0.0, SVG Export Plug-In . SVG Version: 6.00 Build 0)  -->
<!DOCTYPE svg PUBLIC "-//W3C//DTD SVG 1.1//EN" "http://www.w3.org/Graphics/SVG/1.1/DTD/svg11.dtd">
<svg version="1.1" id="Layer_1" xmlns="http://www.w3.org/2000/svg" xmlns:xlink="http://www.w3.org/1999/xlink" x="0px" y="0px"
	 width="900px" height="300px" viewBox="0 0 900 300" enable-background="new 0 0 900 300" xml:space="preserve">
<g>
	<g>
		<g>
			<g>
				<path fill="#3FB761" d="M266.964,83.944v130.729c0,36.094-29.273,65.364-65.364,65.364H70.87
					c-36.095,0-65.366-29.271-65.366-65.364V83.944c0-36.096,29.271-65.365,65.366-65.365H201.6
					C237.691,18.579,266.964,47.849,266.964,83.944z"/>
			</g>
		</g>
		<g>
			<path fill="#FFFFFF" d="M211.094,127.336l-15.454-13.975v-41.91v-1.735h-1.732h-21.787h-1.735v1.735v19.06l-25.04-22.654
				c-2.325-2.105-5.332-3.269-8.468-3.269c-3.147,0-6.166,1.166-8.5,3.283l-63.443,57.674c-2.625,2.389-4.13,5.795-4.13,9.345
				v86.513c0,6.961,5.666,12.628,12.63,12.628H200.68h0.054l0.057-0.001c6.098-0.411,10.874-5.523,10.874-11.642v-7.79
				c0-2.861-1.044-5.614-2.937-7.74l-0.034-0.04l-0.035-0.036l-70.542-70.542l-2.962-2.962v4.188v30.826v0.716l0.508,0.511
				l39.265,39.259H86.063v-68.3l50.828-46.207l71.874,65.014l2.9,2.625v-3.909v-29.374v-0.769L211.094,127.336z"/>
		</g>
	</g>
	<g>
		<path fill="#565656" d="M363.604,143.045h59.67c0.34,1.36,0.622,3.004,0.85,4.93c0.226,1.928,0.34,3.854,0.34,5.78
			c0,7.819-1.19,15.188-3.57,22.1c-2.38,6.914-6.12,13.09-11.22,18.53c-5.44,5.779-11.958,10.258-19.55,13.43
			c-7.594,3.172-16.264,4.76-26.01,4.76c-8.84,0-17.17-1.588-24.99-4.76s-14.62-7.592-20.4-13.26
			c-5.78-5.666-10.37-12.381-13.77-20.146c-3.4-7.762-5.1-16.234-5.1-25.415s1.7-17.651,5.1-25.415
			c3.4-7.762,7.99-14.477,13.77-20.145c5.78-5.666,12.58-10.086,20.4-13.26c7.82-3.171,16.15-4.76,24.99-4.76
			c9.86,0,18.671,1.7,26.435,5.1c7.762,3.4,14.421,8.104,19.975,14.11l-15.81,15.47c-3.968-4.192-8.388-7.395-13.26-9.605
			c-4.875-2.21-10.71-3.315-17.51-3.315c-5.554,0-10.824,0.994-15.81,2.975c-4.988,1.984-9.35,4.789-13.09,8.415
			c-3.74,3.628-6.715,8.019-8.925,13.175c-2.21,5.159-3.315,10.91-3.315,17.255c0,6.348,1.105,12.099,3.315,17.254
			c2.21,5.159,5.211,9.55,9.01,13.176c3.796,3.628,8.187,6.434,13.175,8.415c4.985,1.983,10.312,2.975,15.98,2.975
			c6.46,0,11.926-0.935,16.405-2.805c4.476-1.87,8.301-4.276,11.475-7.226c2.266-2.04,4.221-4.616,5.865-7.734
			c1.642-3.116,2.917-6.602,3.825-10.455h-38.25V143.045z"/>
		<path fill="#565656" d="M487.873,201.016h-1.359c-2.609,3.174-5.754,5.895-9.436,8.16c-3.684,2.266-8.414,3.399-14.195,3.399
			c-4.309,0-8.359-0.709-12.155-2.125c-3.798-1.415-7.113-3.37-9.945-5.864c-2.834-2.492-5.044-5.496-6.63-9.011
			c-1.588-3.512-2.38-7.365-2.38-11.56c0-4.306,0.85-8.187,2.55-11.646c1.7-3.455,4.08-6.431,7.141-8.925
			c3.06-2.491,6.656-4.391,10.794-5.695c4.137-1.301,8.641-1.954,13.516-1.954c5.439,0,9.916,0.425,13.43,1.274
			c3.512,0.851,6.402,1.729,8.67,2.635v-2.55c0-4.42-1.758-8.075-5.27-10.965c-3.514-2.89-7.879-4.335-13.09-4.335
			c-7.709,0-14.225,3.23-19.55,9.689l-16.15-11.049c8.84-11.106,20.91-16.66,36.21-16.66c12.92,0,22.779,3.034,29.58,9.095
			c6.799,6.064,10.199,15.045,10.199,26.944v49.98h-21.93V201.016z M487.873,176.025c-2.607-1.246-5.299-2.236-8.074-2.975
			c-2.779-0.736-5.811-1.105-9.096-1.105c-5.328,0-9.436,1.164-12.324,3.485c-2.891,2.324-4.336,5.185-4.336,8.585
			c0,3.399,1.387,6.12,4.166,8.16c2.775,2.04,5.977,3.06,9.604,3.06c2.947,0,5.666-0.536,8.16-1.615
			c2.492-1.075,4.617-2.491,6.375-4.25c1.756-1.756,3.117-3.796,4.08-6.12C487.391,180.929,487.873,178.52,487.873,176.025z"/>
		<path fill="#565656" d="M525.102,126.556h20.91v10.03h1.359c2.041-3.512,5.211-6.516,9.52-9.01c4.307-2.492,9.633-3.74,15.98-3.74
			c5.326,0,10.396,1.105,15.215,3.315c4.816,2.21,9.066,5.27,12.75,9.18c3.682,3.91,6.602,8.585,8.756,14.025
			c2.15,5.44,3.229,11.39,3.229,17.85s-1.078,12.41-3.229,17.851c-2.154,5.439-5.074,10.115-8.756,14.024
			c-3.684,3.91-7.934,6.971-12.75,9.181c-4.818,2.21-9.889,3.314-15.215,3.314c-6.348,0-11.674-1.248-15.98-3.739
			c-4.309-2.492-7.479-5.496-9.52-9.011h-1.359l1.359,11.9v34.85h-22.27V126.556z M568.281,192.006c2.945,0,5.75-0.566,8.414-1.7
			c2.662-1.132,5.016-2.72,7.057-4.76c2.039-2.04,3.682-4.532,4.93-7.48c1.246-2.945,1.869-6.231,1.869-9.86
			c0-3.625-0.623-6.911-1.869-9.859c-1.248-2.946-2.891-5.44-4.93-7.48c-2.041-2.04-4.395-3.625-7.057-4.76
			c-2.664-1.131-5.469-1.7-8.414-1.7c-2.949,0-5.754,0.54-8.414,1.615c-2.666,1.079-5.016,2.635-7.057,4.675
			c-2.039,2.04-3.684,4.534-4.93,7.48c-1.248,2.948-1.869,6.29-1.869,10.029c0,3.74,0.621,7.085,1.869,10.03
			c1.246,2.948,2.891,5.44,4.93,7.48c2.041,2.04,4.391,3.599,7.057,4.675C562.527,191.469,565.332,192.006,568.281,192.006z"/>
		<path fill="#565656" d="M664.84,123.835c6.461,0,12.381,1.105,17.766,3.315c5.381,2.21,10.029,5.27,13.939,9.18
			c3.91,3.91,6.971,8.585,9.18,14.025c2.211,5.44,3.316,11.39,3.316,17.85s-1.105,12.41-3.316,17.851
			c-2.209,5.439-5.27,10.115-9.18,14.024c-3.91,3.91-8.559,6.971-13.939,9.181c-5.385,2.21-11.305,3.314-17.766,3.314
			c-6.459,0-12.383-1.104-17.764-3.314c-5.385-2.21-10.031-5.271-13.941-9.181c-3.91-3.909-6.969-8.585-9.18-14.024
			c-2.209-5.44-3.314-11.391-3.314-17.851s1.105-12.409,3.314-17.85c2.211-5.44,5.27-10.115,9.18-14.025
			c3.91-3.91,8.557-6.97,13.941-9.18C652.457,124.94,658.381,123.835,664.84,123.835z M664.84,192.006
			c2.832,0,5.582-0.537,8.246-1.615c2.66-1.076,5.014-2.635,7.055-4.675c2.039-2.04,3.654-4.532,4.846-7.48
			c1.189-2.945,1.783-6.29,1.783-10.03c0-3.739-0.594-7.081-1.783-10.029c-1.191-2.946-2.807-5.44-4.846-7.48
			c-2.041-2.04-4.395-3.596-7.055-4.675c-2.664-1.076-5.414-1.615-8.246-1.615c-2.947,0-5.725,0.54-8.33,1.615
			c-2.607,1.079-4.93,2.635-6.969,4.675c-2.041,2.04-3.656,4.534-4.846,7.48c-1.189,2.948-1.785,6.29-1.785,10.029
			c0,3.74,0.596,7.085,1.785,10.03c1.189,2.948,2.805,5.44,4.846,7.48c2.039,2.04,4.361,3.599,6.969,4.675
			C659.115,191.469,661.893,192.006,664.84,192.006z"/>
		<path fill="#565656" d="M761.059,123.835c6.459,0,12.381,1.105,17.764,3.315s10.031,5.27,13.941,9.18
			c3.91,3.91,6.969,8.585,9.18,14.025c2.209,5.44,3.314,11.39,3.314,17.85s-1.105,12.41-3.314,17.851
			c-2.211,5.439-5.27,10.115-9.18,14.024c-3.91,3.91-8.559,6.971-13.941,9.181s-11.305,3.314-17.764,3.314
			c-6.461,0-12.385-1.104-17.766-3.314c-5.385-2.21-10.029-5.271-13.939-9.181c-3.91-3.909-6.971-8.585-9.18-14.024
			c-2.211-5.44-3.316-11.391-3.316-17.851s1.105-12.409,3.316-17.85c2.209-5.44,5.27-10.115,9.18-14.025
			c3.91-3.91,8.555-6.97,13.939-9.18C748.674,124.94,754.598,123.835,761.059,123.835z M761.059,192.006
			c2.832,0,5.58-0.537,8.244-1.615c2.662-1.076,5.016-2.635,7.055-4.675c2.041-2.04,3.656-4.532,4.846-7.48
			c1.189-2.945,1.785-6.29,1.785-10.03c0-3.739-0.596-7.081-1.785-10.029c-1.189-2.946-2.805-5.44-4.846-7.48
			c-2.039-2.04-4.393-3.596-7.055-4.675c-2.664-1.076-5.412-1.615-8.244-1.615c-2.949,0-5.725,0.54-8.33,1.615
			c-2.609,1.079-4.93,2.635-6.971,4.675c-2.039,2.04-3.654,4.534-4.844,7.48c-1.191,2.948-1.785,6.29-1.785,10.029
			c0,3.74,0.594,7.085,1.785,10.03c1.189,2.948,2.805,5.44,4.844,7.48c2.041,2.04,4.361,3.599,6.971,4.675
			C755.334,191.469,758.109,192.006,761.059,192.006z"/>
		<path fill="#565656" d="M837.047,137.436h1.359c2.605-4.191,6.121-7.507,10.541-9.945c4.42-2.436,9.461-3.655,15.129-3.655
			c5.213,0,9.803,0.85,13.771,2.55c3.965,1.7,7.225,4.109,9.773,7.225c2.551,3.119,4.477,6.858,5.781,11.22
			c1.301,4.364,1.955,9.209,1.955,14.535v50.49h-22.271v-47.77c0-6.006-1.332-10.455-3.994-13.346
			c-2.664-2.89-6.545-4.335-11.645-4.335c-3.061,0-5.754,0.654-8.076,1.955c-2.324,1.304-4.309,3.06-5.949,5.271
			c-1.645,2.21-2.891,4.818-3.74,7.819c-0.85,3.005-1.275,6.205-1.275,9.605v40.8h-22.27v-83.3h20.91V137.436z"/>
	</g>
</g>
</svg>
