<?xml version="1.0" encoding="utf-8"?>
<!-- Generator: Adobe Illustrator 16.0.0, SVG Export Plug-In . SVG Version: 6.00 Build 0)  -->
<!DOCTYPE svg PUBLIC "-//W3C//DTD SVG 1.1//EN" "http://www.w3.org/Graphics/SVG/1.1/DTD/svg11.dtd">
<svg version="1.1" xmlns="http://www.w3.org/2000/svg" xmlns:xlink="http://www.w3.org/1999/xlink" x="0px" y="0px" width="150px"
	 height="150px" viewBox="0 0 150 150" enable-background="new 0 0 150 150" xml:space="preserve">
<g id="Layer_1" display="none">
	<g display="inline">
		
			<circle fill="none" stroke="#404041" stroke-width="2" stroke-linejoin="round" stroke-miterlimit="10" cx="75" cy="75" r="70.875"/>
		<g>
			<path fill="none" stroke="#404041" stroke-width="2" stroke-linecap="round" stroke-linejoin="round" stroke-miterlimit="10" d="
				M96.301,87.927H70.929c-3.723,0-6.741,3.02-6.741,6.741v20.223"/>
			<path fill="none" stroke="#404041" stroke-width="2" stroke-linecap="round" stroke-linejoin="round" stroke-miterlimit="10" d="
				M37.224,114.891V94.668c0-13.819,8.321-25.698,20.223-30.896c4.135-1.805,8.688-2.809,13.482-2.809h25.372"/>
			
				<rect x="97.892" y="56.469" fill="none" stroke="#404041" stroke-width="2" stroke-linejoin="round" stroke-miterlimit="10" width="13.483" height="35.951"/>
			
				<polyline fill="none" stroke="#404041" stroke-width="2" stroke-linecap="round" stroke-linejoin="round" stroke-miterlimit="10" points="
				118.115,87.927 111.375,87.927 111.375,60.963 118.115,60.963 			"/>
			<path fill="none" stroke="#404041" stroke-width="2" stroke-linejoin="round" stroke-miterlimit="10" d="M70.929,54.223v6.74
				c-4.795,0-9.348,1.004-13.482,2.809v-9.549H70.929z"/>
			<polyline fill="none" stroke="#404041" stroke-width="2" stroke-linejoin="round" stroke-miterlimit="10" points="67.558,48.414 
				67.558,54.223 60.817,54.223 60.817,48.414 			"/>
			
				<rect x="41.679" y="34.564" fill="none" stroke="#404041" stroke-width="2" stroke-linejoin="round" stroke-miterlimit="10" width="45.017" height="13.482"/>
		</g>
	</g>
</g>
<g id="Layer_2" display="none">
	<g display="inline">
		
			<circle fill="none" stroke="#404041" stroke-width="2" stroke-linejoin="round" stroke-miterlimit="10" cx="75" cy="75" r="70.875"/>
		<g>
			<path fill="none" stroke="#404041" stroke-width="2" stroke-linejoin="round" stroke-miterlimit="10" d="M103.35,61.81v21.263
				c0,7.828-6.346,14.175-14.174,14.175h-28.35c-7.828,0-14.176-6.347-14.176-14.175V61.81"/>
			<polyline fill="none" stroke="#404041" stroke-width="2" stroke-linejoin="round" stroke-miterlimit="10" points="89.176,97.247 
				89.176,104.335 60.826,104.335 60.826,97.247 			"/>
			
				<polyline fill="none" stroke="#404041" stroke-width="2" stroke-linecap="round" stroke-linejoin="round" stroke-miterlimit="10" points="
				67.913,124.81 67.913,104.335 82.089,104.335 82.089,124.81 			"/>
			<path fill="none" stroke="#404041" stroke-width="2" stroke-linejoin="round" stroke-miterlimit="10" d="M53.738,47.635v-18.9
				c0-1.96,1.583-3.543,3.543-3.543c1.962,0,3.545,1.583,3.545,3.543v18.9"/>
			<path fill="none" stroke="#404041" stroke-width="2" stroke-linejoin="round" stroke-miterlimit="10" d="M89.176,47.635v-18.9
				c0-1.96,1.582-3.543,3.543-3.543c1.962,0,3.544,1.583,3.544,3.543v18.9"/>
			
				<polyline fill="none" stroke="#404041" stroke-width="2" stroke-linecap="round" stroke-linejoin="round" stroke-miterlimit="10" points="
				75,72.441 71.457,79.528 78.544,79.528 75,86.616 			"/>
		</g>
		
			<rect x="41.926" y="47.635" fill="none" stroke="#404041" stroke-width="2" stroke-linejoin="round" stroke-miterlimit="10" width="66.149" height="14.175"/>
	</g>
</g>
<g id="Layer_3" display="none">
	<g display="inline">
		<circle fill="none" stroke="#404041" stroke-width="2" stroke-miterlimit="10" cx="75" cy="75" r="70.875"/>
		<g>
			<path fill="none" stroke="#404041" stroke-miterlimit="10" d="M110.438,113.981c0,3.914-3.173,7.088-7.087,7.088H46.649
				c-3.913,0-7.087-3.174-7.087-7.088H110.438z"/>
			<path fill="none" stroke="#404041" stroke-width="2" stroke-miterlimit="10" d="M110.438,36.02v77.962
				c0,3.914-3.173,7.088-7.087,7.088H46.649c-3.913,0-7.087-3.174-7.087-7.088V36.02c0-3.914,3.174-7.088,7.087-7.088h56.701
				C107.265,28.932,110.438,32.105,110.438,36.02z"/>
			<line fill="none" stroke="#404041" stroke-width="2" stroke-miterlimit="10" x1="39.563" y1="43.106" x2="110.438" y2="43.106"/>
			
				<line fill="none" stroke="#404041" stroke-width="2" stroke-miterlimit="10" x1="39.563" y1="113.981" x2="110.438" y2="113.981"/>
			<path fill="none" stroke="#404041" stroke-miterlimit="10" d="M96.262,78.544c0,11.742-9.52,21.263-21.262,21.263
				c-11.74,0-21.262-9.521-21.262-21.263c0,0,10.63-10.631,21.262,0C85.632,89.176,96.262,78.544,96.262,78.544z"/>
			<g>
				
					<line fill="none" stroke="#404041" stroke-width="2" stroke-linecap="round" stroke-miterlimit="10" x1="82.087" y1="36.141" x2="67.913" y2="36.141"/>
			</g>
			<circle fill="none" stroke="#404041" stroke-width="2" stroke-miterlimit="10" cx="75" cy="78.544" r="21.262"/>
			<path fill="none" stroke="#404041" stroke-width="2" stroke-miterlimit="10" d="M53.738,78.544c0,0,10.63-10.631,21.262,0
				c10.632,10.632,21.262,0,21.262,0"/>
		</g>
	</g>
</g>
<g id="Layer_4" display="none">
	<g display="inline">
		<circle fill="none" stroke="#404041" stroke-width="2" stroke-miterlimit="10" cx="75" cy="75" r="70.875"/>
		<g>
			<line fill="none" stroke="#404041" stroke-width="2" stroke-miterlimit="10" x1="107.637" y1="78.938" x2="41.959" y2="78.938"/>
			<path fill="none" stroke="#404041" stroke-width="2" stroke-miterlimit="10" d="M38.73,107.289"/>
			<path fill="none" stroke="#404041" stroke-width="2" stroke-miterlimit="10" d="M111.181,107.289"/>
			<path fill="none" stroke="#404041" stroke-width="2" stroke-miterlimit="10" d="M32.431,73.623V50.588
				c0-7.827,6.347-14.174,14.175-14.174h56.7c7.828,0,14.175,6.347,14.175,14.174v23.035"/>
			<path fill="none" stroke="#404041" stroke-width="2" stroke-miterlimit="10" d="M43.652,107.289V84.844
				c0-6.196-5.024-11.221-11.222-11.221c-6.198,0-11.223,5.024-11.223,11.221v19.639c0,1.553,1.253,2.807,2.806,2.807h101.974
				c1.553,0,2.805-1.254,2.805-2.807V84.844c0-6.196-5.024-11.221-11.222-11.221s-11.222,5.024-11.222,11.221v22.445"/>
			
				<line fill="none" stroke="#404041" stroke-width="2" stroke-linecap="round" stroke-miterlimit="10" x1="60.78" y1="93.113" x2="89.13" y2="93.113"/>
			<path fill="none" stroke="#404041" stroke-width="2" stroke-linecap="round" stroke-miterlimit="10" d="M77.781,71.213
				l-2.826,2.825l-1.806,1.807c-3.639,3.639-9.589,3.639-13.228,0l-4.632-4.632c-3.639-3.639-3.639-9.589,0-13.229l4.632-4.631
				c3.639-3.64,9.589-3.64,13.228,0l1.806,1.806l2.826,2.825C81.42,61.624,81.42,67.574,77.781,71.213z"/>
			<path fill="none" stroke="#404041" stroke-width="2" stroke-linecap="round" stroke-miterlimit="10" d="M94.621,71.213
				l-4.632,4.632c-3.639,3.639-9.589,3.639-13.229,0l-1.806-1.807l2.826-2.825c3.639-3.639,3.639-9.589,0-13.229l-2.826-2.825
				l1.806-1.806c3.64-3.64,9.59-3.64,13.229,0l4.632,4.631C98.26,61.624,98.26,67.574,94.621,71.213z"/>
			<path fill="none" stroke="#404041" stroke-width="2" stroke-linecap="round" stroke-miterlimit="10" d="M74.955,55.159
				l2.826,2.825c3.639,3.64,3.639,9.59,0,13.229l-2.826,2.825"/>
		</g>
	</g>
</g>
<g id="Layer_5">
	<g>
		<path fill="none" stroke="#3DB461" stroke-width="2" stroke-linecap="round" stroke-miterlimit="10" d="M145.875,75
			c0,39.143-31.729,70.875-70.875,70.875c-39.143,0-70.875-31.732-70.875-70.875C4.125,35.856,35.858,4.125,75,4.125
			C114.146,4.125,145.875,35.856,145.875,75z"/>
		<path fill="none" stroke="#3DB461" stroke-width="2" stroke-miterlimit="10" d="M110.045,58.561c3.48,0,6.299,2.82,6.299,6.301
			v7.875c0,3.479-2.818,6.299-6.299,6.299H80.119c-2.609,0-4.724,2.115-4.724,4.725v2.774"/>
		<path fill="none" stroke="#3DB461" stroke-width="2" stroke-miterlimit="10" d="M110.045,50.686v15.75
			c0,3.479-2.822,6.301-6.301,6.301H47.045c-3.48,0-6.301-2.822-6.301-6.301v-15.75c0-3.479,2.82-6.301,6.301-6.301h56.699
			C107.223,44.385,110.045,47.207,110.045,50.686z"/>
		<path fill="none" stroke="#3DB461" stroke-width="2" stroke-miterlimit="10" d="M83.268,90.061v28.35
			c0,1.743-1.404,3.15-3.148,3.15H70.67c-1.743,0-3.15-1.407-3.15-3.15v-28.35c0-1.742,1.407-3.15,3.15-3.15h9.449
			C81.863,86.91,83.268,88.318,83.268,90.061z"/>
	</g>
</g>
<g id="Layer_6" display="none">
	<g display="inline">
		<circle fill="none" stroke="#3DB461" stroke-width="2" stroke-miterlimit="10" cx="75" cy="75" r="70.875"/>
		<g>
			<path fill="none" stroke="#3DB461" stroke-width="2" stroke-miterlimit="10" d="M114.453,49.209H35.546
				c-7.263,0-13.153,5.891-13.153,13.151h105.21C127.603,55.1,121.713,49.209,114.453,49.209z"/>
			<path fill="none" stroke="#3DB461" stroke-width="2" stroke-miterlimit="10" d="M22.393,62.36v26.302
				c0,3.631,2.946,6.576,6.576,6.576h6.577v-9.867c0-1.819,1.471-3.283,3.29-3.283h72.332c0.166,0,0.339,0.015,0.497,0.038
				c0.077,0.009,0.157,0.024,0.235,0.047c0.08,0.017,0.157,0.032,0.236,0.063c0.103,0.032,0.205,0.063,0.308,0.104h0.009
				c0.141,0.063,0.273,0.134,0.4,0.212c0.086,0.048,0.174,0.104,0.253,0.165c0.023,0.017,0.047,0.039,0.079,0.063
				c0.07,0.047,0.132,0.102,0.196,0.165c0.094,0.079,0.182,0.174,0.259,0.268c0.04,0.04,0.07,0.07,0.094,0.111
				c0.096,0.118,0.182,0.243,0.254,0.369c0.079,0.127,0.141,0.252,0.205,0.395c0.047,0.102,0.076,0.204,0.108,0.307
				c0.041,0.103,0.064,0.213,0.079,0.314c0.023,0.096,0.041,0.189,0.047,0.284c0.018,0.126,0.025,0.252,0.025,0.378v9.867h6.575
				c3.63,0,6.574-2.945,6.574-6.576V62.36H22.393z"/>
			<path fill="none" stroke="#3DB461" stroke-width="2" stroke-miterlimit="10" d="M91.805,68.936c1.607,0,2.924,1.315,2.924,2.922
				v0.731c0,1.607-1.316,2.922-2.924,2.922H58.195c-1.607,0-2.921-1.314-2.921-2.922v-0.731c0-1.606,1.313-2.922,2.921-2.922H91.805
				z"/>
			<path fill="none" stroke="#3DB461" stroke-width="2" stroke-miterlimit="10" d="M114.454,85.375v9.863H35.546v-9.863
				c0-1.819,1.47-3.287,3.288-3.287h72.333C112.986,82.088,114.454,83.556,114.454,85.375z"/>
			<circle fill="#3DB461" stroke="#3DB461" stroke-miterlimit="10" cx="111.167" cy="55.785" r="2.631"/>
			<path fill="none" stroke="#3DB461" stroke-width="2" stroke-linecap="round" stroke-miterlimit="10" d="M42.121,101.813
				c0,0-3.287,3.288,0,6.577c3.289,3.287,0,6.574,0,6.574"/>
			<path fill="none" stroke="#3DB461" stroke-width="2" stroke-linecap="round" stroke-miterlimit="10" d="M65.139,101.813
				c0,0-3.29,3.288,0,6.577c3.287,3.287,0,6.574,0,6.574"/>
			<path fill="none" stroke="#3DB461" stroke-width="2" stroke-linecap="round" stroke-miterlimit="10" d="M88.151,101.813
				c0,0-3.287,3.288,0,6.577c3.287,3.287,0,6.574,0,6.574"/>
			<path fill="none" stroke="#3DB461" stroke-width="2" stroke-linecap="round" stroke-miterlimit="10" d="M111.167,101.813
				c0,0-3.288,3.288,0,6.577c3.287,3.287,0,6.574,0,6.574"/>
		</g>
	</g>
</g>
<g id="Layer_7" display="none">
	<g display="inline">
		
			<circle fill="none" stroke="#404041" stroke-width="2" stroke-linecap="round" stroke-miterlimit="10" cx="75" cy="75" r="70.875"/>
		<g>
			<path fill="none" stroke="#404041" stroke-width="2" stroke-linecap="round" stroke-miterlimit="10" d="M83.106,129.807v-9.129
				c13.986-3.6,24.32-16.295,24.32-31.403"/>
			<path fill="none" stroke="#404041" stroke-width="2" stroke-linecap="round" stroke-miterlimit="10" d="M42.573,89.274
				c0,15.108,10.333,27.804,24.32,31.403v9.129"/>
			<path fill="none" stroke="#404041" stroke-width="2" stroke-linecap="round" stroke-miterlimit="10" d="M120.938,80.535
				c0,3.53-2.251,6.53-5.404,7.639c-0.847,0.307-1.757,0.468-2.701,0.468c-0.226,0-0.667-0.009-0.677,0c0,0-74.32-0.018-74.32-0.026
				c-0.216,0.018-2.521-0.135-3.369-0.441c-3.152-1.108-5.404-4.108-5.404-7.639s2.252-6.53,5.404-7.638
				c0.848-0.308,1.758-0.469,2.702-0.469h29.726c0,4.477,3.63,8.106,8.106,8.106s8.106-3.63,8.106-8.106h29.726
				c0.944,0,1.854,0.161,2.701,0.469C118.687,74.005,120.938,77.005,120.938,80.535z"/>
			<path fill="none" stroke="#404041" stroke-width="2" stroke-linecap="round" stroke-miterlimit="10" d="M83.169,32.719
				c18.467,3.779,32.364,20.125,32.364,39.71v0.469"/>
			<path fill="none" stroke="#404041" stroke-width="2" stroke-linecap="round" stroke-miterlimit="10" d="M34.466,72.897v-0.469
				c0-19.521,13.808-35.824,32.187-39.675"/>
			<path fill="none" stroke="#404041" stroke-width="2" stroke-linecap="round" stroke-miterlimit="10" d="M83.106,34.598v37.831
				c0,4.477-3.63,8.106-8.106,8.106s-8.106-3.63-8.106-8.106V34.598c0-0.945,0.162-1.855,0.467-2.704
				c1.108-3.151,4.109-5.402,7.64-5.402c3.531,0,6.53,2.251,7.64,5.402C82.945,32.742,83.106,33.652,83.106,34.598z"/>
		</g>
	</g>
</g>
<g id="Layer_8" display="none">
	<g display="inline">
		
			<circle fill="none" stroke="#3DB461" stroke-width="2" stroke-linecap="round" stroke-miterlimit="10" cx="75" cy="75" r="70.875"/>
		<g>
			<g>
				<path fill="none" stroke="#3DB461" stroke-width="2" stroke-linecap="round" stroke-miterlimit="10" d="M67.125,100.48
					l55.65-50.1c0-0.016,0-0.016,0.016-0.029c1.365-1.244,0-3.017,0-3.017l-2.4-3.779c-4.365-6.51-12.719-8.55-18.689-4.56
					l-52.306,34.98"/>
				<path fill="none" stroke="#3DB461" stroke-width="2" stroke-linecap="round" stroke-miterlimit="10" d="M67.456,100.96
					l-0.33-0.479l-17.73-26.504l-0.345-0.512c-2.97-4.455-8.354-6.119-11.954-3.705l-10.471,7.006
					c-1.409,0.93-2.34,2.369-2.774,4.035c-0.03,0.074-0.061,0.149-0.075,0.225l-2.985,15.06c-0.345,1.711,0.766,3.375,2.476,3.706
					l5.415,1.08c1.425,0.285,2.835-0.465,3.435-1.74l11.775,17.596c2.97,4.439,8.355,6.119,11.939,3.719l10.485-7.02
					C69.916,111.025,70.425,105.416,67.456,100.96z M52.291,103.796c-1.8,1.2-4.26,0.72-5.475-1.096l-7.875-11.774
					c-1.2-1.801-0.72-4.26,1.095-5.461c0.675-0.449,1.425-0.659,2.175-0.659c1.275,0,2.536,0.615,3.286,1.755l7.875,11.774
					C54.571,100.135,54.091,102.596,52.291,103.796z"/>
			</g>
			
				<circle fill="none" stroke="#3DB461" stroke-width="2" stroke-linecap="round" stroke-miterlimit="10" cx="108.104" cy="47.699" r="3.151"/>
		</g>
	</g>
</g>
<g id="Layer_9" display="none">
	<g display="inline">
		<circle fill="none" stroke="#3DB461" stroke-width="2" stroke-miterlimit="10" cx="75" cy="75" r="70.875"/>
		<g>
			<rect x="75" y="44.484" fill="none" stroke="#3DB461" stroke-miterlimit="10" width="30.516" height="30.516"/>
			<line fill="none" stroke="#3DB461" stroke-width="2" stroke-miterlimit="10" x1="29.227" y1="44.484" x2="120.773" y2="44.484"/>
			<line fill="none" stroke="#3DB461" stroke-width="2" stroke-miterlimit="10" x1="13.969" y1="75" x2="136.031" y2="75"/>
			
				<line fill="none" stroke="#3DB461" stroke-width="2" stroke-miterlimit="10" x1="29.227" y1="105.516" x2="120.773" y2="105.516"/>
			<line fill="none" stroke="#3DB461" stroke-width="2" stroke-miterlimit="10" x1="59.742" y1="44.484" x2="59.742" y2="29.227"/>
			<line fill="none" stroke="#3DB461" stroke-width="2" stroke-miterlimit="10" x1="90.258" y1="44.484" x2="90.258" y2="29.227"/>
			<line fill="none" stroke="#3DB461" stroke-width="2" stroke-miterlimit="10" x1="44.484" y1="44.484" x2="44.484" y2="75"/>
			<line fill="none" stroke="#3DB461" stroke-width="2" stroke-miterlimit="10" x1="75" y1="44.484" x2="75" y2="75"/>
			<line fill="none" stroke="#3DB461" stroke-width="2" stroke-miterlimit="10" x1="105.516" y1="44.484" x2="105.516" y2="75"/>
			<line fill="none" stroke="#3DB461" stroke-width="2" stroke-miterlimit="10" x1="59.742" y1="75" x2="59.742" y2="105.516"/>
			<line fill="none" stroke="#3DB461" stroke-width="2" stroke-miterlimit="10" x1="90.258" y1="75" x2="90.258" y2="105.516"/>
			<line fill="none" stroke="#3DB461" stroke-width="2" stroke-miterlimit="10" x1="75" y1="105.516" x2="75" y2="120.773"/>
			
				<line fill="none" stroke="#3DB461" stroke-width="2" stroke-miterlimit="10" x1="44.484" y1="105.516" x2="44.484" y2="120.773"/>
			
				<line fill="none" stroke="#3DB461" stroke-width="2" stroke-miterlimit="10" x1="105.516" y1="105.516" x2="105.516" y2="120.773"/>
			
				<rect x="71.805" y="54.005" transform="matrix(0.9487 -0.3163 0.3163 0.9487 -17.4368 31.0913)" fill="#FFFFFF" stroke="#3DB461" stroke-width="2" stroke-miterlimit="10" width="30.516" height="30.515"/>
		</g>
	</g>
</g>
<g id="Layer_10" display="none">
	<g display="inline">
		
			<circle fill="none" stroke="#404041" stroke-width="2" stroke-linecap="round" stroke-miterlimit="10" cx="75" cy="75" r="70.875"/>
		
			<polyline fill="none" stroke="#404041" stroke-width="2" stroke-linecap="round" stroke-linejoin="round" stroke-miterlimit="10" points="
			47.831,30.507 47.831,44.683 51.308,51.636 		"/>
		
			<line fill="none" stroke="#404041" stroke-width="2" stroke-linecap="round" stroke-linejoin="round" stroke-miterlimit="10" x1="69.487" y1="25.389" x2="71.456" y2="32.808"/>
		
			<line fill="none" stroke="#404041" stroke-width="2" stroke-linecap="round" stroke-linejoin="round" stroke-miterlimit="10" x1="80.512" y1="25.389" x2="78.657" y2="32.808"/>
		
			<polyline fill="none" stroke="#404041" stroke-width="2" stroke-linecap="round" stroke-linejoin="round" stroke-miterlimit="10" points="
			102.168,30.507 102.168,44.683 98.69,51.639 		"/>
		
			<polyline fill="none" stroke="#404041" stroke-width="2" stroke-linecap="round" stroke-linejoin="round" stroke-miterlimit="10" points="
			46.649,71.456 37.274,78.938 37.274,92.719 		"/>
		
			<polyline fill="none" stroke="#404041" stroke-width="2" stroke-linecap="round" stroke-linejoin="round" stroke-miterlimit="10" points="
			103.948,72.04 113.774,78.938 113.774,92.719 		"/>
		
			<line fill="none" stroke="#404041" stroke-width="2" stroke-linecap="round" stroke-miterlimit="10" x1="95.705" y1="104.024" x2="103.35" y2="119.101"/>
		
			<line fill="none" stroke="#404041" stroke-width="2" stroke-linecap="round" stroke-miterlimit="10" x1="46.649" y1="118.313" x2="54.126" y2="103.774"/>
		
			<ellipse fill="none" stroke="#404041" stroke-width="2" stroke-linecap="round" stroke-miterlimit="10" cx="75" cy="75" rx="28.35" ry="42.526"/>
		<circle fill="#404041" cx="70.387" cy="44.878" r="2.038"/>
		<circle fill="#404041" cx="79.612" cy="44.878" r="2.038"/>
		
			<line fill="none" stroke="#404041" stroke-width="2" stroke-linecap="round" stroke-miterlimit="10" x1="24.501" y1="124.711" x2="124.612" y2="24.601"/>
	</g>
</g>
<g id="Layer_11" display="none">
	<g display="inline">
		<circle fill="none" stroke="#3DB461" stroke-width="2" stroke-miterlimit="10" cx="75" cy="75" r="70.875"/>
		<line fill="none" stroke="#3DB461" stroke-width="2" stroke-miterlimit="10" x1="51.45" y1="105.211" x2="47.679" y2="67.483"/>
		<path fill="none" stroke="#3DB461" stroke-width="2" stroke-miterlimit="10" d="M102.481,67.483l-4.835,46.359
			c0,2.274-1.849,4.122-4.125,4.122H79.295"/>
		<path fill="none" stroke="#3DB461" stroke-width="2" stroke-miterlimit="10" d="M107.432,63.361c0,2.276-1.846,4.122-4.119,4.122
			H46.649c-2.276,0-4.122-1.846-4.122-4.122v-1.029c0-2.275,1.846-4.121,4.122-4.121h56.663c2.273,0,4.119,1.846,4.119,4.121V63.361
			z"/>
		<g>
			<g>
				<polyline fill="none" stroke="#3DB461" stroke-width="2" stroke-miterlimit="10" points="78.703,117.906 74.743,132.684 
					43.679,124.36 47.64,109.583 				"/>
			</g>
			<path fill="none" stroke="#3DB461" stroke-width="2" stroke-miterlimit="10" d="M77.865,121.035L46.8,112.712l1.158-4.315
				c0.511-1.907,2.468-3.038,4.373-2.528l24.164,6.476c1.904,0.509,3.035,2.472,2.524,4.376L77.865,121.035z"/>
			<path fill="#9BFFAA" stroke="#3DB461" stroke-width="2" stroke-miterlimit="10" d="M47.725,109.261"/>
			<path fill="none" stroke="#3DB461" stroke-width="2" stroke-miterlimit="10" d="M54.921,106.563
				c1.15-4.289,7.285-6.371,11.574-5.223c4.289,1.152,8.563,6.021,7.41,10.309"/>
			
				<line fill="none" stroke="#3DB461" stroke-width="2" stroke-linecap="round" stroke-miterlimit="10" x1="66.495" y1="101.34" x2="89.241" y2="16.445"/>
			
				<line fill="none" stroke="#3DB461" stroke-width="2" stroke-miterlimit="10" x1="54.464" y1="127.249" x2="56.546" y2="119.484"/>
			
				<line fill="none" stroke="#3DB461" stroke-width="2" stroke-miterlimit="10" x1="63.958" y1="129.795" x2="66.038" y2="122.028"/>
		</g>
	</g>
</g>
</svg>
