<?xml version="1.0" encoding="utf-8"?>
<!-- Generator: Adobe Illustrator 19.0.0, SVG Export Plug-In . SVG Version: 6.00 Build 0)  -->
<svg version="1.1" id="Layer_1" xmlns="http://www.w3.org/2000/svg" xmlns:xlink="http://www.w3.org/1999/xlink" x="0px" y="0px"
	 width="150px" height="150px" viewBox="0 0 150 150" style="enable-background:new 0 0 150 150;" xml:space="preserve">
<style type="text/css">
	.st0{fill:#E9E6E6;}
	.st1{fill:#DCDBDB;}
	.st2{fill:#DEDCDD;}
	.st3{fill:#DDDBDB;}
	.st4{fill:#DCDADA;}
	.st5{fill:#DAD8D9;}
	.st6{fill:#DFDCDC;}
	.st7{fill:#DFDDDD;}
	.st8{fill:#DAD9D9;}
	.st9{fill:#DDDBDC;}
	.st10{fill:#DEDDDD;}
	.st11{fill:#DCDADB;}
	.st12{fill:#DEDCDC;}
</style>
<g id="XMLID_2_">
	<path id="XMLID_94_" class="st0" d="M100.1,107.5c0.3-1.5,0.8-2.8,1.7-4.1c1.4-1.9,3.3-3,5.6-3.3c0.3,0,0.5-0.1,0.8-0.2
		c0.6,0.2,1.1,0.2,1.7,0c4-0.2,7.8-1.4,11.3-3.5c3.9-2.3,7-5.5,9.2-9.5c1.4-2.4,2.3-5,2.7-7.8c0.1-0.4,0.1-0.8,0.2-1.1
		c0.2-0.4,0.2-0.7,0-1.1c0.2-1,0.4-2,0-3c0.2-0.5,0.2-1,0-1.5c-0.7-6.9-3.2-13-8.5-17.6c-3.3-2.9-7.2-4.6-11.6-4.7
		c-0.2-0.2-0.5-0.1-0.7-0.1c-5.4,0-10.8,0-16.1,0c-0.2,0-0.4-0.1-0.5,0.1c1.7,1.7,3.4,3.4,5.1,5.2c1.9,2,4,3.9,5.9,6
		c1.1,1.2,1.4,2.7,1.9,4.2c-0.3,0.8,0.1,1.6-0.2,2.3c0,2.6-2.3,5.7-5.2,6.6c-3.4,1.1-6.6,0.6-9.2-2.1c-9.9-9.9-19.9-19.9-29.8-29.8
		c-0.8-0.8-0.8-1.2,0-2c9.8-9.7,19.6-19.5,29.3-29.3c1.4-1.4,3-2.5,4.9-3.1c1.2,0,2.4,0,3.6,0c3.8,0.7,6.4,3.5,6.8,7.3
		c-0.1,0.7-0.1,1.4,0,2.1c-0.1,2.2-1.2,3.9-2.7,5.4c-3,3.1-6.1,6.1-9.1,9.1c-0.2,0.2-0.6,0.4-0.6,0.8c5.5,0.1,11,0,16.5,0
		c0.2,0,0.3-0.1,0.5-0.1c0.7-0.1,1.4,0.1,2.2,0.2c0.4,0.1,0.8,0.2,1.2,0.1c4.5,0.3,8.7,1.8,12.6,3.9c7.4,4.1,12.8,10,16.6,17.6
		c2,4,3.3,8.3,4,12.7c0.2,1.3,0.1,2.5,0.3,3.8c0,0.1,0,0.1,0,0.2c-0.2,0.5-0.2,1,0,1.5c0,1.5,0,3,0,4.5c-0.2,0.4-0.2,0.9,0,1.3
		c0,0.1,0,0.1,0,0.2c-0.3,1.6-0.5,3.2-0.9,4.8c-1.3,5.8-3.6,11.1-7.2,15.9c-3.5,4.7-7.8,8.5-12.9,11.5c-4.5,2.6-9.4,4.2-14.5,5.1
		c-1.3,0.2-2.5,0.1-3.8,0.4c-1.2-0.2-2.4-0.2-3.6,0c-2.6-0.5-4.6-1.8-6-4c-0.7-1-1.1-2.2-1.1-3.5C100,108.8,100.3,108.1,100.1,107.5
		z"/>
	<path id="XMLID_93_" class="st0" d="M50.3,42.5c-0.3,1.5-0.7,3-1.7,4.3c-1.5,1.9-3.3,3.1-5.8,3.2c-0.5,0.3-1-0.1-1.5,0.2
		c-5.7,0.1-10.7,2-15.1,5.5c-4.6,3.7-7.6,8.4-8.8,14.2c-0.5,2.4-0.9,4.8-0.4,7.3c-0.2,0.4-0.2,0.7,0,1.1c0.7,5.4,2.5,10.4,6.1,14.6
		c2.7,3.2,6,5.4,10,6.5c1,0.3,2.1,0.7,3.2,0.6c0.3,0.2,0.6,0.1,0.9,0.1c5.4,0,10.9,0,16.3,0c0.3,0,0.8,0.3,0.9-0.3
		c-1.9-1.9-3.9-3.8-5.8-5.7c-1.1-1.1-2.2-2.3-3.3-3.3c-1.8-1.7-3.2-3.6-3.7-6c0.2-0.9,0.2-1.7,0-2.6c0.4-1.4,0.9-2.7,1.8-3.9
		c1.9-2.4,4.4-3.2,7.3-3.1c2.5,0.1,4.3,1.4,5.9,3c1.5,1.4,2.8,2.9,4.2,4.4c8.4,8.4,16.8,16.8,25.2,25.2c0.7,0.7,0.7,1.1,0,1.8
		c-9.9,9.9-19.8,19.8-29.7,29.7c-1.5,1.5-3.2,2.5-5.4,2.7c-0.1,0-0.2,0.1-0.4,0.2c-0.4,0-0.9,0-1.3,0c-2.1-0.1-4-0.9-5.5-2.4
		c-1.3-1.3-2.1-2.9-2.4-4.8c0-0.4,0.1-0.8,0-1.2c0-0.2,0-0.3,0-0.5c0.1-0.3,0.1-0.7,0.1-1c0.1-2.2,1.3-3.9,2.8-5.4c3-3,6-6,9-9.1
		c0.2-0.2,0.6-0.4,0.6-0.8c-2.6,0.1-5.3,0-7.9,0.1c-3.6,0-7.1,0-10.7,0c-4.9-0.1-9.4-1.5-13.7-3.7c-3.5-1.7-6.6-4-9.3-6.7
		C6.1,100,2.1,92.1,0.5,83c-0.2-1.2-0.1-2.4-0.3-3.6c0-0.1,0-0.1,0-0.2c0.2-0.4,0.2-0.9,0-1.3c0-2,0-4,0-6c0.3-0.4-0.1-0.9,0.2-1.3
		c0.2-4,1.3-7.7,2.8-11.3c2-4.9,4.8-9.1,8.5-13c4.8-5,10.4-8.6,16.9-10.8c2.7-0.9,5.4-1.6,8.3-1.8c0.2,0,0.4-0.1,0.6-0.2
		c0.4,0.2,0.7,0.2,1.1,0c0.8,0.1,1.6-0.2,2.4-0.2c0.4,0.2,0.8,0.2,1.3,0c1.6,0.3,3.1,0.6,4.4,1.6c2,1.4,3.2,3.3,3.5,5.8
		c0,0.2,0.1,0.4,0.2,0.6C50.2,41.7,50.2,42.1,50.3,42.5z"/>
	<path id="XMLID_90_" class="st1" d="M150.2,73.2c-0.3-0.5-0.3-1,0-1.5C150.2,72.2,150.2,72.7,150.2,73.2z"/>
	<path id="XMLID_89_" class="st2" d="M0.4,70.6c-0.1,0.4,0.2,0.9-0.2,1.3c0-0.4,0-0.9,0-1.3C0.3,70.6,0.4,70.6,0.4,70.6z"/>
	<path id="XMLID_88_" class="st3" d="M150.2,79c-0.3-0.4-0.3-0.9,0-1.3C150.2,78.1,150.2,78.5,150.2,79z"/>
	<path id="XMLID_87_" class="st4" d="M0.2,77.9c0.3,0.4,0.3,0.9,0,1.3C0.2,78.8,0.2,78.3,0.2,77.9z"/>
	<path id="XMLID_86_" class="st5" d="M54.6,99.7c0.1,0.1,0.5,0.2,0.1,0.4c-0.2,0.1-0.4,0-0.6,0c-5.6,0-11.1,0-16.7,0
		c-0.3,0-0.7,0.1-1-0.2c5.7,0,11.3,0,17,0C53.8,100,54.3,100.1,54.6,99.7z"/>
	<path id="XMLID_85_" class="st6" d="M95.8,50.3c0,0-0.1,0-0.1,0c0,0-0.1-0.1-0.1-0.1c0.2,0,0.5-0.1,0.7-0.1c5.3,0,10.6,0,15.8,0
		c0.3,0,0.7-0.1,1,0.2C107.4,50.2,101.6,50.2,95.8,50.3z"/>
	<path id="XMLID_84_" class="st4" d="M107.4,116.9c1.2-0.3,2.4-0.3,3.6,0C109.8,116.9,108.6,116.9,107.4,116.9z"/>
	<path id="XMLID_83_" class="st7" d="M41.8,82.2c0.3,0.9,0.3,1.7,0,2.6C41.8,83.9,41.8,83,41.8,82.2z"/>
	<path id="XMLID_82_" class="st3" d="M108.4,68c0.1-0.8-0.2-1.6,0.2-2.3C108.5,66.5,108.9,67.3,108.4,68z"/>
	<path id="XMLID_81_" class="st8" d="M100.1,107.5c0.4,0.6,0.1,1.3,0.2,1.9C99.9,108.8,100.1,108.1,100.1,107.5z"/>
	<path id="XMLID_80_" class="st4" d="M109.9,100c-0.6,0.3-1.1,0.3-1.7,0C108.8,100,109.4,100,109.9,100z"/>
	<path id="XMLID_79_" class="st3" d="M41.4,50.2c0.5-0.4,1-0.1,1.5-0.2C42.4,50.4,41.9,50.2,41.4,50.2z"/>
	<path id="XMLID_78_" class="st9" d="M133.3,72.5c0.3,0.5,0.3,1,0,1.5C133.3,73.5,133.3,73,133.3,72.5z"/>
	<path id="XMLID_77_" class="st10" d="M42.2,33.3c-0.4,0.3-0.8,0.3-1.3,0C41.4,33.3,41.8,33.3,42.2,33.3z"/>
	<path id="XMLID_76_" class="st11" d="M50.3,42.5c-0.3-0.4-0.3-0.8,0-1.3C50.3,41.7,50.3,42.1,50.3,42.5z"/>
	<path id="XMLID_75_" class="st4" d="M38.6,33.5c-0.4,0.3-0.7,0.3-1.1,0C37.9,33.5,38.2,33.5,38.6,33.5z"/>
	<path id="XMLID_74_" class="st3" d="M133.3,77c0.3,0.4,0.3,0.7,0,1.1C133.3,77.7,133.3,77.4,133.3,77z"/>
	<path id="XMLID_73_" class="st12" d="M17.1,78.3c-0.3-0.4-0.3-0.7,0-1.1C17.1,77.6,17.1,78,17.1,78.3z"/>
	<path id="XMLID_72_" class="st5" d="M95.8,33.1c0.3,0.4,0.8,0.2,1.2,0.2c5.5,0,11,0,16.6,0c-0.2,0.3-0.6,0.2-0.9,0.2
		c-5.5,0-11,0-16.5,0C96.1,33.5,95.2,34,95.8,33.1z"/>
	<path id="XMLID_71_" class="st3" d="M108.6,15.8c0,0.7,0,1.4,0,2.1C108.3,17.2,108.3,16.5,108.6,15.8z"/>
	<path id="XMLID_70_" class="st1" d="M115.7,33.5c0.4,0,0.8-0.2,1.1,0.2C116.4,33.7,116,33.9,115.7,33.5z"/>
	<path id="XMLID_69_" class="st6" d="M54.6,116.9c-6.4,0-12.8,0-19.3,0c0.1-0.2,0.4-0.2,0.6-0.2c6.2,0,12.4,0,18.6,0
		c0.1,0,0.2,0,0.3,0.1C54.8,116.8,54.7,116.8,54.6,116.9z"/>
	<path id="XMLID_68_" class="st12" d="M41.8,133.2c0-0.4-0.2-0.8,0.2-1.1C41.9,132.5,42.1,132.9,41.8,133.2z"/>
	<path id="XMLID_67_" class="st3" d="M41.8,134.7c0-0.4,0-0.7,0-1.1C42.1,134,42.1,134.3,41.8,134.7z"/>
</g>
</svg>
