<?xml version="1.0" encoding="utf-8"?>
<!-- Generator: Adobe Illustrator 19.0.0, SVG Export Plug-In . SVG Version: 6.00 Build 0)  -->
<svg version="1.1" id="Layer_1" xmlns="http://www.w3.org/2000/svg" xmlns:xlink="http://www.w3.org/1999/xlink" x="0px" y="0px"
	 width="150px" height="150px" viewBox="0 0 150 150" style="enable-background:new 0 0 150 150;" xml:space="preserve">
<style type="text/css">
	.st0{fill:#E9E6E6;}
	.st1{fill:#FEFEFE;}
	.st2{fill:#DBD9D9;}
	.st3{fill:#DCDADA;}
	.st4{fill:#DDDBDB;}
	.st5{fill:#E0DDDD;}
	.st6{fill:#DBDADA;}
	.st7{fill:#DFDDDD;}
	.st8{fill:#DCDBDB;}
	.st9{fill:#DAD8D8;}
	.st10{fill:#DEDCDC;}
</style>
<g id="XMLID_1_">
	<path id="XMLID_103_" class="st0" d="M76.4,10.4c-1.4,0.8-2.6,2.1-3.9,3.1C70.9,14.8,69,15,67.1,14c-1.3-0.6-2.5-1.4-4-1.6
		c-0.4-0.1-0.8,0-1.2,0c-1.8,0.3-3.1,1.3-3.9,3c-0.3,0.7-0.6,1.4-0.9,2.1c-0.8,1.9-2.3,2.9-4.3,3.3c-0.5,0-1,0-1.4,0
		c-0.7,0.1-1.3-0.2-2-0.1c-2.6,0.2-4.1,1.6-4.7,4.3c0,0.5,0,1,0,1.6c0.6,3.3-0.5,5.6-3.6,7c-0.6,0.3-1.2,0.6-1.9,0.8
		c-2.7,1.2-3.2,4.9-1.9,6.9c0.7,1,1.4,2,1.6,3.3c0,0.5,0,1.1,0,1.6c-0.2,1.6-1.1,2.8-2.2,3.9c-0.8,0.9-1.4,1.9-1.7,3.1
		c0,0.6-0.1,1.1,0.1,1.7c0.3,1.7,1.3,2.8,2.7,3.6c1.3,0.8,2.5,1.7,3,3.2c0.4,1.1,0.4,2.1,0.1,3.2c-0.2,0.7-0.4,1.3-0.6,2
		c-0.8,2.9,0.7,5.5,3.6,6.3c0.8,0.2,1.5,0.2,2.3,0.4c2.6,0.6,4.3,2.3,4.7,5c0.2,1.4,0.3,2.8,1.5,3.9c0.7,0.7,1.6,1.2,2.6,1.4
		c0.7,0.2,1.3,0.2,2,0c1.1-0.2,2.2-0.7,3.3-0.9c0.5,0,1,0,1.5,0c1.5,0.3,2.8,1,3.7,2.3c0.4,0.6,0.9,1.2,1.4,1.8
		c2,2.5,5.8,2.3,7.6,0.4c0.5-0.6,1.1-1,1.7-1.5c1.8-1.4,3.7-1.5,5.8-0.5c1.2,0.6,2.3,1.3,3.6,1.5c0.5,0,0.9,0,1.4,0
		c2-0.3,3.3-1.5,4-3.4c0.5-1.2,0.8-2.4,1.8-3.3c1-0.9,2.1-1.5,3.4-1.7c0.4,0,0.8,0,1.1,0c0.4,0,0.8,0,1.1,0.1
		c0.3,0.1,0.7,0.2,1.1,0.1c1-0.2,1.9-0.5,2.7-1.1c1.4-1.1,2-2.5,1.9-4.3c0-0.5-0.1-0.9-0.1-1.4c0-0.6,0-1.2,0-1.8
		c0.3-2,1.5-3.2,3.2-4.1c0.8-0.4,1.6-0.7,2.3-1.1c2.9-1.4,3.2-5.2,1.8-7c-0.4-0.5-0.7-1-0.9-1.6c-1.2-2.3-0.8-4.5,1-6.3
		c1.4-1.4,2.5-2.8,2.4-4.9c-0.1-1.7-0.8-3.1-2.2-4c-0.5-0.3-1-0.6-1.5-0.9c-1.9-1.4-2.7-3.3-2.2-5.6c0.3-1.3,0.8-2.6,0.8-4
		c-0.1-2.3-1.8-4.3-4.1-4.5c-0.8-0.1-1.5-0.2-2.3-0.4c-2.5-0.5-3.9-2.1-4.4-4.5c-0.1-0.4-0.2-0.8-0.2-1.2c-0.2-2.6-1.7-4.1-4.2-4.6
		c-0.6,0-1.2-0.1-1.7,0.1c-1.1,0.2-2.2,0.7-3.3,0.9c-0.5,0-1,0-1.5,0c-1.6-0.2-2.9-1.1-3.8-2.4c-1-1.4-1.9-3-3.6-3.6
		c-0.2-0.1-0.3,0.4-0.2-0.6c-1,0-1.9,0-2.9,0C76.5,10,76.5,10.4,76.4,10.4z M77.3,23.8c5,0.6,9.4,2.3,13.4,5.5
		c3,2.4,5.5,5.3,7.3,8.8c1.3,2.6,2.2,5.3,2.5,8.2c0,0.5,0.1,1.1,0.2,1.6c0,0,0,0,0,0c0.3,1.2,0.3,2.3,0,3.5c-0.3,5-2,9.5-4.9,13.5
		c-3.3,4.6-7.7,7.7-13,9.5c-1.6,0.5-3.2,1-4.8,1.2c-0.3,0.3-0.7,0.3-1,0.3c-1.5,0-3,0-4.5,0c0,0,0-0.1,0-0.1c0,0,0-0.1,0-0.1
		c-0.3,0-0.7,0.1-1-0.2c-4.8-0.7-9.1-2.5-12.8-5.5c-4.7-3.8-7.8-8.6-9.2-14.5c-0.3-1.4-0.6-2.8-0.6-4.2c0,0,0,0,0,0
		c-0.3-1.2-0.3-2.3,0-3.5c0.4-5.3,2.2-10,5.5-14.2C58.5,28.4,64,25,70.8,24c0.4-0.1,0.8-0.1,1.2-0.2c0,0,0,0,0,0
		c0.4-0.3,0.8-0.3,1.2,0c1-0.3,1.9-0.3,2.9,0C76.5,23.5,76.9,23.5,77.3,23.8z"/>
	<path id="XMLID_104_" class="st0" d="M67.1,13.8c-1.3-0.6-2.5-1.3-3.9-1.6c-0.5,0.3-0.9,0.3-1.4,0c0,0,0,0,0,0
		c-2.5,0.5-3.7,2.2-4.5,4.4c-0.7,2.1-2.1,3.5-4.3,4c-0.5,0.3-1.1,0.3-1.6,0h0c-0.3,0-0.6,0-0.9,0c-1.4-0.3-2.7,0.1-3.9,0.9
		c-1.2,0.8-1.8,2-2.1,3.4c0.3,0.6,0.3,1.2,0,1.8v0c0.5,1.9,0.2,3.7-1.2,5.2c-1.1,1.2-2.7,1.6-4.2,2.3c-2.6,1.1-3.4,5.2-1.9,7.3
		c0.7,0.9,1.4,1.9,1.6,3.1c0.3,0.6,0.3,1.2,0,1.8v0c-0.3,1-0.7,2-1.4,2.8c-1,1.2-2.2,2.3-2.5,4c0.4,0.6,0.1,1.2,0.2,1.8v0
		c0,0,0,0,0,0c0,1.3,0.7,2.2,1.6,3c0.5,0.4,1.1,0.7,1.6,1.1c2.6,1.7,3.2,3.6,2.3,6.5c-0.4,1.3-0.9,2.6-0.5,4.1
		c0.7,2.4,2.5,3.9,5.1,4.1c2.5,0.2,4.4,1.2,5.3,3.7c0.3,0.9,0.4,1.7,0.5,2.6c0.3,2,2.1,4,4.1,4c0.7,0,1.4,0,2,0
		c1.1,0,2.2-0.5,3.3-0.8c0.5-0.3,1.1-0.3,1.6,0l0,0c2.1,0.4,3.2,2,4.3,3.6c1.8,2.5,4.2,3,6.9,1.9c1.1-0.4,1.9-1.4,2.8-2.2
		c1.5-1.3,3.1-1.8,5.1-1.1c1.5,0.5,2.9,1.6,4.5,1.9c0.5-0.3,1.1-0.3,1.6,0l0,0c0.6-0.2,1.3-0.4,1.9-0.7c1.6-0.9,2.2-2.6,2.8-4.1
		c0.8-2,2.3-3.1,4.4-3.5c0.4-0.3,0.8-0.3,1.2,0c0,0,0,0,0,0c0.4,0,0.8,0,1.2,0c0.3,0.1,0.7-0.1,1,0.2c0.2-0.1,0.3-0.1,0.5-0.2
		c2.5-0.4,3.8-1.9,4.3-4.4c0.2-0.9-0.2-1.6-0.1-2.4c-0.3-0.7-0.3-1.3,0-2l0,0c0.3-0.9,0.6-1.7,1.2-2.4c0.8-0.8,1.8-1.3,2.8-1.7
		c1.2-0.5,2.4-0.9,3.1-2c1.4-1.9,1.4-4.2,0.1-6.3c-0.9-1.5-1.8-2.9-1.3-4.8c0.3-1.3,1.2-2.3,2.1-3.2c2.1-2.1,2.5-4.7,1-7.1
		c-0.7-1.2-2-1.7-3-2.5c-1.7-1.2-2.5-2.8-2.1-4.9c0.1-0.9,0.5-1.7,0.7-2.6c0.6-2.6-0.1-5-2.6-6.3c-1.2-0.6-2.4-0.5-3.6-0.8
		c-2.3-0.5-4-2.1-4.4-4.5c-0.2-1-0.3-1.9-0.6-2.9c-0.6-1.8-2.2-2.6-3.9-3.1c-0.6,0.4-1.2,0.1-1.8,0.2c-1.1,0.1-2.2,0.6-3.3,0.8
		c-0.5,0.3-1.1,0.3-1.6,0c0,0,0,0,0,0c-1.5-0.3-2.7-1-3.5-2.3c-1-1.6-2.2-3-4.1-3.6c-0.1,0.2,0.1,0.3,0.2,0.4c1.7,0.6,2.7,2,3.6,3.4
		c0.9,1.3,2.2,2.2,3.8,2.4c0.5,0,1,0,1.5,0c1.1-0.2,2.2-0.7,3.3-0.9c0.6-0.2,1.1-0.1,1.7-0.1c2.5,0.6,3.9,2.1,4.2,4.6
		c0,0.4,0.1,0.8,0.2,1.2c0.6,2.4,2,4,4.4,4.5c0.8,0.2,1.5,0.3,2.3,0.4c2.3,0.3,4,2.3,4.1,4.5c0.1,1.4-0.5,2.7-0.8,4
		c-0.5,2.4,0.3,4.2,2.2,5.6c0.5,0.3,1,0.6,1.5,0.9c1.4,1,2.1,2.3,2.2,4c0.1,2.1-1,3.5-2.4,4.9c-1.8,1.8-2.2,4-1,6.3
		c0.3,0.5,0.6,1.1,0.9,1.6c1.3,1.9,1.1,5.7-1.8,7c-0.8,0.4-1.6,0.7-2.3,1.1c-1.7,0.8-2.9,2.1-3.2,4.1c-0.1,0.6,0,1.2,0,1.8
		c0,0.5,0.1,0.9,0.1,1.4c0.1,1.7-0.4,3.2-1.9,4.3c-0.8,0.6-1.7,0.9-2.7,1.1c-0.4,0.1-0.7,0-1.1-0.1c-0.4-0.1-0.8-0.1-1.1-0.1
		c-0.4,0-0.8,0-1.1,0c-1.3,0.2-2.4,0.8-3.4,1.7c-1,0.9-1.3,2.1-1.8,3.3c-0.8,1.8-2,3-4,3.4c-0.5,0-0.9,0-1.4,0
		c-1.3-0.2-2.5-1-3.6-1.5c-2-1-4-0.9-5.8,0.5c-0.6,0.4-1.2,0.9-1.7,1.5c-1.7,2-5.6,2.2-7.6-0.4c-0.5-0.6-0.9-1.2-1.4-1.8
		c-0.9-1.3-2.1-2-3.7-2.3c-0.5,0-1,0-1.5,0c-1.1,0.2-2.2,0.7-3.3,0.9c-0.7,0.2-1.3,0.2-2,0c-1-0.2-1.8-0.7-2.6-1.4
		c-1.2-1.1-1.3-2.5-1.5-3.9c-0.4-2.7-2-4.5-4.7-5c-0.8-0.2-1.6-0.2-2.3-0.4c-2.9-0.8-4.4-3.4-3.6-6.3c0.2-0.7,0.4-1.3,0.6-2
		c0.3-1.1,0.2-2.1-0.1-3.2c-0.5-1.5-1.7-2.4-3-3.2c-1.4-0.8-2.4-2-2.7-3.6c-0.2-0.6-0.1-1.1-0.1-1.7c0.2-1.2,0.8-2.2,1.7-3.1
		c1.1-1.1,2-2.3,2.2-3.9c0-0.5,0-1.1,0-1.6c-0.2-1.3-0.9-2.2-1.6-3.3c-1.3-2-0.8-5.8,1.9-6.9c0.6-0.3,1.2-0.6,1.9-0.8
		c3.1-1.3,4.3-3.6,3.6-7c0-0.5,0-1,0-1.6c0.6-2.7,2.1-4,4.7-4.3c0.7-0.1,1.3,0.2,2,0.1c0.5,0,1,0,1.4,0c2-0.4,3.4-1.4,4.3-3.3
		c0.3-0.7,0.6-1.4,0.9-2.1c0.8-1.7,2-2.7,3.9-3c0.4,0,0.8,0,1.2,0c1.4,0.2,2.7,1,4,1.6c1.9,0.9,3.8,0.8,5.5-0.5c1.3-1,2.4-2.2,3.9-3
		c0.1-0.1,0.1-0.2,0.1-0.3c-1.4,0.6-2.4,1.6-3.5,2.6C71.3,14.5,69.2,14.9,67.1,13.8z"/>
	<path id="XMLID_105_" class="st0" d="M91.6,137.8c4.9,0,9.8,0,14.7,0c0.3-0.3,0.7-0.2,1.1-0.2c2,0,3.9,0,5.9,0
		c1-0.1,1.4-0.8,1.4-1.6c0-1.1,0-2.2,0-3.3c0.1-1.2-0.2-2.4,0.1-3.5c0-0.1,0-0.2,0.1-0.3c0.1-1.3,0-2.6,0.1-4
		c0.1-1.2,0.9-1.9,1.5-2.6c2.9-3.5,5.9-7,8.9-10.6c3-3.6,6-7.1,8.9-10.7c1.6-2,3.5-3.8,4.9-5.9c1.5-2.3,2.6-4.8,3.1-7.6
		c0.3-1.5,0.5-3.1,0.4-4.6c0.1-0.3-0.1-0.7,0.2-1c0-0.3,0-0.7,0-1c0-0.3-0.1-0.7,0.2-1c0-0.4,0-0.7,0.2-1c-0.3-0.3-0.3-0.7,0-1
		c0.2-1,0.3-1.9,0.2-2.9c0.1-0.3-0.1-0.7,0.2-1c0-0.3,0-0.7,0-1c0,0,0,0,0,0c0,0,0,0,0,0c0-0.3-0.1-0.7,0.2-1c0.2-1,0.3-1.9,0.2-2.9
		c0,0,0,0,0,0c0,0,0,0,0,0c0.1-0.3-0.1-0.7,0.2-1c0-0.3,0-0.7,0-1c0-0.3-0.1-0.7,0.2-1c0.2-1.6,0.5-3.3,0.4-4.9
		c0.1-0.3-0.1-0.7,0.2-1c0-0.4,0-0.7,0.2-1l0,0c-0.3-0.3-0.3-0.7,0-1c0.2-1,0.3-1.9,0.2-2.9c0.1-0.3-0.1-0.7,0.2-1c0-0.3,0-0.7,0-1
		c0,0,0,0,0,0c0,0,0,0,0,0c0-0.3-0.2-0.7,0.1-1c0-0.3,0.1-0.6,0.1-0.8c0-1.2,0-2.5,0-3.7c0-0.1-0.4-0.6-0.6-0.9
		c-1.3-2.9-4.7-3.4-6.6-2c-1.1,0.8-1.6,2-1.9,3.3c-0.8,2.6-1.1,5.3-1.4,7.9c-0.3,1.9-0.5,3.8-0.7,5.8c-0.1,0.4-0.1,0.7-0.1,1.1
		c0,0.4,0,0.9-0.2,1.3c0,0.3,0,0.7,0,1c0,0.6,0,1.1-0.2,1.7c-0.1,0.5,0,1-0.1,1.4c0.1,3.5-0.9,6.6-2.4,9.7c-4,8-8.9,15.3-14.1,22.5
		c-0.4,0.6-0.9,1.1-1.8,1c-0.6-0.1-1-0.6-1.1-1.2c-0.1-0.6,0.1-1,0.4-1.4c1.6-2.6,3.2-5.2,4.8-7.8c2.5-4.1,5-8.1,7.5-12.2
		c1.7-2.8,0.9-6-1.8-7.5c-1.7-1-4.9-0.8-6.5,1.3c-4.3,5.7-8.7,11.3-13.1,16.9c-1.9,2.4-4.3,4.2-6.6,6.1c-4.7,3.8-8.3,8.3-10.3,14.1
		c-0.8,2.2-1.2,4.4-1.5,6.7c0,0.6,0,1.1,0,1.7c0,0.6,0,1.3,0,1.9c0,0.4,0,0.8,0,1.2c0.1,0.5,0.2,1,0.2,1.5c0,0.6-0.1,1.3,0.1,1.9
		c0.1,0.6,0.1,1.2,0.1,1.8c0,0.6,0,1.2,0,1.8c0.2,0.7,0.2,1.4,0.2,2.1c0,0.6-0.1,1.3,0.1,1.9c0.1,0.6,0.1,1.2,0.1,1.8
		c0,0.6,0,1.1,0,1.6c0,1.2,0.6,1.8,1.5,2.8c0.1,0,0.1,0,0.2,0C90.8,138,91.2,137.9,91.6,137.8z"/>
	<polygon id="XMLID_106_" class="st0" points="88,127.9 88,127.9 88,127.9 	"/>
	<path id="XMLID_2_" class="st0" d="M119.3,72.4c1.6-2.1,4.7-2.3,6.5-1.3c2.7,1.5,3.5,4.7,1.8,7.5c-2.5,4.1-5,8.1-7.5,12.2
		c-1.6,2.6-3.2,5.2-4.8,7.8c-0.3,0.4-0.5,0.9-0.4,1.4c0.2,0.6,0.5,1.1,1.1,1.2c0.8,0.2,1.3-0.4,1.8-1c5.1-7.2,10.1-14.5,14.1-22.5
		c1.5-3.1,2.5-6.3,2.4-9.7c0-0.5,0-1,0.1-1.4c0.2-0.5,0.2-1.1,0.2-1.7c0-0.3,0-0.7,0-1c0.1-0.4,0.2-0.9,0.2-1.3c0-0.4,0-0.7,0.1-1.1
		c0.2-1.9,0.4-3.9,0.7-5.8c0.4-2.7,0.7-5.3,1.5-7.9c0.4-1.3,0.8-2.5,2-3.3c2-1.4,5.4-0.9,6.7,2c0.1,0.3,0.1,0.8,0.7,0.9
		c-0.2-0.1-0.2-0.3-0.2-0.4c-0.8-3-4.1-4.4-6.8-3c-1.5,0.8-2.1,2.2-2.6,3.8c-0.6,1.9-0.9,3.9-1.2,5.9c-0.3,2.6-0.9,5.3-0.9,7.9
		c-0.1,0.3,0.1,0.7-0.2,1c0,0.4,0,0.9-0.2,1.2c0,0,0,0,0,0c0.3,0.3,0.3,0.7,0,1c0,0.6,0.1,1.1-0.2,1.6c0.3,0.5,0.3,1.1,0,1.6
		c0,0,0,0,0,0c0.1,2.7-0.4,5.3-1.5,7.7c-1,2.1-2.1,4.3-3.2,6.4c-3.5,6.3-7.6,12.2-11.7,18c-0.4,0.6-1,1.1-1.8,0.6
		c-0.7-0.4-0.8-1.2-0.3-2c3.9-6.3,7.8-12.6,11.6-18.9c0.8-1.4,1.7-2.6,1.7-4.4c-0.1-2.2-0.9-3.8-2.8-4.7c-1.9-1-3.8-0.9-5.6,0.3
		c-1.1,0.7-1.7,1.9-2.5,2.9c-3.5,4.5-7,8.9-10.4,13.4c-1.5,2-3.2,4-5.2,5.6c-3.1,2.4-6.1,4.9-8.6,8c-2.2,2.8-3.8,5.9-4.9,9.3
		c-0.5,1.8-0.8,3.6-1.2,5.4c0.3,0.6,0.3,1.2,0,1.8c0,0,0,0,0,0c0,0.7,0,1.4,0,2.1c0.3,0.4,0.3,0.8,0,1.2c0.3,0.5,0.2,1,0.2,1.4
		c0.4,0.6,0.1,1.2,0.2,1.8v0c0,0,0,0,0,0c0,0.6,0,1.2,0,1.8c0.3,0.6,0.3,1.2,0,1.8c0.4,0.7,0.1,1.4,0.2,2.1c0.4,0.6,0.1,1.2,0.2,1.8
		v0c0,0,0,0,0,0c0,0.6,0,1.2,0,1.8c0.3,0.6,0.3,1.2,0,1.8c0,0,0,0,0,0c0.2,1.2,0.4,2.4,1.8,2.7c-0.9-0.7-1.6-1.6-1.5-2.9
		c0-0.6,0-1.1,0-1.7c0-0.6,0-1.2-0.1-1.8c-0.2-0.6-0.1-1.3-0.1-1.9c0-0.7,0-1.4-0.2-2.1c-0.1-0.6-0.1-1.2,0-1.8c0-0.6,0-1.2-0.1-1.8
		c-0.2-0.6-0.1-1.2-0.1-1.9c0-0.5,0-1-0.2-1.5c-0.1-0.4,0-0.8,0-1.2c0-0.6,0-1.3,0-1.9c0-0.6,0-1.1,0-1.7c0.3-2.3,0.7-4.5,1.5-6.7
		c2-5.7,5.6-10.3,10.3-14.1c2.3-1.9,4.7-3.7,6.6-6.1"/>
	<path id="XMLID_108_" class="st0" d="M59.3,137.8C59.3,137.8,59.3,137.8,59.3,137.8c1.3-0.6,1.7-1.5,1.6-2.7
		c-0.1-0.6,0-1.1,0.2-1.7c0-0.6,0-1.1,0-1.7c0-0.6,0-1.2,0.1-1.8c0.2-0.6,0.1-1.3,0.1-1.9c0-0.7,0-1.4,0.2-2.1c0.1-0.6,0-1.2,0-1.8
		c0-0.6,0-1.2,0.1-1.7c0.2-0.5,0.1-1.1,0.1-1.6c0.5-5.6-0.9-10.7-3.6-15.6c-2-3.6-4.7-6.6-7.8-9.3c-1.3-1.2-2.8-2.1-4.2-3.3
		c-2.1-1.7-3.6-3.9-5.3-6c-3.7-4.8-7.4-9.5-11-14.3c-1.6-2.2-5.1-2.4-6.8-1.2c-2.3,1.6-3.1,4.6-1.7,6.9c2.2,3.7,4.5,7.3,6.7,10.9
		c1.9,3.1,3.8,6.2,5.7,9.3c0.8,1.2,0.7,2.2-0.1,2.7c-0.8,0.5-1.7,0.2-2.5-1c-3.4-4.7-6.7-9.6-9.7-14.6c-1.4-2.4-2.8-4.8-4.1-7.3
		c-1.6-3.1-2.8-6.3-2.4-9.9c0-0.5,0-1.1,0-1.6c-0.1-0.5-0.2-1-0.2-1.5c0-0.4,0-0.9-0.1-1.3c-0.4-5-1.1-10-2.1-14.9
		c-0.2-1.1-0.5-2.3-1.1-3.3C9.8,43.1,5.8,43.3,4,46c-0.3,0.5,0,1.2-1,1.3c0,1.2,0,2.5,0,3.7c0,0.9,0.2,1.9,0.5,2.9
		c0.3,0.3,0.2,0.7,0.2,1c0,0.3,0,0.7,0,1c0.3,0.3,0.2,0.7,0.2,1c-0.1,1,0.1,1.9,0.2,2.9c0.3,0.3,0.3,0.7,0,1c0.2,0.3,0.2,0.7,0.2,1
		c0.3,0.3,0.1,0.7,0.2,1c0,1.7,0.2,3.3,0.4,4.9c0,0,0,0,0,0c0.3,0.3,0.1,0.7,0.2,1c0,0.3,0,0.7,0,1l0,0c0.3,0.3,0.1,0.7,0.2,1
		c-0.1,1,0.1,1.9,0.2,2.9c0.3,0.3,0.1,0.7,0.2,1c0,0.3,0,0.7,0,1l0,0c0.3,0.3,0.1,0.7,0.2,1c-0.1,1,0.1,1.9,0.2,2.9
		c0.3,0.3,0.3,0.7,0,1c0.2,0.3,0.2,0.7,0.2,1c0.3,0.3,0.1,0.7,0.2,1c0,0.3,0,0.7,0,1c0.3,0.3,0.1,0.7,0.2,1c0,0.3,0,0.6,0,0.8
		c0,0,0,0,0,0c0.3,0.3,0.1,0.7,0.2,1c0,1.5,0.5,2.9,1.1,4.3c1.1,2.6,2.6,4.9,4.4,7c2.3,2.7,4.6,5.5,6.8,8.2c1.9,2.3,3.8,4.6,5.8,6.8
		c2.3,2.8,4.6,5.5,6.9,8.3c0.8,0.9,1.6,1.8,2.4,2.8c0.3,0.6,0.3,1.2,0,1.8c0.4,0.9,0.1,1.8,0.2,2.7v0c0.4,0.9,0.1,1.8,0.2,2.7
		c0,0.9,0,1.8,0,2.7c0,0,0,0,0,0c0.3,0.7,0.3,1.5,0,2.2c0.2,0.9,0.8,1.5,1.6,1.8h0c0.3-0.3,0.6-0.2,0.9-0.2c1.6,0,3.2,0,4.8,0
		c0.3,0,0.7-0.1,0.9,0.2c4.5,0,9,0,13.6,0c0.4,0,0.8,0.2,1.2,0.2c0.1,0,0.1,0,0.2,0C58.5,138,58.9,137.9,59.3,137.8z"/>
	<path id="XMLID_109_" class="st0" d="M4.1,46c1.7-2.7,5.7-2.9,7.4-0.3c0.7,1,0.9,2.1,1.1,3.3c1.1,4.9,1.7,9.9,2.1,14.9
		c0.1,0.4,0.1,0.9,0.1,1.3c0,0.5,0,1,0.2,1.5c0.1,0.5,0,1.1,0,1.6c-0.4,3.6,0.8,6.8,2.4,9.9c1.3,2.5,2.6,4.9,4.1,7.3
		c3,5,6.3,9.8,9.7,14.6c0.8,1.2,1.7,1.6,2.5,1c0.8-0.5,0.9-1.5,0.1-2.7c-1.9-3.1-3.8-6.2-5.7-9.3c-2.2-3.6-4.5-7.2-6.7-10.9
		c-1.4-2.4-0.6-5.4,1.7-6.9c1.7-1.2,5.2-1,6.8,1.2c3.6,4.8,7.4,9.5,11,14.3c1.6,2.1,3.2,4.3,5.3,6c1.4,1.1,2.9,2.1,4.2,3.3
		c3,2.7,5.8,5.7,7.8,9.3c2.7,4.9,4,10,3.6,15.6c0,0.5,0,1.1-0.1,1.6c-0.1,0.6-0.1,1.2-0.1,1.7c0,0.6,0.1,1.2,0,1.8
		c-0.2,0.7-0.2,1.4-0.2,2.1c0,0.6,0.1,1.3-0.1,1.9c-0.1,0.6-0.1,1.2-0.1,1.8c0,0.6,0,1.1,0,1.7c-0.1,0.6-0.2,1.1-0.2,1.7
		c0.1,1.3-0.3,2.2-1.5,2.7c0,0,0,0.1,0,0.1c0,0,0,0,0,0c1.1-0.1,1.8-0.8,1.8-1.9c0.1-0.8-0.2-1.6,0.2-2.4c-0.3-0.6-0.3-1.2,0-1.8v0
		c0-0.6,0-1.2,0-1.8c0.1-0.6-0.2-1.3,0.2-1.8v0c0.1-0.7-0.1-1.4,0.2-2.1c-0.3-0.6-0.3-1.2,0-1.8v0c0-0.6,0-1.2,0-1.8
		c0.1-0.5-0.2-1.1,0.2-1.6c0-1.9,0.3-3.9-0.1-5.7c-1.5-8.4-6-15.1-12.7-20.3c-2-1.6-4.1-3-5.7-5.1c-4.4-5.6-8.7-11.2-13-16.8
		c-1.3-1.6-2.7-2.6-4.9-2.7c-3.8-0.1-6.7,4.3-4.6,8c1.8,3.2,3.8,6.3,5.7,9.4c2.3,3.8,4.6,7.5,7,11.3c0.5,0.9,0.5,1.7-0.2,2.1
		c-0.6,0.4-1.4,0.2-2-0.6c-1-1.5-2-3-3.1-4.4c-3.5-5-6.8-10.2-9.7-15.5c-2-3.7-4-7.4-3.5-11.9c-0.3-0.6-0.3-1.2,0-1.8
		c-0.3-0.5-0.2-1-0.2-1.5c-0.4-0.4-0.1-0.8-0.2-1.2l0,0c0,0,0,0,0,0c0-2-0.4-4-0.6-6c-0.4-3.6-1-7.1-1.9-10.6
		c-1-3.7-4.6-4.6-7.3-2.7c-1.1,0.7-1.5,1.8-2,2.8C3.8,47.2,3.8,46.5,4.1,46z"/>
	<path id="XMLID_111_" class="st1" d="M56.7,137.9c-4.5,0-9,0-13.6,0c-0.8,0-1.5,0-2.3,0c0.8,0,1.6,0,2.4,0.1
		C47.8,138,52.3,138,56.7,137.9c0.4,0.1,0.8,0,1.2,0.2C57.6,137.7,57.1,137.9,56.7,137.9z"/>
	<path id="XMLID_112_" class="st1" d="M3.5,54.9c0,0.3,0,0.7,0.1,1c0.1,0.4,0.1,0.7,0.1,1.1c0,0.9,0,1.8,0.3,2.6
		C4.1,60,4.1,60.4,4,60.8c0,0.4,0.1,0.7,0.2,1.1c0.1,0.4,0.1,0.7,0.1,1.1c0,1.6,0.2,3.1,0.5,4.6c0.1,0.4,0.2,0.8,0.2,1.1
		c0,0.3,0,0.7,0.1,1c0.1,0.4,0.1,0.8,0.1,1.1c0,0.9,0,1.8,0.3,2.7c0.1,0.4,0.2,0.7,0.1,1.1c0,0.3,0,0.7,0.1,1
		c0.1,0.4,0.1,0.7,0.1,1.1c0,0.9,0,1.8,0.3,2.6c0.2,0.4,0.2,0.8,0.1,1.2c0,0.4,0.1,0.7,0.2,1c0.1,0.3,0.1,0.7,0.1,1
		c0,0.3,0,0.6,0.1,0.9c0.1,0.3,0.1,0.7,0.1,1.1c0,0.3,0,0.5,0.1,0.8c0.1,0.3,0.1,0.7,0.1,1c0,1.3,0.4,2.6,0.9,3.9c1.1,3,2.9,5.6,5,8
		c4.2,4.9,8.3,9.8,12.4,14.8c3.1,3.7,6.2,7.3,9.2,11c0.3,0.6,0.1,1.2,0.1,1.8c0.1,0.8,0,1.7,0.1,2.5c0.2,0.9,0.1,1.8,0.1,2.6
		c0,0.8,0,1.7,0.1,2.5c0.2,0.8,0.2,1.5,0.1,2.3c0.2,1.3,0.8,1.9,2,1.9c0.9,0,1.9,0,2.8,0c-1,0-2,0-3,0c0,0,0,0,0,0h0
		c-0.9-0.3-1.4-1-1.6-1.8c0-0.7,0-1.5,0-2.2c0,0,0,0,0,0c0,0,0,0,0,0c0-0.9,0-1.8,0-2.7c-0.4-0.9-0.1-1.8-0.2-2.7c0,0,0,0,0,0v0
		c-0.1-0.9,0.2-1.8-0.2-2.7c0-0.6,0-1.2,0-1.8c-0.8-0.9-1.6-1.8-2.4-2.8c-2.3-2.8-4.6-5.5-6.9-8.3c-1.9-2.3-3.8-4.6-5.8-6.8
		c-2.3-2.7-4.5-5.5-6.8-8.2c-1.9-2.1-3.3-4.5-4.4-7c-0.6-1.4-1-2.8-1.1-4.3c-0.3-0.3-0.2-0.7-0.2-1c0,0,0,0,0,0c0,0,0,0,0,0
		c0-0.3,0-0.6,0-0.8c-0.3-0.3-0.2-0.7-0.2-1c0,0,0,0,0,0c0-0.3,0-0.7,0-1c-0.3-0.3-0.2-0.7-0.2-1c0,0-0.1,0-0.1,0
		c0-0.4-0.3-0.7-0.3-1c0-0.3,0-0.7,0-1l0.1,0c-0.2-1-0.2-1.9-0.2-2.9c-0.3-0.3-0.1-0.7-0.2-1c0,0,0,0,0,0l0,0c0-0.3,0-0.7,0-1
		c-0.3-0.3-0.2-0.7-0.2-1l0,0c-0.2-1-0.3-1.9-0.2-2.9c-0.3-0.3-0.2-0.7-0.2-1c0,0,0,0,0,0l0,0c0-0.3,0-0.7,0-1
		c-0.3-0.3-0.2-0.7-0.2-1c0,0,0,0,0,0c0,0,0,0,0,0c-0.2-1.6-0.5-3.3-0.4-4.9c-0.3-0.3-0.2-0.7-0.2-1l-0.1,0c0-0.4-0.3-0.7-0.3-1
		c0-0.3,0-0.7,0-1l0.1,0c-0.2-1-0.2-1.9-0.2-2.9c-0.3-0.3-0.1-0.7-0.2-1c0,0,0,0,0,0c0-0.3,0-0.7,0-1c-0.3-0.3-0.2-0.7-0.2-1l0,0
		c-0.2-0.9,0-1.9-0.4-2.9c0.2,0.9,0,1.9,0.2,2.8C3.4,54.2,3.5,54.5,3.5,54.9z"/>
	<path id="XMLID_114_" class="st1" d="M114.8,129.2c0-0.1,0.1-0.2,0.1-0.3C114.9,129,114.8,129.1,114.8,129.2z"/>
	<path id="XMLID_115_" class="st1" d="M106.5,137.9c-4.9,0-9.5,0-14.5,0c0,0,0,0.1,0,0.1c0,0,0,0,0,0c4.8,0,9.5,0,14.3,0
		c0.8-0.1,1.5-0.1,2.3-0.1C107.9,137.9,107.2,137.9,106.5,137.9L106.5,137.9z"/>
	<path id="XMLID_116_" class="st1" d="M110.3,137.9c0.7,0,1.5,0,2.2,0c0,0-0.1,0-0.1,0C111.7,137.9,111,137.9,110.3,137.9z"/>
	<path id="XMLID_117_" class="st1" d="M145.8,53.1c0,0.3,0,0.7,0,1c0,0.3,0,0.7-0.4,1c0.1,1,0.6,1.9-0.4,2.9c0,0.3,0,0.7,0,1
		c0,0,0.2,0,0.2,0l0,0c-0.2,0.3-0.1,0.7-0.1,1c0,0.3,0.2,0.7-0.1,1c0,1.7-0.2,3.3-0.4,4.9c0,0.3,0.2,0.7-0.2,1c0,0.3,0,0.7,0,1
		c0,0.3,0.2,0.7-0.2,1c0,0,0,0,0,0c0.1,1-0.1,1.9-0.2,2.9c0,0.3,0.2,0.7-0.2,1c0,0,0,0,0,0c0,0.3,0,0.7,0,1c0,0.3,0,0.7-0.4,1
		c0.1,1-0.4,1.9-0.4,2.9c0,0.3,0,0.7,0,1c0,0,0.2,0,0.2,0c-0.2,0.3-0.1,0.7-0.1,1c0,0.3,0.2,0.7-0.2,1c0,0.3,0,0.7,0,1
		c0,0.3,0.2,0.7-0.2,1c0.1,1.6-0.2,3.1-0.4,4.6c-0.4,2.7-1.5,5.2-3,7.6c-1.4,2.2-3.3,3.9-4.9,5.9c-2.9,3.6-5.9,7.1-8.9,10.7
		c-3,3.5-5.9,7-8.9,10.6c-0.6,0.8-1.4,1.4-1.5,2.6c-0.1,1.3,0,2.6-0.1,4c-0.1,1.3,0.3,2.6-0.2,3.9c0,1.1,0,2.2,0,3.3
		c0,0.9-0.4,1.6-1.4,1.7c-0.1,0.1-0.2,0.2-0.4,0.2c0.1,0,0.2,0,0.3,0c1.1-0.1,1.7-0.7,1.8-1.8c0.1-1.1,0-2.2,0-3.3
		c0-1.2-0.1-2.5,0.1-3.7c0.2-1,0.1-2,0.1-3c0-1.2,0.2-2.3,1.1-3.2c0.8-0.8,1.5-1.7,2.2-2.6c5.7-6.9,11.5-13.8,17.3-20.7
		c1.5-1.7,3.1-3.4,4.3-5.3c2.1-3.6,2.9-7.4,3-11.5c0-0.4,0-0.7,0.1-1.1c0.1-0.3,0.1-0.6,0.1-0.9c0-0.4,0-0.7,0.1-1
		c0.1-0.3,0.2-0.7,0.2-1c-0.1-0.4,0-0.8,0.1-1.2c0.3-0.9,0.3-1.7,0.3-2.6c0-0.4,0-0.8,0.1-1.1c0.1-0.3,0.1-0.7,0.1-1
		c0-0.4,0-0.8,0.1-1.1c0.3-0.9,0.3-1.8,0.3-2.7c0-0.4,0-0.8,0.1-1.1c0.1-0.3,0.1-0.7,0.1-1c0-0.4,0-0.8,0.2-1.1
		c0.3-1.5,0.5-3.1,0.5-4.6c0-0.4,0-0.7,0.1-1.1c0.1-0.4,0.2-0.7,0.2-1.1c-0.1-0.4,0-0.8,0.1-1.2c0.3-0.9,0.3-1.7,0.3-2.6
		c0-0.4,0-0.8,0.1-1.1c0-0.3,0-0.6,0-0.9c0-0.2,0-0.3,0-0.5C146,52.8,145.9,52.9,145.8,53.1C145.8,53.1,145.8,53.1,145.8,53.1z"/>
	<path id="XMLID_118_" class="st1" d="M146,52c0,0.1,0,0.3,0,0.4C146,52.3,146,52.2,146,52c0.2-0.3,0-0.6,0.2-0.8
		C145.9,51.4,146,51.8,146,52z"/>
	<path id="XMLID_119_" class="st2" d="M90.4,138.1c0.4,0,0.8,0,1.2,0c0,0-0.1-0.1-0.1-0.1C91.2,138,90.8,137.9,90.4,138.1z"/>
	<path id="XMLID_120_" class="st2" d="M91.6,138C91.6,138,91.6,138,91.6,138c0-0.1,0-0.1,0.1-0.1c-0.4,0.1-0.9-0.2-1.2,0.2
		C90.8,137.9,91.2,138,91.6,138z"/>
	<path id="XMLID_121_" class="st2" d="M91.6,138C91.6,138,91.6,138,91.6,138C91.6,138,91.6,138,91.6,138C91.6,138,91.6,138,91.6,138
		z"/>
	<path id="XMLID_122_" class="st2" d="M91.6,137.9C91.6,138,91.6,138,91.6,137.9C91.6,138,91.6,138,91.6,137.9
		C91.6,137.9,91.6,137.9,91.6,137.9C91.6,137.9,91.6,137.9,91.6,137.9z"/>
	<path id="XMLID_123_" class="st2" d="M59.3,137.9c-0.4,0.2-0.8-0.1-1.2,0.2c0.4,0,0.8,0,1.2,0C59.3,138,59.3,137.9,59.3,137.9z"/>
	<path id="XMLID_124_" class="st2" d="M59.3,137.9c0,0.1,0,0.1,0,0.2C59.3,138,59.3,137.9,59.3,137.9
		C59.3,137.9,59.3,137.9,59.3,137.9z"/>
	<path id="XMLID_125_" class="st2" d="M59.3,137.9C59.3,137.9,59.3,137.9,59.3,137.9c-0.4,0.1-0.9-0.2-1.2,0.2
		C58.5,137.8,58.9,138.1,59.3,137.9z"/>
	<path id="XMLID_126_" class="st2" d="M59.3,137.9C59.3,137.9,59.3,137.9,59.3,137.9C59.3,137.9,59.3,137.9,59.3,137.9
		C59.3,137.9,59.3,137.9,59.3,137.9z"/>
	<path id="XMLID_127_" class="st0" d="M20.5,52.9c-0.4-1.9-0.9-3.8-2.8-4.8c-0.3-0.1-0.5-0.4-0.8-0.2c-0.3,0.2-0.1,0.5-0.1,0.8
		c0.8,4.1,1.4,8.2,1.9,12.4c0.3,0.3,0.1,0.7,0.2,1c0,0.3,0,0.7,0,1c0.3,0.3,0.3,0.7,0,1c0,0,0,0,0,0c0.3,0.5,0.2,1,0.2,1.5
		c0.5,0.7-0.1,1.6,0.4,2.2c0,0,0,0,0,0c0.7-0.5,1.4-1,2.3-1.3c1-0.3,1.1-1.1,1-1.9C22,60.6,21.3,56.8,20.5,52.9z"/>
	<path id="XMLID_128_" class="st0" d="M127.9,66.3c0.3,0,0.5,0.2,0.7,0.4c0.5,0.3,1,1.1,1.5,0.9c0.5-0.3,0.1-1.2,0.2-1.8
		c0.1-0.6-0.2-1.3,0.2-1.8c0,0,0,0,0,0c0-0.4,0-0.8,0-1.2c0.1-0.3-0.1-0.7,0.2-1c0.6-4.7,1.1-9.4,2.1-14.1c-1.9,0.5-2.9,1.7-3.3,3.4
		c-1.1,4.4-2,8.9-2.7,13.4C126.6,65.3,126.7,66.1,127.9,66.3z"/>
	<path id="XMLID_129_" class="st0" d="M120.3,65.8c0.5-0.2,1-0.3,1.6-0.3c0.6,0,0.9-0.2,1-0.9c0.3-1.5,0.6-3.1,0.9-4.6
		c0.5-2.2,1.1-4.3,1.7-6.5c0.1-0.2,0.1-0.5,0-0.7c-0.2-0.2-0.5-0.1-0.7,0.1c-0.9,0.5-1.7,1.1-2.1,2.1c-0.7,1.4-0.9,3-1.4,4.4
		c-0.6,1.9-1.1,3.8-1.6,5.6C119.6,65.8,119.7,66,120.3,65.8z"/>
	<path id="XMLID_130_" class="st0" d="M27,55.8c-0.5-1.6-1.6-2.7-3.5-3.3c1,4.3,2.3,8.4,2.9,12.6c0.3,0,0.7-0.1,1,0.2c0,0,0,0,0,0
		c0.5,0.1,1,0.2,1.5,0.3c0.8,0.3,0.9,0,0.7-0.7C28.8,61.9,27.9,58.9,27,55.8z"/>
	<path id="XMLID_131_" class="st3" d="M19.2,67.3c-0.1-0.6,0.1-1.2-0.1-1.8c0,0.7,0,1.3,0,2c0,0.3,0.1,0.5,0.4,0.2l0,0
		C19.1,67.8,19.2,67.5,19.2,67.3z"/>
	<path id="XMLID_132_" class="st3" d="M19.1,65.5c0.2,0.6,0,1.2,0.1,1.8c0,0.2-0.1,0.5,0.3,0.5C18.9,67.1,19.6,66.2,19.1,65.5z"/>
	<path id="XMLID_133_" class="st4" d="M55,84.1c0.7,0.3,1.4,0.3,2,0C56.4,84.3,55.7,84.3,55,84.1z"/>
	<path id="XMLID_134_" class="st4" d="M57.1,84c-0.7,0-1.4,0-2,0C55.7,84,56.4,84,57.1,84z"/>
	<path id="XMLID_135_" class="st4" d="M104.3,72.3c0-0.7,0-1.3,0-2c0,0,0,0,0,0C104.1,70.9,104.1,71.6,104.3,72.3z"/>
	<path id="XMLID_136_" class="st4" d="M104.3,72.3c-0.2-0.7-0.2-1.3,0-2c0,0,0,0,0,0l0,0C104,70.9,104,71.6,104.3,72.3z"/>
	<path id="XMLID_137_" class="st3" d="M93.7,15.2c-0.6,0.1-1.3-0.2-1.8,0.2C92.4,15.2,93.1,15.5,93.7,15.2z"/>
	<path id="XMLID_138_" class="st3" d="M93.7,15.2c-0.6,0.3-1.2-0.1-1.8,0.2C92.4,15.3,93.1,15.6,93.7,15.2z"/>
	<path id="XMLID_139_" class="st4" d="M88.4,135.4c0.2-0.6,0.2-1.2,0-1.8C88.4,134.2,88.4,134.8,88.4,135.4
		C88.4,135.4,88.4,135.4,88.4,135.4z"/>
	<path id="XMLID_140_" class="st4" d="M88.4,135.4c0.3-0.6,0.3-1.2,0-1.8C88.5,134.2,88.5,134.8,88.4,135.4z"/>
	<path id="XMLID_141_" class="st3" d="M44.4,24.9c0,0.6,0,1.2,0,1.8c0,0,0,0,0,0C44.6,26.1,44.6,25.5,44.4,24.9z"/>
	<path id="XMLID_142_" class="st3" d="M44.4,24.9c0.2,0.6,0.2,1.2,0,1.8C44.7,26.1,44.7,25.5,44.4,24.9z"/>
	<path id="XMLID_143_" class="st3" d="M88.4,131.7c-0.3-0.6,0.1-1.2-0.2-1.8C88.2,130.5,87.9,131.2,88.4,131.7z"/>
	<path id="XMLID_144_" class="st3" d="M88.4,131.7L88.4,131.7c-0.1-0.6,0.2-1.3-0.2-1.8C88.4,130.5,88.1,131.2,88.4,131.7z"/>
	<path id="XMLID_145_" class="st3" d="M38.7,44.5c0,0.6,0,1.2,0,1.8c0,0,0,0,0,0C38.9,45.7,38.8,45.1,38.7,44.5z"/>
	<path id="XMLID_146_" class="st3" d="M38.7,44.5c0.2,0.6,0.2,1.2,0,1.8C39,45.7,39,45.1,38.7,44.5z"/>
	<path id="XMLID_147_" class="st4" d="M15.4,68.4c0-0.6,0-1.2,0-1.8c0,0,0,0,0,0l0,0C15.2,67.2,15.2,67.8,15.4,68.4z"/>
	<path id="XMLID_148_" class="st4" d="M15.4,68.4c-0.2-0.6-0.2-1.2,0-1.8l0,0C15.1,67.2,15.1,67.8,15.4,68.4z"/>
	<path id="XMLID_149_" class="st3" d="M61.4,133.6c0-0.6,0-1.2,0-1.8c0,0,0,0,0,0C61.2,132.4,61.2,133,61.4,133.6z"/>
	<path id="XMLID_150_" class="st3" d="M61.4,133.6c-0.2-0.6-0.2-1.2,0-1.8C61.1,132.4,61,133,61.4,133.6z"/>
	<path id="XMLID_151_" class="st3" d="M34.8,53.1c0.1,0.6-0.2,1.3,0.2,1.8C34.7,54.3,35.1,53.6,34.8,53.1z"/>
	<path id="XMLID_152_" class="st3" d="M34.8,53.1c0.3,0.6-0.1,1.2,0.2,1.8v0C34.9,54.3,35.2,53.6,34.8,53.1z"/>
	<path id="XMLID_153_" class="st3" d="M130.3,65.7c0.4-0.6,0.1-1.2,0.2-1.8c0,0,0,0,0,0C130.2,64.5,130.5,65.1,130.3,65.7z"/>
	<path id="XMLID_154_" class="st3" d="M130.3,65.7c0.3-0.6-0.1-1.2,0.2-1.8C130.1,64.5,130.4,65.1,130.3,65.7z"/>
	<path id="XMLID_155_" class="st3" d="M61.8,126c0-0.6,0-1.2,0-1.8c0,0,0,0,0,0C61.6,124.8,61.6,125.4,61.8,126z"/>
	<path id="XMLID_156_" class="st3" d="M61.8,126c-0.2-0.6-0.2-1.2,0-1.8C61.5,124.8,61.5,125.4,61.8,126z"/>
	<path id="XMLID_157_" class="st4" d="M61.4,129.9c0.4-0.6,0.1-1.2,0.2-1.8c0,0,0,0,0,0C61.3,128.7,61.6,129.3,61.4,129.9z"/>
	<path id="XMLID_158_" class="st4" d="M61.4,129.9c0.3-0.6-0.1-1.2,0.2-1.8C61.2,128.6,61.5,129.3,61.4,129.9z"/>
	<path id="XMLID_159_" class="st4" d="M87.5,117.6c0.2-0.6,0.2-1.2,0-1.8C87.5,116.4,87.5,117,87.5,117.6
		C87.5,117.6,87.5,117.6,87.5,117.6z"/>
	<path id="XMLID_160_" class="st4" d="M87.5,117.6c0.3-0.6,0.3-1.2,0-1.8C87.7,116.4,87.7,117,87.5,117.6z"/>
	<polygon id="XMLID_161_" class="st3" points="88,127.9 88,127.9 88,127.9 	"/>
	<path id="XMLID_162_" class="st3" d="M88,126c0,0.6,0,1.2,0,1.8C88.1,127.2,88.1,126.6,88,126z"/>
	<path id="XMLID_163_" class="st3" d="M88,127.9L88,127.9L88,127.9c0.3-0.6,0.3-1.2,0-1.8C88.1,126.6,88.1,127.2,88,127.9z"/>
	<path id="XMLID_164_" class="st4" d="M87.9,124.2c-0.3-0.6,0.1-1.2-0.2-1.8C87.8,123,87.5,123.6,87.9,124.2z"/>
	<path id="XMLID_165_" class="st4" d="M87.9,124.2L87.9,124.2c-0.1-0.6,0.2-1.3-0.2-1.8C88,122.9,87.7,123.6,87.9,124.2z"/>
	<path id="XMLID_166_" class="st4" d="M53,20.6c-0.5,0-1.1,0-1.6,0c0,0,0,0,0,0C51.9,20.7,52.4,20.7,53,20.6z"/>
	<path id="XMLID_167_" class="st4" d="M53,20.6c-0.5,0.2-1.1,0.2-1.6,0C51.9,20.9,52.4,20.9,53,20.6z"/>
	<path id="XMLID_168_" class="st5" d="M60.4,83.3c0.5,0,1.1,0,1.6,0c0,0,0,0,0,0C61.4,83.1,60.9,83.1,60.4,83.3z"/>
	<path id="XMLID_169_" class="st5" d="M60.4,83.3c0.5-0.2,1.1-0.2,1.6,0C61.4,83,60.9,83,60.4,83.3z"/>
	<path id="XMLID_170_" class="st4" d="M133.9,68.2c0.2-0.5,0.2-1.1,0-1.6C133.9,67.1,133.9,67.6,133.9,68.2
		C133.9,68.2,133.9,68.2,133.9,68.2z"/>
	<path id="XMLID_171_" class="st4" d="M133.9,68.2c0.3-0.5,0.3-1.1,0-1.6C134.1,67.1,134.1,67.6,133.9,68.2z"/>
	<path id="XMLID_172_" class="st3" d="M85.5,87.4c0.5,0,1.1,0,1.6,0c0,0,0,0,0,0C86.6,87.2,86,87.2,85.5,87.4z"/>
	<path id="XMLID_173_" class="st3" d="M85.5,87.4c0.5-0.2,1.1-0.2,1.6,0C86.6,87.1,86,87.1,85.5,87.4z"/>
	<path id="XMLID_174_" class="st3" d="M61.8,122.3c0.4-0.5,0.1-1.1,0.2-1.6c0,0,0,0,0,0v0C61.7,121.2,62,121.8,61.8,122.3z"/>
	<path id="XMLID_175_" class="st3" d="M61.8,122.3c0.3-0.5-0.1-1.1,0.2-1.6v0C61.6,121.2,61.9,121.8,61.8,122.3z"/>
	<path id="XMLID_176_" class="st4" d="M88.6,16.3c-0.5,0-1.1,0-1.6,0c0,0,0,0,0,0C87.5,16.4,88,16.4,88.6,16.3z"/>
	<path id="XMLID_177_" class="st4" d="M88.6,16.3c-0.5,0.2-1.1,0.2-1.6,0C87.5,16.6,88,16.6,88.6,16.3z"/>
	<path id="XMLID_178_" class="st6" d="M63.2,12.2c-0.5,0-0.9,0-1.4,0c0,0,0,0,0,0C62.3,12.3,62.7,12.3,63.2,12.2z"/>
	<path id="XMLID_179_" class="st6" d="M63.2,12.2c-0.5,0.2-0.9,0.2-1.4,0C62.3,12.5,62.7,12.5,63.2,12.2z"/>
	<path id="XMLID_180_" class="st4" d="M15.2,65.1c-0.1-0.4,0.2-0.9-0.2-1.2C15.2,64.3,14.9,64.7,15.2,65.1z"/>
	<path id="XMLID_181_" class="st4" d="M15.2,65.1c-0.2-0.4,0.1-0.8-0.2-1.2l0,0C15,64.3,14.8,64.7,15.2,65.1z"/>
	<path id="XMLID_182_" class="st7" d="M96.1,79c0.4,0,0.8,0,1.2,0c0,0,0,0,0,0C96.9,78.8,96.5,78.8,96.1,79z"/>
	<path id="XMLID_183_" class="st7" d="M96.1,79c0.4-0.2,0.8-0.2,1.2,0C96.9,78.7,96.5,78.7,96.1,79z"/>
	<path id="XMLID_184_" class="st8" d="M87.5,120.9L87.5,120.9c0.2-0.4,0.2-0.8,0-1.2C87.5,120.1,87.5,120.5,87.5,120.9
		C87.5,120.9,87.5,120.9,87.5,120.9z"/>
	<path id="XMLID_185_" class="st8" d="M87.5,120.9L87.5,120.9c0.3-0.4,0.3-0.8,0-1.2C87.7,120.1,87.7,120.5,87.5,120.9z"/>
	<path id="XMLID_186_" class="st9" d="M98.6,79c0.3,0.3,0.7,0.2,1,0.2c0,0,0,0,0,0l0,0C99.3,79,98.9,79.2,98.6,79z"/>
	<path id="XMLID_187_" class="st9" d="M98.6,79c0.3,0.2,0.7,0,1,0.2l0,0C99.3,78.9,98.9,79.1,98.6,79z"/>
	<path id="XMLID_188_" class="st3" d="M134.4,62.6C134.4,62.6,134.4,62.6,134.4,62.6L134.4,62.6c0.2-0.3,0-0.7,0.2-1
		C134.2,61.9,134.4,62.3,134.4,62.6z"/>
	<path id="XMLID_189_" class="st3" d="M134.4,62.6c0.3-0.3,0.1-0.7,0.2-1C134.3,61.9,134.6,62.3,134.4,62.6L134.4,62.6z"/>
	<path id="XMLID_190_" class="st8" d="M27.4,65.3C27.4,65.3,27.4,65.3,27.4,65.3c-0.3-0.2-0.7,0-1-0.2
		C26.7,65.5,27.1,65.3,27.4,65.3z"/>
	<path id="XMLID_191_" class="st8" d="M26.4,65.1c0.3,0.2,0.7,0,1,0.2C27.1,65,26.8,65.2,26.4,65.1z"/>
	<path id="XMLID_192_" class="st3" d="M18.9,62c-0.2-0.3,0-0.7-0.2-1C18.7,61.4,18.5,61.8,18.9,62z"/>
	<path id="XMLID_193_" class="st3" d="M18.7,61c0.2,0.3,0,0.7,0.2,1C18.8,61.7,19,61.3,18.7,61z"/>
	<path id="XMLID_194_" class="st3" d="M134.2,64.9C134.2,64.9,134.2,64.9,134.2,64.9L134.2,64.9c0.2-0.3,0.2-0.7,0-1c0,0,0,0,0,0
		C134.2,64.2,134.2,64.6,134.2,64.9z"/>
	<path id="XMLID_195_" class="st3" d="M134.2,64.9L134.2,64.9c0.3-0.3,0.3-0.7,0-1C134.3,64.2,134.3,64.6,134.2,64.9z"/>
	<path id="XMLID_196_" class="st3" d="M130.5,62.7c0.3-0.3,0.2-0.7,0.2-1l0,0v0C130.4,61.9,130.7,62.4,130.5,62.7z"/>
	<path id="XMLID_197_" class="st3" d="M130.5,62.7c0.2-0.3,0-0.7,0.2-1v0C130.3,61.9,130.5,62.3,130.5,62.7z"/>
	<path id="XMLID_198_" class="st3" d="M18.9,63.1c0,0.3,0,0.7,0,1c0,0,0,0,0,0C19,63.7,19,63.4,18.9,63.1z"/>
	<path id="XMLID_199_" class="st3" d="M18.9,63.1c0.2,0.3,0.2,0.7,0,1C19.2,63.7,19.2,63.4,18.9,63.1z"/>
	<path id="XMLID_202_" class="st1" d="M76.1,23.8c-1-0.3-1.9-0.3-2.9,0c-0.4,0-0.8,0-1.2,0c0,0,0,0,0,0c0,0,0,0,0,0
		c-0.4,0.1-0.8,0.1-1.2,0.2c-6.9,1-12.3,4.4-16.6,9.8c-3.3,4.1-5,8.9-5.5,14.2c0,1.2,0,2.3,0,3.5c0,0,0,0,0,0c0,0,0,0,0,0
		c0,1.4,0.3,2.8,0.6,4.2c1.4,5.9,4.5,10.7,9.2,14.5c3.8,3,7.9,4.8,12.6,5.4c0.3,0,0.8,0,0.8,0.3c0,0,0,0.1,0,0.1c2,0,3.4,0,4.9,0
		c0.3-1,1.1-0.3,1.1-0.3v-0.1c2-0.2,3.2-0.6,4.8-1.1c5.3-1.8,9.7-5,13-9.5c2.9-4,4.7-8.5,5-13.5c0-1.2,0.2-2.3,0.2-3.5c0,0,0,0,0,0
		c0,0,0,0,0,0c0-0.5-0.3-1.1-0.4-1.6c-0.3-2.9-1.3-5.6-2.6-8.2c-1.7-3.5-4.3-6.4-7.3-8.8c-3.9-3.1-8.4-4.9-13.4-5.5
		C76.9,23.8,76.5,23.8,76.1,23.8C76.1,23.8,76.1,23.8,76.1,23.8z M76.5,29.8c1.6,0.6,3.4,0.4,5,1c7.3,2.9,11.9,8,13.1,15.8
		c1,6.1-0.5,11.6-4.6,16.3c-3.4,3.9-7.5,6.2-12.6,6.9c-0.2,0-0.4,0.1-0.4,0.2v0c0,0,0,0,0,0c-1,0-1.5,0-2.1,0c-0.1,0-0.3,0-0.4,0
		l0,0c0,0,0,0,0,0c-0.6,0-1.2,0-1.8,0c-1.5,0-3.1-0.5-4.5-1c-5.2-1.8-9.3-5.1-11.6-10.1c-3.6-7.6-2.8-14.9,2.3-21.6
		c2.9-3.8,6.9-6.1,11.6-7.2c0.9-0.2,1.7-0.1,2.7-0.2c0,0,0,0.2,0,0.2s-0.2,0-0.2,0C74.1,30,75.3,29.8,76.5,29.8z"/>
	<path id="XMLID_203_" class="st4" d="M48.7,47.9c-0.3,1.2-0.3,2.3,0,3.5C48.5,50.3,48.5,49.1,48.7,47.9z"/>
	<path id="XMLID_204_" class="st4" d="M48.7,47.9c-0.2,1.2-0.2,2.3,0,3.5c0,0,0,0,0,0C48.7,50.3,48.7,49.1,48.7,47.9z"/>
	<path id="XMLID_205_" class="st4" d="M100.6,51.4c0.3-1.2,0.3-2.3,0-3.5C100.8,49.1,100.8,50.3,100.6,51.4z"/>
	<path id="XMLID_206_" class="st4" d="M100.6,51.4c0.2-1.2,0.2-2.3,0-3.5c0,0,0,0,0,0C100.6,49.1,100.6,50.3,100.6,51.4z"/>
	<path id="XMLID_207_" class="st3" d="M76.1,23.8c0.4-0.1,0.8-0.1,1.2,0C76.9,23.5,76.5,23.5,76.1,23.8L76.1,23.8z"/>
	<path id="XMLID_208_" class="st3" d="M76.1,23.8L76.1,23.8C76.1,23.8,76.1,23.8,76.1,23.8c0.4,0,0.8,0,1.2,0
		C76.9,23.7,76.5,23.7,76.1,23.8z"/>
	<path id="XMLID_209_" class="st3" d="M73.2,23.8c-0.4-0.3-0.8-0.3-1.2,0C72.4,23.7,72.8,23.7,73.2,23.8z"/>
	<path id="XMLID_210_" class="st3" d="M73.2,23.8c-0.4-0.1-0.8-0.1-1.2,0c0,0,0,0,0,0C72.4,23.8,72.8,23.8,73.2,23.8z"/>
	<path id="XMLID_211_" class="st3" d="M71.4,75.5c0.3,0.3,0.7,0.1,1,0.2c0,0,0,0,0,0C72.1,75.5,71.7,75.8,71.4,75.5z"/>
	<path id="XMLID_212_" class="st3" d="M71.4,75.5c0.3,0.2,0.7-0.1,1,0.2C72.1,75.4,71.7,75.6,71.4,75.5z"/>
	<path id="XMLID_213_" class="st3" d="M76.9,75.7c0.3,0,0.7,0.1,1-0.2h0C77.6,75.8,77.2,75.5,76.9,75.7z"/>
	<path id="XMLID_214_" class="st3" d="M76.9,75.7c0.3-0.2,0.7,0,1-0.2h0l0,0C77.6,75.6,77.2,75.4,76.9,75.7z"/>
	<path id="XMLID_215_" class="st10" d="M112.1,137.8c0.4,0,0.8,0.1,1.2-0.1c-2,0-3.9,0-5.9,0c-0.4,0-0.8-0.1-1.1,0.2h0
		C108.3,137.7,110.2,137.8,112.1,137.8z"/>
	<path id="XMLID_216_" class="st10" d="M108.7,138c0.5,0,1.1,0,1.6,0C109.7,138,109.2,138,108.7,138z"/>
	<path id="XMLID_217_" class="st10" d="M112.9,137.9c-0.1,0-0.3,0-0.4,0C112.6,137.9,112.8,137.9,112.9,137.9z"/>
	<path id="XMLID_218_" class="st10" d="M112.1,137.8c-1.9,0.1-3.8-0.1-5.8,0.1h0l0,0c0.8,0,1.5,0,2.3,0c0.5,0,1.1,0,1.6,0
		c0.7,0,1.4,0,2.1,0c0,0,0.1,0,0.1,0c0.1,0,0.3,0,0.4,0c0.1,0,0.3-0.1,0.4-0.2C112.9,137.9,112.5,137.8,112.1,137.8z"/>
	<path id="XMLID_219_" class="st8" d="M114.8,130c0-0.2,0-0.5,0-0.7c-0.3,1.2,0,2.4-0.1,3.5C115,131.8,114.8,130.9,114.8,130z"/>
	<path id="XMLID_220_" class="st8" d="M114.9,128.9c0,0.1-0.1,0.2-0.1,0.3c0,0.2,0,0.5,0,0.7c-0.1,0.9,0.1,1.9-0.1,2.8
		C115.2,131.5,114.8,130.2,114.9,128.9z"/>
	<path id="XMLID_221_" class="st3" d="M143.7,73.9c-0.3,0.3-0.1,0.7-0.2,1C143.8,74.6,143.5,74.2,143.7,73.9z"/>
	<path id="XMLID_222_" class="st3" d="M143.7,73.9c-0.2,0.3,0.1,0.7-0.2,1C143.9,74.6,143.7,74.2,143.7,73.9z"/>
	<path id="XMLID_223_" class="st4" d="M143.3,77.8c-0.3,0.3-0.3,0.7,0,1l0,0C143.2,78.5,143.2,78.1,143.3,77.8z"/>
	<path id="XMLID_224_" class="st4" d="M143.3,77.8c-0.1,0.3-0.1,0.7,0,1l0,0c0,0,0,0,0,0C143.3,78.5,143.3,78.1,143.3,77.8z"/>
	<path id="XMLID_225_" class="st3" d="M143.1,79.8c-0.3,0.3-0.1,0.7-0.2,1C143.2,80.5,142.9,80.1,143.1,79.8z"/>
	<path id="XMLID_226_" class="st3" d="M143.1,79.8c-0.2,0.3,0.1,0.7-0.2,1C143.3,80.6,143.1,80.2,143.1,79.8z"/>
	<path id="XMLID_227_" class="st3" d="M142.9,81.9c-0.3,0.3-0.1,0.7-0.2,1C143,82.6,142.7,82.2,142.9,81.9z"/>
	<path id="XMLID_228_" class="st3" d="M142.9,81.9c-0.2,0.3,0.1,0.7-0.2,1C143.1,82.6,142.9,82.2,142.9,81.9z"/>
	<path id="XMLID_229_" class="st3" d="M144.4,68c-0.3,0.3-0.1,0.7-0.2,1c0,0,0,0,0,0C144.4,68.7,144.1,68.3,144.4,68z"/>
	<path id="XMLID_230_" class="st3" d="M144.4,68c-0.2,0.3,0.1,0.7-0.2,1C144.5,68.7,144.3,68.3,144.4,68z"/>
	<path id="XMLID_231_" class="st3" d="M144.6,65.9c-0.3,0.3-0.1,0.7-0.2,1C144.6,66.6,144.3,66.2,144.6,65.9z"/>
	<path id="XMLID_232_" class="st3" d="M144.6,65.9c-0.2,0.3,0.1,0.7-0.2,1C144.7,66.7,144.5,66.3,144.6,65.9z"/>
	<path id="XMLID_233_" class="st8" d="M145.2,60c-0.3,0.3-0.1,0.7-0.2,1C145.2,60.7,144.9,60.3,145.2,60z"/>
	<path id="XMLID_234_" class="st8" d="M145.2,60c-0.2,0.3,0.1,0.7-0.2,1C145.3,60.7,145.1,60.3,145.2,60z"/>
	<path id="XMLID_235_" class="st4" d="M145.4,58c-0.3,0.3-0.3,0.7,0,1C145.2,58.6,145.2,58.3,145.4,58z"/>
	<path id="XMLID_236_" class="st4" d="M145.4,58c-0.1,0.3-0.1,0.7,0,1c0,0,0,0,0,0C145.4,58.6,145.4,58.3,145.4,58z"/>
	<path id="XMLID_237_" class="st3" d="M146,52c-0.3,0.3-0.1,0.7-0.2,1c0,0,0,0,0,0C146,52.7,145.8,52.3,146,52z"/>
	<path id="XMLID_238_" class="st3" d="M146,52.6c0-0.1,0-0.1,0-0.2C146,52.5,146,52.6,146,52.6z"/>
	<path id="XMLID_239_" class="st3" d="M145.8,53.1c0.2-0.1,0.2-0.3,0.2-0.4c0-0.1,0-0.1,0-0.2c0-0.1,0-0.3,0-0.4
		C145.8,52.3,146,52.7,145.8,53.1z"/>
	<path id="XMLID_240_" class="st4" d="M143.9,71.9c-0.3,0.3-0.1,0.7-0.2,1c0,0,0,0,0,0C144,72.6,143.7,72.2,143.9,71.9z"/>
	<path id="XMLID_241_" class="st4" d="M143.9,71.9c-0.2,0.3,0.1,0.7-0.2,1C144.1,72.6,143.9,72.2,143.9,71.9z"/>
	<path id="XMLID_242_" class="st3" d="M145.8,54.1c-0.3,0.3-0.1,0.7-0.2,1C145.8,54.8,145.6,54.4,145.8,54.1z"/>
	<path id="XMLID_243_" class="st3" d="M145.8,54.1c-0.2,0.3,0.1,0.7-0.2,1C145.9,54.8,145.7,54.4,145.8,54.1z"/>
	<path id="XMLID_244_" class="st10" d="M43.2,137.9c-0.3-0.3-0.6-0.2-0.9-0.2c-1.6,0-3.2,0-4.8,0c-0.3,0-0.7-0.1-0.9,0.2
		C38.7,137.7,40.9,137.7,43.2,137.9z"/>
	<path id="XMLID_245_" class="st10" d="M39.4,138c0.5,0,1,0,1.4,0C40.4,138,39.9,138,39.4,138z"/>
	<path id="XMLID_246_" class="st10" d="M39.4,137.9c0.5,0,1,0,1.4,0c0.8,0,1.5,0,2.3,0c-2.2-0.2-4.5-0.2-6.7,0c0,0,0,0,0,0
		C37.4,137.9,38.4,137.9,39.4,137.9z"/>
	<path id="XMLID_247_" class="st3" d="M34.8,131.1c-0.1-0.9,0.2-1.8-0.2-2.7C34.9,129.4,34.5,130.3,34.8,131.1z"/>
	<path id="XMLID_248_" class="st3" d="M34.8,131.1c-0.3-0.9,0.1-1.8-0.2-2.7c0,0,0,0,0,0C34.7,129.4,34.4,130.3,34.8,131.1z"/>
	<path id="XMLID_249_" class="st3" d="M34.8,136c0.3-0.7,0.3-1.5,0-2.2C35,134.5,35,135.3,34.8,136z"/>
	<path id="XMLID_250_" class="st3" d="M34.8,136c0.1-0.7,0.1-1.5,0-2.2c0,0,0,0,0,0C34.8,134.5,34.8,135.3,34.8,136z"/>
	<path id="XMLID_251_" class="st2" d="M34.4,125.8c0.3-0.6,0.3-1.2,0-1.8C34.6,124.6,34.5,125.2,34.4,125.8z"/>
	<path id="XMLID_252_" class="st2" d="M34.4,124c0,0.6,0,1.2,0,1.8C34.5,125.2,34.6,124.6,34.4,124z"/>
	<path id="XMLID_253_" class="st3" d="M6,76.8c-0.1-0.3,0.1-0.7-0.2-1C6,76.1,5.7,76.5,6,76.8z"/>
	<path id="XMLID_254_" class="st3" d="M6,76.8c-0.2-0.3,0-0.7-0.2-1c0,0,0,0,0,0C5.8,76.1,5.6,76.5,6,76.8z"/>
	<path id="XMLID_255_" class="st4" d="M6.2,80.6c0.3-0.3,0.3-0.7,0-1v0C6.3,80,6.3,80.3,6.2,80.6z"/>
	<path id="XMLID_256_" class="st4" d="M6.2,80.6c0.1-0.3,0.1-0.7,0-1v0l0,0C6.2,80,6.2,80.3,6.2,80.6z"/>
	<path id="XMLID_257_" class="st3" d="M6.6,82.7c0-0.3,0.1-0.7-0.2-1v0C6.6,82,6.3,82.4,6.6,82.7z"/>
	<path id="XMLID_258_" class="st3" d="M6.6,82.7c-0.2-0.3,0-0.7-0.2-1v0c0,0,0,0,0,0C6.4,82,6.2,82.4,6.6,82.7z"/>
	<path id="XMLID_259_" class="st3" d="M6.8,84.7c0-0.3,0.1-0.7-0.2-1v0C6.8,84,6.5,84.4,6.8,84.7z"/>
	<path id="XMLID_260_" class="st3" d="M6.8,84.7c-0.2-0.3,0-0.7-0.2-1v0c0,0,0,0,0,0C6.6,84.1,6.5,84.4,6.8,84.7z"/>
	<path id="XMLID_261_" class="st8" d="M4.5,62.9c-0.1-0.3,0.1-0.7-0.2-1v0C4.6,62.2,4.3,62.6,4.5,62.9z"/>
	<path id="XMLID_262_" class="st8" d="M4.5,62.9c-0.2-0.3,0-0.7-0.2-1v0l0,0C4.4,62.2,4.2,62.6,4.5,62.9z"/>
	<path id="XMLID_263_" class="st4" d="M7,86.6c0-0.3,0.1-0.7-0.2-1C7,85.9,6.8,86.3,7,86.6z"/>
	<path id="XMLID_264_" class="st4" d="M7,86.6c-0.2-0.3,0-0.7-0.2-1c0,0,0,0,0,0C6.8,85.9,6.7,86.3,7,86.6z"/>
	<path id="XMLID_265_" class="st3" d="M3.9,56.9c0-0.3,0.1-0.7-0.2-1v0C4,56.2,3.7,56.6,3.9,56.9z"/>
	<path id="XMLID_266_" class="st3" d="M3.9,56.9c-0.2-0.3,0-0.7-0.2-1v0c0,0,0,0,0,0C3.8,56.3,3.6,56.6,3.9,56.9z"/>
	<path id="XMLID_267_" class="st4" d="M4.1,60.8c0.3-0.3,0.3-0.7,0-1v0C4.3,60.1,4.3,60.5,4.1,60.8z"/>
	<path id="XMLID_268_" class="st4" d="M4.1,60.8c0.1-0.3,0.1-0.7,0-1v0l0,0C4.1,60.1,4.1,60.5,4.1,60.8z"/>
	<path id="XMLID_269_" class="st3" d="M5.4,70.8c-0.1-0.3,0.1-0.7-0.2-1C5.4,70.1,5.1,70.5,5.4,70.8z"/>
	<path id="XMLID_270_" class="st3" d="M5.4,70.8c-0.2-0.3,0-0.7-0.2-1c0,0,0,0,0,0C5.2,70.2,5,70.5,5.4,70.8z"/>
	<path id="XMLID_271_" class="st3" d="M3.7,54.9c0-0.3,0.1-0.7-0.2-1v0C3.8,54.2,3.5,54.6,3.7,54.9z"/>
	<path id="XMLID_272_" class="st3" d="M3.7,54.9c-0.2-0.3,0-0.7-0.2-1v0l0,0C3.6,54.2,3.4,54.6,3.7,54.9z"/>
	<path id="XMLID_273_" class="st3" d="M5.2,68.8c0-0.3,0.1-0.7-0.2-1C5.2,68.1,4.9,68.5,5.2,68.8z"/>
	<path id="XMLID_274_" class="st3" d="M5.2,68.8c-0.2-0.3,0-0.7-0.2-1c0,0,0,0,0,0C5,68.1,4.8,68.5,5.2,68.8z"/>
	<path id="XMLID_275_" class="st4" d="M5.8,74.7c0-0.3,0.1-0.7-0.2-1v0C5.8,74,5.5,74.4,5.8,74.7z"/>
	<path id="XMLID_276_" class="st4" d="M5.8,74.7c-0.2-0.3,0-0.7-0.2-1v0l0,0C5.6,74,5.4,74.4,5.8,74.7z"/>
	<path id="XMLID_279_" class="st0" d="M72.8,29.5C72.8,29.5,72.8,29.5,72.8,29.5c-0.9,0.2-1.7,0.3-2.6,0.5
		c-4.7,1.1-8.6,3.4-11.5,7.2c-5.1,6.7-5.8,14.1-2.3,21.7c2.3,5,6.4,8.3,11.6,10.1c1.5,0.5,3,0.7,4.5,1c0.6-0.3,1.2-0.3,1.8,0l0,0
		c0.1,0,0.3,0,0.4,0c0.6,0,1.2-0.3,1.8,0l0,0c0.2-0.1,0.4-0.2,0.6-0.2c5.1-0.7,9.4-3,12.7-6.9c4.1-4.7,5.6-10.3,4.6-16.4
		c-1.3-7.8-5.8-13-13.1-15.9c-1.6-0.6-3.4-0.6-5-1.2C75.3,29.9,74.1,29.9,72.8,29.5z M76.3,37.8c0.6,1.4,1.2,2.8,1.7,4.2
		c0.4,1.2,0.9,2.3,2.4,2.3c0,0,0,0,0,0c0.5-0.3,1.1-0.3,1.6,0c0.6,0,1.1-0.1,1.7,0.2c0,0,0,0,0,0c0.5-0.3,0.9-0.3,1.4,0
		c0.9-0.1,1.8,0.1,2.3,1c0,0,0,0,0,0c0.3,0.3,0.3,0.7,0,1C86.1,48,84.5,49,83,50.2c-1.8,1.5-1.9,1.4-1.3,3.7c0.4,1.4,0.7,2.8,1,4.1
		c0.1,0.4,0.1,0.7,0.1,1.1c-0.1,1.1-1,1.6-2,1c-1.8-1.1-3.7-2.3-5.5-3.5c-0.5-0.3-0.9-0.3-1.4,0c-1.8,1.2-3.6,2.3-5.4,3.4
		c-0.5,0.3-1,0.6-1.5,0.2c-0.5-0.4-0.9-0.9-0.6-1.7c0.5-1.9,0.9-3.8,1.4-5.7c0.3-1,0-1.5-0.8-2.1c-1.4-1-2.7-2.2-4.1-3.4
		c-0.5-0.5-1.2-1-0.9-1.9c0.4-0.9,1.1-1,1.9-1c0.1,0,0.3,0,0.4,0c0,0,0,0,0,0c0.5-0.4,1.1-0.1,1.6-0.2c0.5,0,1.1,0,1.6,0l0,0
		c0.5-0.4,1.1-0.1,1.6-0.2c1,0.2,1.6-0.2,1.9-1.3c0.6-1.8,1.4-3.5,2.2-5.2c0.3-0.6,0.7-1,1.4-1C75.7,36.5,76,37.1,76.3,37.8z"/>
	<path id="XMLID_280_" class="st4" d="M72.8,30c1.2,0,2.4,0.2,3.7,0C75.3,30,74.1,30,72.8,30C72.8,30,72.8,30,72.8,30z"/>
	<path id="XMLID_281_" class="st4" d="M72.8,29.5c1.2,0.3,2.4,0.3,3.7,0C75.3,29.7,74.1,29.7,72.8,29.5z"/>
	<path id="XMLID_282_" class="st4" d="M74.9,70c0.6,0,1.2,0,1.8,0c0,0,0,0,0,0C76.1,69.9,75.5,69.9,74.9,70z"/>
	<path id="XMLID_283_" class="st4" d="M74.9,70c0.6-0.2,1.2-0.2,1.8,0C76.1,69.7,75.5,69.7,74.9,70z"/>
	<path id="XMLID_284_" class="st4" d="M72.6,70c0.6,0,1.2,0,1.8,0c0,0,0,0,0,0C73.8,69.8,73.2,69.9,72.6,70z"/>
	<path id="XMLID_285_" class="st4" d="M72.6,70c0.6-0.2,1.2-0.2,1.8,0C73.8,69.7,73.2,69.7,72.6,70z"/>
	<path id="XMLID_286_" class="st1" d="M73.5,37.6c-0.8,1.7-1.6,3.5-2.2,5.2c-0.4,1-0.9,1.4-1.9,1.3c-0.5,0.4-1.1,0.1-1.6,0.2
		c0,0,0,0,0,0l0,0c-0.5,0-1.1,0-1.6,0c-0.5,0.4-1.1,0.1-1.6,0.2c0,0,0,0,0,0c0,0,0,0,0,0c-0.1,0-0.3,0-0.4,0c-0.8,0-1.6,0.1-1.9,1
		c-0.4,0.9,0.3,1.4,0.9,1.9c1.3,1.2,2.6,2.3,4.1,3.4c0.8,0.6,1.1,1.1,0.8,2.1c-0.5,1.9-0.9,3.8-1.4,5.7c-0.2,0.8,0.1,1.3,0.6,1.7
		c0.5,0.4,1,0.1,1.5-0.2c1.8-1.1,3.6-2.3,5.4-3.4c0.5-0.3,0.9-0.3,1.4,0c1.8,1.2,3.7,2.3,5.5,3.5c0.9,0.6,1.9,0.1,2-1
		c0-0.4,0-0.8-0.1-1.1c-0.3-1.4-0.7-2.8-1-4.1c-0.6-2.3-0.7-2.2,1.1-3.7C84.3,49,86,48,87,46.5c0-0.3,0-0.5,0-1.5c0,0,0.2,0,0.2,0
		h0.1c-0.5,0-1.3-1.1-2.2-1c-0.5,0-0.9,0-1.4,0c0,0,0,0,0,0c0,0,0,0.1,0,0.1C83.1,43.8,82.6,44,82,44c-0.5,0-1,0-2,0
		c0,0,0,0.1,0,0.1v0.1c-1,0-1.8-1.1-2.2-2.2c-0.5-1.4-1-2.8-1.6-4.2c-0.3-0.6-0.6-1.3-1.4-1.2C74.1,36.5,73.7,37,73.5,37.6z"/>
	<path id="XMLID_287_" class="st3" d="M69.3,44.1c-0.5,0.1-1.1-0.2-1.6,0.2C68.2,44,68.8,44.3,69.3,44.1z"/>
	<path id="XMLID_288_" class="st3" d="M69.3,44.1c-0.5,0.3-1.1-0.1-1.6,0.2c0,0,0,0,0,0C68.3,44.2,68.8,44.5,69.3,44.1z"/>
	<path id="XMLID_289_" class="st3" d="M82,44.2c-0.5-0.3-1.1-0.3-1.6,0C80.9,44.1,81.5,44.1,82,44.2z"/>
	<path id="XMLID_290_" class="st3" d="M82,44.2c-0.5-0.1-1.1-0.1-1.6,0c0,0,0,0,0,0C80.9,44.2,81.5,44.2,82,44.2z"/>
	<path id="XMLID_291_" class="st8" d="M66.1,44.3c-0.5,0.1-1.1-0.2-1.6,0.2C65,44.2,65.6,44.5,66.1,44.3z"/>
	<path id="XMLID_292_" class="st8" d="M66.1,44.3c-0.5,0.3-1.1-0.1-1.6,0.2c0,0,0,0,0,0C65,44.4,65.6,44.7,66.1,44.3z"/>
	<path id="XMLID_293_" class="st3" d="M85.1,44.5c-0.5-0.3-0.9-0.3-1.4,0C84.1,44.3,84.6,44.3,85.1,44.5z"/>
	<path id="XMLID_294_" class="st3" d="M85.1,44.5c-0.5-0.1-0.9-0.1-1.4,0c0,0,0,0,0,0C84.1,44.5,84.6,44.5,85.1,44.5z"/>
	<path id="XMLID_295_" class="st2" d="M87.3,46.5c0.3-0.3,0.3-0.7,0-1C87.5,45.8,87.5,46.2,87.3,46.5z"/>
	<path id="XMLID_296_" class="st2" d="M87.3,46.5c0.1-0.3,0.1-0.7,0-1c0,0,0,0,0,0C87.3,45.8,87.3,46.2,87.3,46.5z"/>
</g>
</svg>
