<?xml version="1.0" encoding="utf-8"?>
<!-- Generator: Adobe Illustrator 19.0.0, SVG Export Plug-In . SVG Version: 6.00 Build 0)  -->
<svg version="1.1" id="Layer_1" xmlns="http://www.w3.org/2000/svg" xmlns:xlink="http://www.w3.org/1999/xlink" x="0px" y="0px"
	 width="150px" height="150px" viewBox="0 0 150 150" style="enable-background:new 0 0 150 150;" xml:space="preserve">
<style type="text/css">
	.st0{fill:none;}
	.st1{fill:#E9E6E6;}
	.st2{fill:#FEFEFE;}
	.st3{fill:#DCDADA;}
	.st4{fill:#DCDBDB;}
	.st5{fill:#DEDBDB;}
	.st6{fill:#DDDBDB;}
	.st7{fill:#DBD9D9;}
	.st8{fill:#DDDCDC;}
	.st9{fill:#DAD9D9;}
	.st10{fill:#DBDADA;}
	.st11{fill:#E0DEDE;}
	.st12{fill:#DDDADA;}
	.st13{fill:#DAD8D8;}
	.st14{fill:#DFDDDD;}
	.st15{fill:#DFDCDC;}
</style>
<g id="XMLID_2_">
	<path id="XMLID_4_" class="st0" d="M89.3,27c2.1,0.5,4.2,1.1,6.3,1.8c0.2,0.1,0.3,0.1,0.4,0.1c-0.1,0-0.3,0-0.4-0.1
		C93.5,28.1,91.4,27.5,89.3,27z"/>
	<path id="XMLID_124_" class="st0" d="M64.2,71.3c-0.2-0.4-0.5-0.8-0.7-1.2c-0.8-1.3-0.8-1.3-1.9-0.4c-3.5,2.8-5.8,6.4-7,10.7
		C54.3,81.2,54,82,53,82v0v0c0,0-1,0-1.5,0c0,0-0.1,0-0.1,0c0,0,0.1,0,0.1,0c0.5,0,1,0,1.5,0l0,0c1.1,0,1.3-0.9,1.5-1.7
		c1.2-4.3,3.6-7.9,7-10.7c1.2-1,1.2-1,1.9,0.4C63.8,70.4,64,70.8,64.2,71.3c0.4,0.8,0.7,1.2,0.6,1.6C64.9,72.5,64.7,72.1,64.2,71.3z
		"/>
	<path id="XMLID_125_" class="st0" d="M65.6,26c-3.7,0.5-7.3,1.5-10.8,2.8c-0.2,0.1-0.4,0.1-0.5,0.1c0.1,0,0.3,0,0.5-0.1
		C58.3,27.5,61.9,26.5,65.6,26c1.5-0.2,2.9-0.4,4.4-0.6c0,0,0,0,0,0C68.5,25.6,67.1,25.8,65.6,26z"/>
	<polygon id="XMLID_126_" class="st0" points="127.8,89.1 127.8,89.1 127.8,89.1 	"/>
	<path id="XMLID_127_" class="st0" d="M59.2,82L59.2,82c0.1,0.2,0.2,0.3,0.2,0.5C59.4,82.4,59.3,82.2,59.2,82z"/>
	<path id="XMLID_128_" class="st0" d="M22.4,90.8c0-0.1,0-0.2,0-0.3c-0.2,0.3-0.1,0.6,0.1,0.9c0,0,0,0,0,0
		C22.4,91.2,22.4,91,22.4,90.8z"/>
	<path id="XMLID_129_" class="st0" d="M61.2,56.8c0,0,0.1,0.1,0.1,0.1C61.2,56.9,61.2,56.8,61.2,56.8z"/>
	<path id="XMLID_130_" class="st0" d="M71,22.5c0-0.1,0-0.1,0-0.2c-2-0.9-3.7-2.1-4.8-4.1C67.3,20.2,69,21.6,71,22.5z"/>
	<path id="XMLID_131_" class="st0" d="M42.1,78.4c0,0.2-0.1,0.3-0.2,0.5c0,0,0,0,0,0C42,78.7,42.1,78.6,42.1,78.4z"/>
	<path id="XMLID_132_" class="st0" d="M45.1,69.6c3.1-5.7,7.5-10.2,13.1-13.4C58.4,56,59,56,59,56v0v0c0,0,0.6,0,1,0
		c0,0,0.1,0,0.1,0c0,0-0.1,0-0.1,0c-0.4,0-0.8,0-1.2,0l0,0c0,0,0,0,0,0c-0.2,0-0.5,0-0.7,0.2C52.5,59.4,48.2,63.9,45.1,69.6
		c-1.4,2.6-2.3,5.5-3.3,8.3c0,0,0,0,0,0C42.8,75.1,43.7,72.2,45.1,69.6z"/>
	<path id="XMLID_133_" class="st0" d="M35.7,38.7c0.2,0.3,0.2,0.5,0.2,0.7C36,39.2,35.9,39,35.7,38.7c-1-1.8-2.3-3.4-2.8-5.5
		c0,0,0,0,0,0C33.4,35.3,34.7,36.9,35.7,38.7z"/>
	<path id="XMLID_134_" class="st0" d="M71,25.3C71,25.2,71,25.2,71,25.3l0-0.3c0,0,0,0,0,0c0-0.1,0.1-0.2,0.1-0.4c0-0.3,0-0.6,0-0.9
		c0,0.4,0,0.8-0.1,1.2c0,0,0,0,0,0c0,0.1,0,0.3,0,0.4c0,0,0,0,0,0C71,25.4,71,25.3,71,25.3z"/>
	<path id="XMLID_135_" class="st0" d="M64.8,14c0.2-0.3,0.2-0.7,0.2-1C65,13.3,64.9,13.7,64.8,14C64.8,14,64.8,14,64.8,14z"/>
	<path id="XMLID_136_" class="st0" d="M71.2,23.8c0-0.4,0-0.8-0.2-1.3c0,0.1,0,0.3,0,0.4C71.1,23.2,71.2,23.5,71.2,23.8z"/>
	<path id="XMLID_137_" class="st0" d="M72.1,75.9c-3.6-6.2-7.1-12.4-10.7-18.7c0-0.1-0.1-0.1-0.1-0.2c0,0.1,0.1,0.1,0.1,0.2
		C65,63.4,68.6,69.6,72.1,75.9z"/>
	<path id="XMLID_138_" class="st0" d="M50.2,80.4c0-0.2,0-0.4,0.1-0.5C50.2,80.1,50.2,80.2,50.2,80.4z"/>
	<path id="XMLID_139_" class="st0" d="M71,25.4L71,25.4C71,25.4,71,25.4,71,25.4L71,25.4C71,25.4,71,25.4,71,25.4
		c-0.2,0.1-0.3,0.2-0.5,0.2C70.8,25.6,71,25.6,71,25.4L71,25.4C71,25.3,71,25.4,71,25.4C71,25.4,71,25.4,71,25.4z"/>
	<path id="XMLID_140_" class="st0" d="M22,88.4c0-1,0-2.1,0-3.1C22,86.4,22,87.4,22,88.4z"/>
	<path id="XMLID_141_" class="st0" d="M33.2,32.2c0-0.3,0-0.5,0-0.8C33.1,31.7,33.2,32,33.2,32.2z"/>
	<path id="XMLID_142_" class="st0" d="M72.4,139.3c0.2,0,0.4,0,0.5,0C72.8,139.3,72.6,139.3,72.4,139.3z"/>
	<path id="XMLID_143_" class="st0" d="M22.6,81.9C22.6,81.9,22.6,81.9,22.6,81.9c0,0,0.2-0.1,0.2-0.1c-0.3-0.3-0.8-0.7,0.2-1
		c0,0,0,0,0,0c0-4.9,1.6-9.7,3.5-14.3c2.1-5.1,4.8-9.6,8.3-13.9c3.3-4,7-7.3,11.2-10.1c4.8-3.2,10.1-5.6,15.7-7.1
		c3-0.8,6.3-1.3,9.3-1.6v0c0,0,0,0.1,0,0.1s0.7,0,1,0c2.1,0,4-0.4,6-0.1v-0.1c0,0,0.1,0,0.1,0c0,0,0.1,0,0.1,0
		c0.1-0.1,0.2-0.1,0.3-0.2c-0.1,0-0.2,0.1-0.3,0.2l0,0.1C76.1,33.6,74.1,34,72,34l0,0c-0.3,0-0.7,0-1,0c0,0,0-0.1,0-0.1
		c0.2-0.1,0.3-0.2,0.5-0.2c-0.2,0-0.3,0.1-0.5,0.2c0,0,0,0,0,0c-3.1,0.3-6.3,0.8-9.3,1.6c-5.6,1.5-10.9,3.9-15.7,7.1
		c-4.2,2.8-8,6.2-11.3,10.1c-3.5,4.2-6.3,8.8-8.4,13.9c-1.9,4.6-3.1,9.5-3.7,14.4C22.3,81.2,22.3,81,22.6,81.9L22.6,81.9L22.6,81.9
		L22.6,81.9C22.6,82,22.6,81.9,22.6,81.9z"/>
	<path id="XMLID_144_" class="st0" d="M60.6,84.5c-0.7-0.3-1.2-0.7-1.4-1.5l0,0C59.5,83.8,59.9,84.2,60.6,84.5
		c0.2-0.2,0.4-0.2,0.6-0.2C61,84.3,60.8,84.4,60.6,84.5z"/>
	<path id="XMLID_145_" class="st0" d="M65,11.2c-0.1,0.3-0.1,0.5-0.2,0.8c0,0,0,0,0,0c0,0,0,0,0,0C64.8,11.7,64.9,11.5,65,11.2
		c0.5-2.4,1.7-4.4,3.6-6c0.4-0.3,0.8-0.6,1.3-0.9c-0.4,0.3-0.9,0.5-1.3,0.9C66.6,6.7,65.5,8.7,65,11.2z"/>
	<path id="XMLID_146_" class="st0" d="M128,87.2c0-0.4,0-0.7,0-1.1C128,86.5,128,86.8,128,87.2z"/>
	<path id="XMLID_147_" class="st1" d="M69.6,147.6C69.6,147.6,69.6,147.6,69.6,147.6c0,0-0.1,0-0.3,0
		C69.4,147.5,69.5,147.6,69.6,147.6z"/>
	<polygon id="XMLID_148_" class="st1" points="71,25.4 71,25.4 71,25.4 	"/>
	<path id="XMLID_151_" class="st1" d="M84,147.2c5-0.6,9.8-2.1,14.4-4c5.8-2.3,11-5.6,15.8-9.6c5.6-4.7,10.3-10.2,14-16.6
		c3.1-5.5,5.4-11.4,6.7-17.6c0.4-2,0.7-4,0.9-6.1c0-0.3,0.2-0.5,0.2-0.8c0,0,0,0,0,0c0-0.3-0.4-0.7-0.1-1c0.1-0.4,0.1-0.9,0.1-1.2
		c0-0.1,0-0.3,0-0.4c0-1.8,0-3.6,0-5.4c0-0.1,0-0.3,0-0.4c0-0.5,0-1.1-0.1-1.7c-0.3-0.4-0.2-0.8,0.1-1.2c-0.3-1.8-0.4-3.7-0.8-5.5
		c-1.7-8.9-5.1-17.1-10.4-24.5c-2.4-3.4-5.2-6.5-8.2-9.4c-0.5-0.5-0.9-0.9-1.5-1.3c-1-0.6-0.8-1.3-0.3-2.1c0.8-1.4,1.9-2.8,2.3-4.5
		c0.7-2.8-0.4-5.4-2.9-6.9c-2.2-1.3-4.4-2.6-6.6-3.9c-1-0.6-2.1-0.9-3.2-1c-2.4-0.1-4.7,1.2-6,3.5c-0.5,0.9-1.1,1.8-1.6,2.8
		c-0.2,0.5-0.5,0.6-0.9,0.6c-0.1,0-0.3,0-0.4-0.1c-2.1-0.7-4.2-1.3-6.3-1.8c-0.7-0.2-1.4-0.3-2.1-0.4c-2.4-0.4-4.9-0.8-7.4-1.1
		c-0.4-0.1-0.5-0.1-0.5-0.5c0-1.4,0-2.5,1.5-3.5c3.6-2.2,5.2-5.7,4.6-9.9c-0.7-4.4-3.3-7.2-7.6-8.5C77.5,3.1,77.3,3,77.2,3
		c-1.2,0-2.5,0-3.7,0c-0.2,0-0.4,0-0.6,0c-1.1,0.3-2.1,0.7-3,1.2c-0.4,0.3-0.9,0.6-1.3,0.9c-1.9,1.6-3.1,3.6-3.6,6
		c-0.1,0.3-0.1,0.5-0.2,0.8c0.2,0.3,0.2,0.7,0.2,1c0,0.3-0.1,0.7-0.2,1c0.3,1.4,0.6,2.8,1.3,4.1c0,0.1,0.1,0.1,0.1,0.2
		c1.1,1.9,2.8,3.1,4.8,4.1c0-0.1,0-0.1,0-0.2c0,0.1,0,0.3,0,0.4c0.1,0.5,0.2,0.9,0.2,1.3c0,0.5-0.1,0.8-0.2,1.3l0-0.1h0
		c0,0,0,0.4,0,0.4l0,0c0,0.2-0.2,0.2-0.5,0.2c-0.2,0-0.4-0.1-0.5-0.2c-1.4,0.2-2.9,0.4-4.3,0.6c-3.7,0.5-7.3,1.5-10.8,2.8
		c-0.2,0.1-0.4,0.1-0.5,0.1c-0.4,0-0.6-0.2-0.9-0.7c-0.7-1.3-1.4-2.5-2.2-3.7C50.2,23,49,22.2,47,22v0c-1,0-1.2,0-1.9,0
		c-1.6,0-2.8,1.2-4.1,1.9c-1.7,0.9-3.4,1.9-5.1,2.9c-1.7,1-3,2.4-3,4.3c0,0,0,0,0,0c0,0,0,0,0,0c0,0.1,0.1,0.2,0.1,0.3
		c0,0.3,0.1,0.5,0.1,0.8c0,0.3,0,0.7-0.2,1c0.5,2.1,1.8,3.7,2.8,5.5c0.2,0.3,0.2,0.5,0.2,0.7c0,0.2-0.1,0.4-0.4,0.6
		c-4.6,3.9-8.6,8.4-11.8,13.5c-4.4,6.8-7.4,14.2-8.8,22.3C14.6,77.5,14,79.2,14,81c0-0.5,0-1,0-1.5c0,0.5,0,1,0,1.5
		c0,0.1,0,0.1,0,0.2c0,0.4,0,0.8,0,1.2c0,2.5,0,5,0,7.4c0,0.3,0,0.7,0,1c0,0.1,0,0.3,0,0.4c0,0.2,0,0.3,0,0.5c0-0.2,0-0.4,0-0.5
		c0,0.3,0.2,0.7,0.3,1c0.3,0.3,0.2,0.7,0.2,1c0.1,3.3,0.9,6.5,1.8,9.7c1.8,6.5,4.7,12.5,8.5,18.1c2.6,3.9,5.7,7.3,9.1,10.5
		c3.8,3.4,7.9,6.3,12.4,8.8c5.3,2.8,10.8,4.8,16.7,6c2.2,0.4,4.4,1,6.6,1.1c0.2,0,0.4-0.6,0.6,0.4c0,0-0.1,0-0.1,0
		c0,0,0.1-0.2,0.1,0c0.1,0,0.3,0,0.4,0c0.1-0.2,0.2-0.4,0.3-0.6c-0.1,0-0.2,0.1-0.3,0.1c0.1-0.1,0.2-0.2,0.3-0.2
		c0.1-0.1,0.2-0.1,0.4,0c0.1,0,0.2,0.1,0.3,0.2c-0.1,0-0.2-0.1-0.3-0.1c0.1,0.1,0.2,0.3,0.3,0.6c2.3,0,4.7,0,7,0
		c0.1-0.2,0.2-0.4,0.3-0.6c-0.1,0-0.2,0.1-0.3,0.1c0.1-0.1,0.3-0.2,0.4-0.2c0.1-0.1,0.3-0.1,0.4,0c0.1,0,0.3,0.1,0.4,0.2
		c-0.1,0-0.2-0.1-0.3-0.1c0.1,0.1,0.2,0.3,0.3,0.6c0.1,0,0.1,0,0.2,0c0.3-0.2,0.5,0,0.8,0c-0.3,0-0.5,0-0.8,0
		C81.4,147,82.7,147.3,84,147.2z M14.1,90.9c0.2-0.3,0.2-0.7,0-1C14.4,90.2,14.4,90.6,14.1,90.9z M14.1,82.4c0.2-0.4,0.2-0.8,0-1.2
		C14.4,81.6,14.4,82,14.1,82.4z M100.5,30.5c1.1-1.4,1.5-3.3,3.2-4.3c0,0,0.1,0,0.1,0c0.3-0.3,0.7-0.3,1,0c2.4,1.4,4.8,2.8,7.3,4.2
		c0.5,0.3,0.8,0.7,1,1.2c0,0,0,0,0,0c0.3,0.3,0.3,0.7,0,1c-0.5,1.4-1.5,2.5-2.1,3.7c-0.2,0.4-0.4,0.2-0.6,0.1
		c-3-2.1-6.2-3.9-9.5-5.5C100.7,30.8,100.3,30.8,100.5,30.5z M71,17.5c-0.8-0.9-1.4-1.9-1.7-3.1c0,0,0,0,0,0c-0.3-0.8-0.3-1.5,0-2.3
		c1.1-3.8,4.2-5.7,7.7-4.7c4,1.1,5.7,6.4,3,9.6c-0.1,0.2-0.2,0.3-0.5,0.4c-0.1-0.9-0.3-1.9-0.9-2.6c-0.6-0.7-1.4-1.4-2.4-1.3
		c-0.5-0.1-1,0.2-1.4-0.2c-1.7,0.4-3,1.2-3.3,3.1c0,0.4,0,0.7,0,1.1C71.3,17.7,71.2,17.7,71,17.5z M38.1,30.5
		c2.4-1.5,4.8-2.8,7.3-4.2c0.7-0.4,1.8,0,2.3,0.8c0.7,1,1.3,2.1,1.9,3.2c0.2,0.3,0.3,0.6-0.2,0.8c-3.5,1.4-6.6,3.5-9.7,5.6
		c-0.1,0.1-0.2,0.1-0.3,0.1c-0.7-1.2-1.4-2.3-2-3.5C36.8,32.1,36.9,31.3,38.1,30.5z M85.1,138.4c-1.7,0.3-3.4,0.6-5.1,0.7
		c-0.4,0.3-0.8,0.3-1.2,0c-0.6,0.3-1.3,0.1-1.9,0.2c0,0,0,0,0,0c-1.2,0.3-2.3,0.3-3.5,0c0,0,0,0,0,0c-0.2,0-0.3,0-0.5,0
		c-0.2,0-0.4,0-0.5,0c-0.4,0-0.7,0-1-0.2c-0.4,0.3-0.8,0.3-1.2,0c0,0,0,0,0,0c-3-0.1-5.8-0.8-8.6-1.6c-5.9-1.6-11.4-4.1-16.4-7.6
		c-6.6-4.6-11.9-10.4-15.9-17.4c-3.3-5.8-5.4-11.8-6.4-18.4c-0.1-0.8-0.2-2.1-0.2-2.1h0c0,0,0,0,0,0c0-1,0-0.3,0-0.4
		c-0.2-0.3-0.3-0.7-0.1-1C22.1,90,22,89.2,22,88.5c0,0,0,0,0,0c0,0,0,0,0,0c0,0,0,0,0,0c0-1,0-2.1,0-3.1c0-0.7,0-1.4,0-2
		c0-0.5,0.3-1.3,0.4-1.3h0.1h0h0c-0.3-1-0.3-0.8,0-1.1c0.6-4.9,1.8-9.7,3.7-14.3c2.1-5.1,4.9-9.7,8.4-13.9c3.3-4,7.1-7.3,11.3-10.1
		c4.8-3.2,10.1-5.6,15.7-7.1c3-0.8,6.3-1.3,9.3-1.6v0c0-0.1,0.3-0.2,0.5-0.2c0.2,0,0.3,0.1,0.5,0.3c2.1-0.3,4.1,0.1,6.2,0.1h0
		c0.1,0,0.2-0.1,0.3-0.2c0.3-0.1,0.6,0.2,0.9,0.2c0,0,0,0,0,0c5.3,0,10.5,1.6,15.4,3.6c5.2,2.1,9.9,4.9,14.2,8.5
		c5.3,4.4,9.5,9.7,12.7,15.8c2.4,4.5,4.1,9.2,5.1,14.2c0.5,2.3,0.8,5,1,7h0.1c0,0,0,0.5,0,0.6c0,0.2,0,0.5,0,0.7c0,0.2,0,0.4,0,0.6
		c0,0.4,0,0.8,0,1.2c0,0.4,0,0.7,0,1c0,0.6,0,0.9-0.1,1.9h0.1c0,0,0,0,0,0c0,0.4,0.2,0.8-0.1,1.2c-0.3,5-1.5,9.9-3.2,14.6
		c-1.7,4.7-4.1,9.1-7.2,13.1c-4.9,6.5-10.9,11.7-18.1,15.4"/>
	<path id="XMLID_157_" class="st1" d="M71,25l0,0.2c0,0,0,0,0,0.1c0-0.2,0.1-0.4,0.1-0.6C71,24.8,71,24.9,71,25C71,25,71,25,71,25z"
		/>
	<path id="XMLID_159_" class="st2" d="M80.8,21.5c-1.6,1-1.6,2.1-1.5,3.5c0,0.4,0.1,0.4,0.5,0.5c2.5,0.3,4.9,0.7,7.4,1.1
		c0.7,0.1,1.4,0.3,2.1,0.4c2.1,0.5,4.2,1.1,6.3,1.8c0.2,0.1,0.3,0.1,0.4,0.1c0.4,0,0.7-0.1,0.9-0.6c0.5-1,1.1-1.8,1.6-2.8
		c1.2-2.3,3.6-3.6,6-3.5c1.1,0,2.2,0.3,3.2,1c2.2,1.3,4.4,2.6,6.6,3.9c2.5,1.4,3.6,4.1,2.9,6.9c-0.4,1.7-1.4,3-2.3,4.5
		c-0.5,0.9-0.7,1.5,0.3,2.1c0.5,0.3,1,0.8,1.5,1.3c3,2.9,5.7,6,8.2,9.4c5.3,7.4,8.7,15.6,10.4,24.5c0.3,1.8,0.5,3.6,0.8,5.5
		c0,0.4,0,0.8,0,1.2c0,0,0,0,0,0c0.1,0.6-0.2,1.2,0.2,1.7c-0.2-0.5,0-1-0.1-1.6c-0.1-0.5-0.1-0.9,0-1.4c-0.1-1.8-0.2-3.5-0.5-5.2
		c-1.9-10.5-6.2-19.9-13-28.1c-2.1-2.5-4.3-4.9-6.8-7c-1.3-1.1-1.3-1.1-0.4-2.6c0.5-0.9,1.1-1.8,1.6-2.8c1.4-3,0.5-6.6-2.4-8.4
		c-2.3-1.5-4.7-2.9-7.1-4.2c-3.4-1.9-7.3-0.7-9.2,2.7c-0.4,0.8-1,1.5-1.3,2.3c-0.4,0.9-1,1-1.8,0.7c-3.3-1.1-6.7-2-10.2-2.4
		c-1.5-0.2-2.9-0.5-4.4-0.7c-0.7-0.1-0.9-0.4-0.9-1.1c-0.1-1.1,0.4-1.7,1.3-2.2c3.7-2.4,5.6-6.6,4.8-10.6c-0.9-4.6-3.9-7.6-8.5-8.4
		c0.1,0.2,0.4,0.2,0.6,0.2c4.3,1.2,7,4.2,7.6,8.5C86,15.8,84.4,19.3,80.8,21.5z"/>
	<path id="XMLID_160_" class="st2" d="M98.5,25.6c-0.5,0.9-1.1,1.8-1.6,2.8c-0.2,0.5-0.5,0.6-0.9,0.6c0.4,0,0.7-0.1,0.9-0.6
		C97.4,27.4,98,26.5,98.5,25.6c1.2-2.3,3.6-3.6,6-3.5C102,22,99.7,23.2,98.5,25.6z"/>
	<path id="XMLID_162_" class="st2" d="M14.3,78.1C14.2,78.6,14,79,14,79.5c0,0.5,0,1,0,1.5C14,80,14.2,79.1,14.3,78.1z"/>
	
		<rect id="XMLID_163_" x="71" y="25.4" transform="matrix(-0.6718 0.7407 -0.7407 -0.6718 137.4569 -10.1069)" class="st2" width="0" height="0"/>
	<path id="XMLID_164_" class="st2" d="M64.6,12c0.1,0.7,0.1,1.4,0,2c0,1.9,0.8,3.6,1.8,5.2c1.1,1.6,2.6,2.5,4.2,3.5
		c0.5,0.7,0.2,1.4,0.2,2.2c0,0.1-0.1,0.1-0.1,0.2c-0.3,0.3-0.7,0-1,0c-0.7,0-1.4,0.1-2.1,0.1c-4.3,0.5-8.5,1.5-12.5,3
		c-0.8,0.3-1.2,0.1-1.6-0.6c-0.6-1-1.1-2.1-1.7-3c-1.1-1.8-2.7-2.8-4.8-2.9c-0.6,0-1.1,0-1.7,0c-0.6,0-1.2,0.1-1.7,0.4
		c-2.8,1.5-5.5,3.1-8.2,4.8c-1.5,1-2.5,2.5-2.6,4.3c0,0.6,0.1,1.3-0.1,1.9c0,0.7,0.2,1.3,0.5,1.9c0.6,1.2,1.3,2.3,2,3.5
		c0.4,0.6,0.2,1-0.3,1.5c-2.5,2.1-4.8,4.5-6.9,7.1C21.5,55,17.2,63.9,15,73.9c-0.3,1.4-0.5,2.8-0.6,4.3c0.2-0.8,0.4-1.6,0.5-2.4
		c1.4-8,4.4-15.4,8.8-22.3c3.3-5.1,7.2-9.6,11.8-13.5c0.2-0.2,0.4-0.4,0.4-0.6c0-0.2,0-0.4-0.2-0.7c-1-1.8-2.7-3.4-2.7-5.5
		c0,0,0-0.2,0-0.2h0h-0.1c0.1,0,0.1-1.2,0.1-1.8c0,0,0,0,0,0c0,0,0,0,0,0c0,0,0,0,0,0c0-2,1.3-3.4,3-4.3c1.7-1,3.3-2,5-2.9
		c1.3-0.7,2.5-1.9,4.1-1.9c0.1,0,0.2,0,0.2,0c0.5-0.2,0.9-0.2,1.4,0c0.1,0,0.2,0,0.2,0v0v0c2,0.1,3.2,0.9,4.2,2.4
		c0.8,1.2,1.5,2.5,2.2,3.7c0.3,0.5,0.5,0.7,0.9,0.7c0.1,0,0.3,0,0.5-0.1c3.5-1.3,7.1-2.3,10.8-2.8c1.5-0.2,2.9-0.4,4.4-0.6
		c0.3,0,1,0,1,0c0-0.1,0-0.3,0-0.4c0,0,0,0,0,0c0-0.9,0-1.7,0-2.5c-2-0.9-3.7-2.3-4.8-4.2c0-0.1,0-0.1,0-0.2
		C65.4,16.8,65,15.4,65,14c0,0,0,0,0,0c0,0,0,0,0,0c0-0.7-0.1-1-0.1-2c0,0-0.1,0-0.1,0h0c0.1,0,0.1-0.5,0.2-0.8
		c0.5-2.4,1.6-4.5,3.6-6.1c0.4-0.3,0.8-0.6,1.3-0.9c0.9-0.6,1.9-1.1,3-1.2C73,3,73.2,2.9,73.5,2.9c-0.8,0.2-1.6,0.1-2.3,0.4
		C67.3,4.9,65.1,7.8,64.6,12z"/>
	<path id="XMLID_165_" class="st2" d="M45.1,22c-1.6,0-2.8,1.2-4.1,1.9c-1.7,0.9-3.4,1.9-5.1,2.9c-1.7,1-3,2.4-3,4.3c0,0,0,0,0,0
		c0,0,0,0,0,0c0,0,0,0,0,0c0,0,0.1,0,0.1,0c0,0,0,0,0,0c0.2-2,1.3-3.4,2.9-4.3c1.7-1,3.3-2,5-2.9C42.4,23.2,43.5,22.2,45.1,22
		c0.1,0.1,0.2,0,0.2,0C45.3,22,45.2,22,45.1,22z"/>
	<path id="XMLID_166_" class="st2" d="M23.7,53.5c-4.4,6.8-7.4,14.2-8.8,22.3c-0.1,0.8-0.3,1.6-0.5,2.4c-0.1,1-0.2,1.9-0.3,2.9
		c0.3-1.7,0.5-3.5,0.8-5.2C16.4,67.8,19.3,60.3,23.7,53.5c3.3-5.1,7.2-9.6,11.8-13.5c0.2-0.2,0.4-0.4,0.4-0.6c0,0.2-0.1,0.4-0.4,0.6
		C30.9,43.9,27,48.4,23.7,53.5z"/>
	<polygon id="XMLID_167_" class="st2" points="33,33.2 33,33.2 33,33.2 	"/>
	<path id="XMLID_168_" class="st2" d="M72.8,3c-1.1,0.1-2.1,0.6-3,1.2C70.8,3.7,71.8,3.3,72.8,3z"/>
	<path id="XMLID_169_" class="st2" d="M53.4,28.2c-0.7-1.3-1.4-2.5-2.2-3.7c-1-1.5-2.2-2.3-4.2-2.4v0v0c0,0-0.2,0-0.2,0
		c0.1,0,0.2,0.1,0.2,0.1c0,0,0,0,0,0h0c1.8,0.1,3.2,0.9,4.2,2.4C52,25.7,52.7,27,53.4,28.2c0.3,0.5,0.5,0.7,0.9,0.7
		C53.8,28.9,53.6,28.7,53.4,28.2z"/>
	<path id="XMLID_170_" class="st2" d="M66.2,18.1c0,0.1,0,0.1,0.1,0.2C66.2,18.2,66.2,18.1,66.2,18.1C65.5,16.8,65,15.4,65,14
		c0,0,0,0,0,0C65,15.4,65.4,16.8,66.2,18.1z"/>
	<path id="XMLID_172_" class="st2" d="M80.1,147.5c0.3,0,0.5,0,0.8,0c0.1,0,0.2-0.1,0.3-0.1C80.8,147.5,80.4,147.5,80.1,147.5z"/>
	<path id="XMLID_173_" class="st2" d="M135.9,93.1c-0.2,2-0.5,4.1-0.9,6.1c-1.3,6.2-3.6,12.1-6.7,17.6c-3.6,6.4-8.3,11.9-14,16.6
		c-4.8,4-10,7.2-15.8,9.5c-4.7,1.9-9.5,3.5-14.4,4.1c-0.9,0.1-1.9,0-2.8,0.3c1.2-0.1,2.5-0.1,3.7-0.3c5.9-0.9,11.6-2.7,17-5.3
		c6.7-3.3,12.7-7.7,17.9-13.1c5.1-5.3,9-11.4,11.9-18.1c2.5-5.8,4.2-11.8,4.5-18.1c-0.1-0.4-0.1-0.8,0-1.2c0.1-0.4-0.1-0.8,0.1-1.2
		c-0.4,0.4-0.1,0.8-0.2,1.2c0,0.3,0,0.7,0,1c0,0,0,0,0,0c0,0,0,0,0,0C136,92.6,135.9,92.9,135.9,93.1z"/>
	<path id="XMLID_174_" class="st2" d="M98.4,143c-4.7,1.9-9.5,3.3-14.4,3.9c-1.3,0.2-2.6,0.4-3.9,0.6c0.4,0,0.7-0.1,1.1-0.1
		c0.9-0.3,1.9-0.2,2.8-0.3C89,146.5,93.8,144.9,98.4,143z"/>
	<path id="XMLID_176_" class="st2" d="M69.8,147.5c0,0-0.1,0.1-0.1,0.1c0.1,0,0.2,0,0.4,0c0,0,0,0,0,0
		C69.9,147.5,69.9,147.5,69.8,147.5z"/>
	<path id="XMLID_177_" class="st2" d="M14.1,91.3c0,0.2,0,0.4,0,0.5c0,0.1,0.1,0.3,0.1,0.4C14.2,91.9,14.3,91.6,14.1,91.3z"/>
	<path id="XMLID_178_" class="st2" d="M70,147.5C70,147.5,70,147.5,70,147.5c0,0,0.1,0,0.1,0C70.1,147.5,70.1,147.5,70,147.5z"/>
	<path id="XMLID_179_" class="st2" d="M67.9,147.4c-0.2,0-0.3,0.2-0.5,0.2c0.6,0.1,1.3,0.5,1.9,0.5c0.1,0,0.2,0,0.3,0
		c0,0,0.1-0.3,0.1-0.3C69.2,147.6,68.5,147.4,67.9,147.4z"/>
	<path id="XMLID_180_" class="st2" d="M14.3,92.4c0,0,0-0.1,0-0.1C14.3,92.3,14.3,92.3,14.3,92.4c0,0.1,0.1,0.3,0.1,0.5
		C14.3,92.7,14.3,92.6,14.3,92.4C14.3,92.4,14.3,92.4,14.3,92.4z"/>
	<path id="XMLID_181_" class="st2" d="M14.3,92.3c0,0,0,0.1,0,0.1c0,0,0,0.1,0.1,0.1c0,0,0-0.1,0-0.1l0,0c-0.1-0.4,0.1-0.7-0.2-1
		C14.3,91.6,14.2,91.9,14.3,92.3z"/>
	<path id="XMLID_182_" class="st2" d="M46.3,140.4c-4.5-2.4-8.6-5.3-12.4-8.8c-3.4-3.1-6.5-6.6-9.1-10.5c-3.8-5.6-6.7-11.6-8.5-18.1
		c-0.9-3.2-1.7-6.4-1.8-9.7c0,0,0,0,0-0.1c-0.1-0.1-0.2-0.3-0.2-0.4c0,0.2,0,0.3,0,0.5c0,1.1,0,2.2,0.2,3.3c1.2,7,3.5,13.5,6.9,19.7
		c2.3,4.2,5.1,8.1,8.4,11.6c5.8,6.3,12.7,11.3,20.6,14.7c5.4,2.4,11,4.1,17,4.5c-1.5-0.2-3-0.6-4.4-0.9
		C57.1,145.2,51.6,143.2,46.3,140.4z"/>
	<path id="XMLID_183_" class="st2" d="M69.8,147.5c0.1,0,0.2,0,0.2,0.1C70,147.4,69.9,147.4,69.8,147.5z"/>
	<path id="XMLID_184_" class="st2" d="M14.5,93.4c0.1,3.3,0.9,6.5,1.8,9.7c1.8,6.5,4.7,12.5,8.5,18.1c2.6,3.9,5.7,7.3,9.1,10.5
		c3.8,3.4,7.9,6.3,12.4,8.8c5.3,2.8,10.8,4.8,16.7,6c1.5,0.3,2.9,0.7,4.4,0.9c0.2,0,0.3,0,0.5,0c0.6,0,1.3,0,1.9,0.1
		c0.1-0.1,0.2-0.1,0.2,0.1c0,0,0.1,0,0.1,0c-0.1-0.2-0.3-0.2-0.6-0.2c-2.2-0.1-4.4-0.5-6.6-0.9c-5.8-1.2-11.4-3.2-16.7-6
		c-4.5-2.4-8.6-5.3-12.4-8.8c-3.4-3.1-6.5-6.6-9.1-10.5c-3.8-5.6-6.7-11.6-8.5-18.1C15.4,99.9,14.7,96.7,14.5,93.4
		C14.5,93.4,14.5,93.4,14.5,93.4C14.5,93.4,14.5,93.4,14.5,93.4z"/>
	<path id="XMLID_185_" class="st3" d="M136.3,89.7c-0.2-1.8-0.2-3.6,0-5.4C135.9,86.1,135.9,87.9,136.3,89.7z"/>
	<path id="XMLID_186_" class="st4" d="M14.1,82.4c0.3-0.4,0.3-0.8,0-1.2C14.3,81.6,14.3,82,14.1,82.4z"/>
	<path id="XMLID_187_" class="st5" d="M79.4,147.3c-0.1-0.1-0.3-0.1-0.4,0C79.2,147.3,79.3,147.3,79.4,147.3z"/>
	<path id="XMLID_188_" class="st5" d="M78.9,147.4c-0.1,0.1-0.2,0.3-0.3,0.6c0.4,0,0.8,0,1.2,0c-0.1-0.2-0.2-0.4-0.3-0.6
		C79.3,147.4,79.1,147.4,78.9,147.4z"/>
	<path id="XMLID_189_" class="st5" d="M79,147.3c-0.1,0-0.3,0.1-0.4,0.2c0.1,0,0.2-0.1,0.3-0.1C79,147.4,79,147.4,79,147.3z"/>
	<path id="XMLID_190_" class="st5" d="M79.6,147.4c0.1,0,0.2,0.1,0.3,0.1c-0.1-0.1-0.3-0.2-0.4-0.2
		C79.5,147.4,79.5,147.4,79.6,147.4z"/>
	<path id="XMLID_191_" class="st5" d="M79.6,147.4c0,0-0.1-0.1-0.1-0.1c-0.1,0-0.3,0-0.4,0c0,0-0.1,0.1-0.1,0.1
		C79.1,147.4,79.3,147.4,79.6,147.4z"/>
	<path id="XMLID_192_" class="st3" d="M14.1,90.9c0.3-0.3,0.3-0.7,0-1C14.3,90.2,14.3,90.6,14.1,90.9z"/>
	<path id="XMLID_193_" class="st6" d="M70.8,147.4c-0.1,0.1-0.2,0.3-0.3,0.6c0.3,0,0.7,0,1,0c-0.1-0.2-0.2-0.4-0.3-0.6
		C71.2,147.4,71,147.4,70.8,147.4z"/>
	<path id="XMLID_194_" class="st6" d="M71.3,147.4c-0.1-0.1-0.2-0.1-0.4,0C71,147.3,71.1,147.3,71.3,147.4z"/>
	<path id="XMLID_195_" class="st6" d="M71.6,147.5c-0.1-0.1-0.2-0.1-0.3-0.2c0,0,0.1,0.1,0.1,0.1C71.4,147.5,71.5,147.5,71.6,147.5z
		"/>
	<path id="XMLID_196_" class="st6" d="M70.6,147.5c0.1,0,0.2-0.1,0.3-0.1c0,0,0.1-0.1,0.1-0.1C70.8,147.4,70.7,147.4,70.6,147.5z"/>
	<path id="XMLID_197_" class="st6" d="M71.3,147.4C71.3,147.4,71.3,147.4,71.3,147.4c-0.2-0.1-0.3-0.1-0.4-0.1c0,0-0.1,0.1-0.1,0.1
		C71,147.4,71.2,147.4,71.3,147.4z"/>
	<path id="XMLID_198_" class="st2" d="M22.5,91.3C22.5,91.4,22.5,91.4,22.5,91.3c0,0.1,0.1,0.1,0.1,0.2
		C22.6,91.5,22.5,91.4,22.5,91.3z"/>
	<path id="XMLID_207_" class="st2" d="M128,86.1c0-0.4,0-0.8,0-1.2c0-0.2,0-0.4,0-0.6c0,0.2-0.1,0.4-0.2,0.6
		C127.9,85.3,128,85.7,128,86.1z"/>
	<path id="XMLID_208_" class="st2" d="M22.5,82L22.5,82c-0.2,0-0.5,0.8-0.5,1.3c0,0.7,0,1.4,0,2c0-0.7,0.1-1.3,0.2-1.9
		C22.2,82.9,22.4,82,22.5,82z"/>
	<path id="XMLID_209_" class="st2" d="M72.9,139.3c0.2,0,0.4,0,0.5,0c0,0,0,0,0,0l0,0C73.3,139.3,73.1,139.3,72.9,139.3z"/>
	<path id="XMLID_210_" class="st2" d="M127.9,89.1c0.1-0.6,0.1-1.3,0.1-1.9C128,87.8,127.9,88.4,127.9,89.1
		C127.8,89.1,127.9,89.1,127.9,89.1z"/>
	<path id="XMLID_211_" class="st2" d="M71.4,139.1c0.3,0.2,0.7,0.2,1,0.2C72.1,139.3,71.7,139.2,71.4,139.1L71.4,139.1z"/>
	<path id="XMLID_213_" class="st2" d="M94.9,37.6c5.2,2.1,9.9,4.9,14.2,8.5c5.3,4.4,9.5,9.7,12.7,15.8c2.4,4.5,4.1,9.2,5.1,14.2
		c0.5,2.3,0.7,4.7,0.9,7c0.1,0.2,0.2,0.4,0.2,0.6c0-0.2,0-0.6,0-0.6h-0.1c-0.2-2-0.5-4.7-1-7c-1-5-2.8-9.7-5.1-14.2
		c-3.2-6.1-7.4-11.4-12.7-15.8C104.8,42.5,100.1,39.7,94.9,37.6c-5-2-10.1-3.6-15.4-3.6c0,0,0,0,0,0l0,0
		C84.8,34,89.9,35.6,94.9,37.6z"/>
	<path id="XMLID_214_" class="st2" d="M74.7,13.2c0.5,0.1,1-0.2,1.4,0.2c1.1,0,1.8,0.6,2.4,1.3c0.6,0.7,0.8,1.7,0.9,2.6
		c0.3,0,0.4-0.2,0.5-0.4c2.7-3.2,1-8.5-3-9.6c-3.6-1-6.6,0.9-7.7,4.7c0,0.8,0,1.5,0,2.3c0,0,0,0,0,0c0,0,0,0,0,0
		c0.3,1.2,0.8,2.2,1.7,3.1c0.4-0.3,0-0.9,0.4-1.2C71.7,14.4,73,13.6,74.7,13.2z"/>
	<path id="XMLID_215_" class="st2" d="M39.5,36.8c0.1,0,0.2-0.1,0.3-0.1c3.1-2.1,6.2-4.2,9.7-5.6c0.5-0.2,0.4-0.5,0.2-0.8
		c-0.6-1.1-1.2-2.1-1.9-3.2c-0.5-0.8-1.6-1.2-2.3-0.8c-2.5,1.4-4.9,2.7-7.3,4.2c-1.2,0.7-1.3,1.6-0.7,2.8
		C38.1,34.5,38.8,35.7,39.5,36.8z"/>
	<path id="XMLID_216_" class="st2" d="M100.8,30.9c3.3,1.6,6.5,3.4,9.5,5.5c0.3,0.2,0.4,0.3,0.6-0.1c0.7-1.3,1.7-2.3,2.1-3.7
		c0-0.3,0-0.7,0-1c0,0,0,0,0,0c0,0,0,0,0,0c-0.2-0.5-0.5-1-1-1.2c-2.4-1.4-4.8-2.8-7.3-4.2c-0.3,0-0.7,0-1,0l0,0c0,0-0.1,0-0.1,0
		c-1.7,0.9-2.2,2.8-3.2,4.3C100.3,30.8,100.7,30.8,100.8,30.9z"/>
	<path id="XMLID_217_" class="st6" d="M22.4,83.3c-0.3,1.7-0.3,3.4,0,5.1C22.2,86.7,22.2,85,22.4,83.3z"/>
	<path id="XMLID_218_" class="st7" d="M73.5,139.3L73.5,139.3c1.2,0.3,2.3,0.3,3.5,0C75.8,139.4,74.6,139.4,73.5,139.3z"/>
	<polygon id="XMLID_219_" class="st7" points="73.5,139.3 73.5,139.3 73.5,139.3 	"/>
	<path id="XMLID_220_" class="st7" d="M73.5,139.3c1.2,0.2,2.3,0.2,3.5,0c0,0,0,0,0,0C75.8,139.3,74.6,139.3,73.5,139.3z"/>
	<path id="XMLID_221_" class="st7" d="M73.5,139.3L73.5,139.3c1.2,0,2.3,0,3.5,0c0,0,0,0,0,0c0,0,0,0,0,0
		C75.8,139.3,74.6,139.3,73.5,139.3z"/>
	<path id="XMLID_222_" class="st7" d="M71,25.3c0,0,0,0.1,0,0.1c0,0,0,0,0,0C71,25.4,71,25.3,71,25.3L71,25.3
		C71,25.3,71,25.3,71,25.3z"/>
	<path id="XMLID_223_" class="st7" d="M71.1,23.8c0,0.3,0,0.6,0,0.9c0.1-0.3,0.1-0.6,0.1-0.8c0-0.3-0.1-0.6-0.1-0.9
		C71.1,23.2,71.1,23.5,71.1,23.8z"/>
	<path id="XMLID_224_" class="st7" d="M71,25.3C71,25.3,71,25.3,71,25.3L71,25.3c0.2-0.5,0.2-1,0.2-1.5c0,0.3-0.1,0.5-0.1,0.8
		C71,24.8,71,25.1,71,25.3z"/>
	<polygon id="XMLID_225_" class="st7" points="71,25.4 71,25.4 71,25.4 	"/>
	<polygon id="XMLID_226_" class="st7" points="71,25.4 71,25.4 71,25.4 	"/>
	<path id="XMLID_227_" class="st7" d="M71.1,23.8c0-0.4,0-0.8-0.1-1.2c0,0.8,0,1.7,0,2.5c0,0,0,0,0,0C71,24.6,71.1,24.2,71.1,23.8z"
		/>
	<path id="XMLID_228_" class="st7" d="M71,22.5c0,0.1,0.1,0.2,0.1,0.4C71.1,22.7,71,22.6,71,22.5c0-0.1,0-0.1,0-0.2c0,0,0,0,0,0
		C71,22.4,71,22.4,71,22.5C71,22.5,71,22.5,71,22.5z"/>
	<path id="XMLID_229_" class="st7" d="M71,22.5c0-0.1,0-0.3,0-0.4c0,0.1,0,0.1,0,0.2c0,0,0,0,0,0C71,22.4,71,22.4,71,22.5z"/>
	<path id="XMLID_230_" class="st7" d="M71,22.5c0,0.8,0,1.6,0,2.5c0,0,0,0,0,0C71,24.2,71,23.3,71,22.5C71,22.5,71,22.5,71,22.5z"/>
	<path id="XMLID_231_" class="st7" d="M71.1,22.9c0-0.1-0.1-0.2-0.1-0.4c0.1,0.4,0.1,0.8,0.1,1.2C71.1,23.5,71.1,23.2,71.1,22.9z"/>
	<path id="XMLID_232_" class="st8" d="M69.3,12.2c-0.3,0.8-0.3,1.5,0,2.3C69.2,13.7,69.2,12.9,69.3,12.2z"/>
	<path id="XMLID_233_" class="st8" d="M69.3,12.2c-0.2,0.8-0.2,1.5,0,2.3c0,0,0,0,0,0C69.3,13.7,69.3,12.9,69.3,12.2z"/>
	<path id="XMLID_234_" class="st9" d="M64.8,14c0.2-0.3,0.2-0.7,0.2-1c0-0.3-0.1-0.7-0.2-1C64.9,12.7,64.9,13.3,64.8,14z"/>
	<polygon id="XMLID_235_" class="st9" points="64.8,12 64.8,12 64.8,12 	"/>
	<path id="XMLID_236_" class="st9" d="M64.8,12c0.2,0.3,0.2,0.7,0.2,1C65,12.7,64.9,12.3,64.8,12C64.8,12,64.8,12,64.8,12
		C64.8,12,64.8,12,64.8,12z"/>
	<path id="XMLID_237_" class="st9" d="M64.8,12c0,0,0.1,0,0.1,0c0,0,0.1,0,0.1,0c0,0,0,0,0,0c0,0,0,0,0,0c0,0,0,0,0,0
		c0,0-0.1,0-0.1,0C64.9,12,64.8,12,64.8,12c0.1,0.7,0,1.3,0,2C65,13.3,64.9,12.7,64.8,12z"/>
	<polygon id="XMLID_238_" class="st9" points="64.8,12 64.8,12 64.8,12 	"/>
	<polygon id="XMLID_239_" class="st9" points="64.8,12 64.8,12 64.8,12 	"/>
	<polygon id="XMLID_240_" class="st6" points="33,33.2 33,33.2 33,33.2 	"/>
	<path id="XMLID_241_" class="st6" d="M33.1,31.2c-0.3,0.7,0.1,1.4-0.2,2.1c0.2-0.3,0.2-0.7,0.2-1c0-0.3,0-0.5,0-0.8
		C33.1,31.3,33.1,31.3,33.1,31.2z"/>
	<path id="XMLID_242_" class="st6" d="M33.1,31.4c0-0.1,0-0.2,0-0.3c0,0,0,0,0,0c0,0,0,0,0,0C33.1,31.3,33.1,31.3,33.1,31.4z"/>
	<path id="XMLID_243_" class="st6" d="M33,33.2C33,33.2,33,33.2,33,33.2c0.2-0.3,0.2-0.7,0.2-1C33.2,32.6,33.2,32.9,33,33.2
		C33,33.2,33,33.2,33,33.2z"/>
	<polygon id="XMLID_244_" class="st6" points="33,33.2 33,33.2 33,33.2 	"/>
	<path id="XMLID_245_" class="st6" d="M33.2,31.2C33.2,31.2,33.2,31.2,33.2,31.2c-0.4,0.7-0.2,1.4-0.2,2.1c0,0,0,0,0,0
		C33,32.6,32.9,31.8,33.2,31.2z"/>
	<polygon id="XMLID_246_" class="st6" points="33.1,31.2 33.1,31.2 33.1,31.2 	"/>
	<rect id="XMLID_247_" x="33" y="33.2" class="st6" width="0" height="0"/>
	<path id="XMLID_248_" class="st10" d="M45.6,22c0.3,0,0.6,0,0.9,0C46.2,22,45.9,22,45.6,22z"/>
	<path id="XMLID_249_" class="st10" d="M46.5,22c-0.3,0-0.6,0-0.9,0c-0.2,0-0.3,0.1-0.5,0.1c0.6,0,1.2,0,1.9,0c0,0,0,0,0,0
		C46.8,22.1,46.7,22,46.5,22z"/>
	<path id="XMLID_250_" class="st10" d="M46.5,22c0.1,0,0.2,0,0.3,0c-0.5-0.2-0.9-0.2-1.4,0c0.1,0,0.2,0,0.3,0
		C45.9,22,46.2,22,46.5,22z"/>
	<path id="XMLID_251_" class="st10" d="M45.4,22c-0.1,0-0.2,0.1-0.2,0.1c0.2,0,0.3-0.1,0.5-0.1C45.5,22,45.5,22,45.4,22z"/>
	<path id="XMLID_252_" class="st10" d="M47,22.1c-0.1,0-0.2-0.1-0.2-0.1c-0.1,0-0.2,0-0.3,0C46.7,22,46.8,22.1,47,22.1z"/>
	<path id="XMLID_253_" class="st6" d="M128,83.6c0,0.2,0,0.5,0,0.7C128,84.1,128,83.9,128,83.6z"/>
	<path id="XMLID_254_" class="st6" d="M127.8,84.9c0.1-0.2,0.2-0.4,0.2-0.6c0-0.2,0-0.5,0-0.7c0-0.2-0.1-0.4-0.2-0.6
		C128,83.7,128,84.3,127.8,84.9z"/>
	<path id="XMLID_255_" class="st6" d="M127.8,83.1C127.8,83.1,127.8,83.1,127.8,83.1c0,0.6,0,1.2,0,1.8
		C128,84.3,128,83.7,127.8,83.1z"/>
	<path id="XMLID_256_" class="st11" d="M71.4,17.4c0-0.4,0-0.7,0-1.1c-0.2,0.3-0.1,0.6-0.1,0.9c0,0.2,0,0.4-0.3,0.3
		C71.2,17.7,71.3,17.7,71.4,17.4z"/>
	<path id="XMLID_257_" class="st11" d="M71.3,17.2c0-0.3-0.1-0.6,0.1-0.9c-0.4,0.3,0,0.9-0.4,1.2C71.3,17.6,71.2,17.4,71.3,17.2z"/>
	<path id="XMLID_258_" class="st6" d="M74.7,13.2c0.4,0.4,1,0.1,1.4,0.2C75.7,13.1,75.2,13.5,74.7,13.2z"/>
	<path id="XMLID_259_" class="st6" d="M74.7,13.2c0.5,0.3,1-0.1,1.4,0.2C75.7,13,75.2,13.3,74.7,13.2z"/>
	<path id="XMLID_260_" class="st3" d="M79.4,33.9L79.4,33.9c-0.3-0.2-0.6-0.3-0.9-0.2c-0.1,0-0.2,0.1-0.3,0.2
		C78.6,33.7,79,33.7,79.4,33.9z"/>
	<polygon id="XMLID_261_" class="st3" points="79.4,33.9 79.4,33.9 79.4,33.9 	"/>
	<path id="XMLID_262_" class="st3" d="M78.2,33.9c0.4,0,0.8,0,1.2,0C79,33.7,78.6,33.7,78.2,33.9C78.2,33.9,78.2,33.9,78.2,33.9
		C78.2,33.9,78.2,33.9,78.2,33.9L78.2,33.9C78.2,33.9,78.2,33.9,78.2,33.9z"/>
	<path id="XMLID_263_" class="st3" d="M78.2,33.9C78.2,33.9,78.2,33.9,78.2,33.9L78.2,33.9c0.4,0,0.8,0,1.2,0h0
		C79,33.9,78.6,33.9,78.2,33.9z"/>
	<path id="XMLID_264_" class="st3" d="M127.8,90.3c0.3-0.4,0.3-0.8,0-1.2v0C128,89.5,128,89.9,127.8,90.3z"/>
	<path id="XMLID_265_" class="st3" d="M127.8,90.3c0.1-0.4,0.1-0.8,0-1.2v0c0,0,0,0,0,0C127.8,89.5,127.8,89.9,127.8,90.3z"/>
	<path id="XMLID_266_" class="st12" d="M70.2,139.1L70.2,139.1c0.4,0.3,0.8,0.3,1.2,0c0,0,0,0,0,0C71,139.2,70.6,139.2,70.2,139.1z"
		/>
	<polygon id="XMLID_267_" class="st12" points="71.4,139.1 71.4,139.1 71.4,139.1 	"/>
	<polygon id="XMLID_268_" class="st12" points="70.2,139.1 70.2,139.1 70.2,139.1 	"/>
	<path id="XMLID_269_" class="st12" d="M71.4,139.1c-0.4,0-0.8,0-1.2,0C70.6,139.2,71,139.2,71.4,139.1L71.4,139.1
		C71.4,139.1,71.4,139.1,71.4,139.1z"/>
	<path id="XMLID_270_" class="st12" d="M71.4,139.1C71.4,139.1,71.4,139.1,71.4,139.1L71.4,139.1C71.4,139.1,71.4,139.1,71.4,139.1
		C71.4,139.1,71.4,139.1,71.4,139.1c-0.4,0-0.8,0-1.2,0l0,0C70.6,139.1,71,139.1,71.4,139.1z"/>
	<path id="XMLID_271_" class="st4" d="M78.8,139.1c0.4,0.3,0.8,0.3,1.2,0C79.6,139.2,79.2,139.2,78.8,139.1z"/>
	<path id="XMLID_272_" class="st4" d="M78.8,139.1c0.4,0.1,0.8,0.1,1.2,0c0,0,0,0,0,0C79.6,139.1,79.2,139.1,78.8,139.1z"/>
	<path id="XMLID_273_" class="st6" d="M136.1,81c-0.3,0.4-0.3,0.8,0,1.2C135.9,81.8,135.9,81.4,136.1,81z"/>
	<path id="XMLID_274_" class="st6" d="M136.1,81c-0.1,0.4-0.1,0.8,0,1.2c0,0,0,0,0,0C136.1,81.8,136.1,81.4,136.1,81z"/>
	<path id="XMLID_275_" class="st3" d="M22.6,80.8c-0.3,0.3-0.3,0.7,0,1C22.5,81.5,22.5,81.1,22.6,80.8z"/>
	<path id="XMLID_276_" class="st3" d="M22.6,81.8C22.6,81.8,22.6,81.8,22.6,81.8c0-0.3,0-0.7,0-1l0,0c0,0,0,0,0,0
		C22.5,81.1,22.5,81.5,22.6,81.8z"/>
	<path id="XMLID_277_" class="st3" d="M22.6,81.8L22.6,81.8c0-0.3,0-0.7,0-1l0,0C22.6,81.1,22.6,81.5,22.6,81.8z"/>
	<polygon id="XMLID_278_" class="st3" points="72,33.9 72,33.9 72,33.9 	"/>
	<path id="XMLID_279_" class="st3" d="M72,33.9c-0.2-0.1-0.3-0.2-0.5-0.2c-0.2,0-0.3,0.1-0.5,0.2C71.3,33.7,71.7,33.7,72,33.9z"/>
	<path id="XMLID_280_" class="st3" d="M72,33.9L72,33.9c-0.2-0.1-0.3-0.2-0.5-0.2C71.7,33.6,71.8,33.7,72,33.9
		C72,33.9,72,33.9,72,33.9z"/>
	<path id="XMLID_281_" class="st3" d="M72,33.9C72,33.9,72,33.9,72,33.9c-0.3-0.1-0.7-0.1-1,0c0,0,0,0,0,0
		C71.3,33.9,71.7,33.9,72,33.9L72,33.9C72,33.9,72,33.9,72,33.9z"/>
	<polygon id="XMLID_282_" class="st3" points="72,33.9 72,33.9 72,33.9 	"/>
	<path id="XMLID_283_" class="st7" d="M113.1,32.6c0.3-0.3,0.3-0.7,0-1C113.3,31.9,113.3,32.3,113.1,32.6z"/>
	<path id="XMLID_284_" class="st7" d="M113.1,32.6c0.1-0.3,0.1-0.7,0-1c0,0,0,0,0,0C113.1,31.9,113.1,32.3,113.1,32.6z"/>
	<path id="XMLID_285_" class="st10" d="M22.5,91.3c0-0.2,0-0.4-0.1-0.5C22.4,91,22.4,91.2,22.5,91.3z"/>
	<path id="XMLID_286_" class="st10" d="M22.6,91.5c-0.1-0.3-0.1-0.7,0-1c-0.1,0.1-0.1,0.2-0.2,0.3c0,0.2,0,0.4,0.1,0.5
		C22.5,91.4,22.6,91.5,22.6,91.5z"/>
	<path id="XMLID_287_" class="st10" d="M22.6,91.5C22.6,91.5,22.6,91.5,22.6,91.5c0-0.3,0-0.7,0-1C22.5,90.8,22.5,91.2,22.6,91.5z"
		/>
	<path id="XMLID_288_" class="st13" d="M104.9,26.2c-0.3-0.3-0.7-0.3-1,0h0C104.2,26.1,104.5,26.1,104.9,26.2z"/>
	<path id="XMLID_289_" class="st13" d="M104.9,26.2c-0.3-0.1-0.7-0.1-1,0h0l0,0C104.2,26.2,104.5,26.2,104.9,26.2z"/>
	<path id="XMLID_290_" class="st10" d="M136.1,91.3c-0.3,0.3-0.3,0.7,0,1C135.9,92,135.9,91.7,136.1,91.3z"/>
	<path id="XMLID_291_" class="st10" d="M136.1,91.3c-0.1,0.3-0.1,0.7,0,1c0,0,0,0,0,0C136.1,92,136.1,91.7,136.1,91.3z"/>
	<path id="XMLID_292_" class="st14" d="M14.5,93.3c0-0.2,0-0.5-0.1-0.7C14.5,92.8,14.4,93.1,14.5,93.3z"/>
	<path id="XMLID_293_" class="st14" d="M14.4,92.6c0.1,0.2,0.1,0.5,0.1,0.7c0,0,0,0.1,0,0.1c0-0.4,0.1-0.7-0.2-1v0
		C14.4,92.4,14.4,92.5,14.4,92.6z"/>
	<path id="XMLID_294_" class="st14" d="M14.5,93.3c-0.1-0.2,0-0.5-0.1-0.7c0,0-0.1-0.1-0.1-0.1c0,0.1,0,0.3,0,0.4c0,0,0,0.1,0,0.1
		C14.4,93.1,14.4,93.2,14.5,93.3C14.5,93.3,14.5,93.3,14.5,93.3z"/>
	<path id="XMLID_295_" class="st14" d="M14.5,93.4C14.5,93.4,14.5,93.4,14.5,93.4C14.5,93.4,14.5,93.3,14.5,93.4
		C14.5,93.3,14.5,93.3,14.5,93.4z"/>
	<path id="XMLID_296_" class="st14" d="M14.3,92.5c0,0,0.1,0.1,0.1,0.1C14.4,92.5,14.4,92.4,14.3,92.5L14.3,92.5L14.3,92.5
		C14.4,92.4,14.3,92.4,14.3,92.5z"/>
	<path id="XMLID_297_" class="st10" d="M71,25.4c-0.3,0.2-0.7,0.1-1,0c0.1,0.1,0.3,0.2,0.5,0.2C70.7,25.6,70.8,25.5,71,25.4
		C71,25.4,71,25.4,71,25.4z"/>
	<polygon id="XMLID_298_" class="st10" points="70,25.4 70,25.4 70,25.4 	"/>
	<path id="XMLID_299_" class="st10" d="M70,25.4C70,25.4,70,25.4,70,25.4c0.2,0.1,0.4,0.2,0.5,0.2C70.3,25.6,70.1,25.5,70,25.4
		C70,25.4,70,25.4,70,25.4z"/>
	<rect id="XMLID_300_" x="71" y="25.4" class="st10" width="0" height="0"/>
	<path id="XMLID_301_" class="st10" d="M70,25.4C70,25.4,70,25.4,70,25.4c0.3,0.1,0.7,0.2,1,0c0,0,0,0,0,0
		C70.6,25.4,70.3,25.4,70,25.4C70,25.4,70,25.4,70,25.4C70,25.4,70,25.4,70,25.4z"/>
	<path id="XMLID_302_" class="st10" d="M70,25.4C70,25.4,70,25.4,70,25.4C70,25.4,70,25.4,70,25.4C70,25.4,70,25.4,70,25.4z"/>
	<polygon id="XMLID_303_" class="st10" points="71,25.4 71,25.4 71,25.4 	"/>
	<rect id="XMLID_304_" x="71" y="25.4" class="st10" width="0" height="0"/>
	<rect id="XMLID_305_" x="71" y="25.4" class="st10" width="0" height="0"/>
	<rect id="XMLID_306_" x="71" y="25.4" class="st10" width="0" height="0"/>
	<rect id="XMLID_307_" x="71" y="25.4" class="st10" width="0" height="0"/>
	<path id="XMLID_308_" class="st1" d="M81.7,87c0.1-0.5-0.2-1.1,0.2-1.6v0c-0.6-3.3-3.3-5.7-6.8-5.4c-0.4,0-0.7-0.2-0.9-0.5
		c-0.7-1.2-1.4-2.4-2.1-3.6c-3.6-6.2-7.1-12.4-10.7-18.7c0-0.1-0.1-0.1-0.1-0.2c0,0,0-0.1-0.1-0.1c0,0-0.1-0.1-0.1-0.1
		c-0.2-0.4-0.6-0.7-1.1-0.8c0,0-0.1,0-0.1,0c-0.4,0-1,0-1,0v0v0c0,0-0.6,0-0.8,0.2c-5.6,3.3-9.9,7.8-13,13.4
		c-1.4,2.6-2.4,5.5-3.3,8.3c0.1,0.2,0.2,0.3,0.2,0.5c0,0.2-0.1,0.3-0.2,0.5c0.4,1,1.1,1.3,2,1.2c1-0.1,1.6-0.6,1.9-1.6
		c0.6-2.1,1.3-4,2.3-5.9c0.2-0.5,0.5-0.9,0.8-1.4c0.5-0.9,1.1-1.8,1.7-2.6c0.3-0.4,0.6-0.9,1-1.3c1.8-2.2,3.8-4.1,6.1-5.6
		c0.4-0.2,0.6-0.4,0.9,0.1c0.5,1,1.1,1.9,1.7,2.8c0.3,0.4,0.1,0.7-0.2,1c-1.2,0.7-2,1.7-3,2.6c-3.3,3.1-5.3,6.9-6.6,11.2
		c0,0.1-0.1,0.3-0.1,0.4c0,0.2-0.1,0.4-0.1,0.5c0,0.8,0.4,1.3,1.2,1.6c0,0,0.1,0,0.1,0c0.5,0,1.5,0,1.5,0v0v0c1,0,1.3-0.9,1.5-1.7
		c1.2-4.3,3.6-7.9,7-10.7c1.2-1,1.2-1,1.9,0.4c0.2,0.4,0.5,0.8,0.7,1.2c0.4,0.8,0.7,1.2,0.6,1.6c0,0.4-0.4,0.7-1,1.3
		c-2.2,2.2-3.8,4.9-4.6,7.9c0.1,0.2,0.2,0.3,0.2,0.5c0,0.2-0.1,0.3-0.2,0.5c0.3,0.7,0.7,1.2,1.4,1.5c0.2-0.2,0.4-0.2,0.6-0.2
		c0.2,0,0.4,0.1,0.6,0.2h0c0.9-0.3,1.4-0.9,1.6-1.8c0.5-2.3,1.8-4,3.5-5.6c0.4-0.4,0.6-0.3,0.9,0.2c0.9,1.5,1.8,3,2.7,4.5
		c0.3,0.4,0.2,0.8-0.1,1.1c-0.9,1.3-1.2,2.8-0.9,4.4c0.5,2.9,2.9,5.1,5.8,5.1c1,0,1.7,0.1,2.1,1.2c0.1,0.4,0.4,0.8,0.7,1.1
		c0.5,0.6,1.2,1,2,0.7c0.9-0.3,1.6-0.9,1.6-2c0-0.9-0.3-1.6-0.8-2.3c-0.4-0.5-0.6-1,0-1.6C81.5,88.8,81.8,87.9,81.7,87z"/>
	<path id="XMLID_309_" class="st1" d="M64.9,72.8c0,0.4-0.4,0.7-1,1.3c-2.2,2.2-3.8,4.9-4.6,7.9v0c0.9-3,2.4-5.6,4.6-7.9
		C64.5,73.5,64.8,73.2,64.9,72.8z"/>
	<path id="XMLID_310_" class="st1" d="M43.9,80.1c-0.9,0.1-1.7-0.3-2-1.2l0,0C42.2,79.9,43,80.2,43.9,80.1c1-0.1,1.6-0.6,1.9-1.6
		c0.6-2.1,1.3-4,2.3-5.9c-1,1.9-1.7,3.8-2.3,5.9C45.5,79.5,44.9,80.1,43.9,80.1z"/>
	<path id="XMLID_311_" class="st1" d="M50.2,80.4c0,0.9,0.4,1.5,1.2,1.6C50.7,81.7,50.2,81.2,50.2,80.4z"/>
	<path id="XMLID_312_" class="st1" d="M57,68.2c-3.3,3.1-5.3,6.9-6.6,11.2c0,0.1-0.1,0.3-0.1,0.4c0-0.1,0-0.3,0.1-0.4
		C51.6,75.2,53.7,71.4,57,68.2z"/>
	<polygon id="XMLID_313_" class="st1" points="41.8,77.9 41.8,77.9 41.8,77.9 	"/>
	<path id="XMLID_314_" class="st1" d="M50.6,68.6c-0.6,0.9-1.2,1.7-1.7,2.6C49.4,70.4,49.9,69.5,50.6,68.6z"/>
	<path id="XMLID_315_" class="st1" d="M61.3,56.9c0,0,0,0.1,0.1,0.1C61.3,57,61.3,56.9,61.3,56.9z"/>
	<path id="XMLID_316_" class="st1" d="M61.2,56.8c-0.2-0.4-0.6-0.7-1.1-0.8C60.6,56.1,60.9,56.4,61.2,56.8z"/>
	<path id="XMLID_317_" class="st1" d="M30.3,84.5c-1.2,0-2.5,0-3.7,0c-1.4,0-2.6,1-2.4,2.2c0.2,1.4,1.1,2.3,2.4,2.2
		c0.6-0.1,1.2,0,1.8,0c0.7,0,1.3,0,2,0c1.5,0,2.3-0.7,2.3-2.2C32.5,85.3,31.8,84.5,30.3,84.5z"/>
	<path id="XMLID_318_" class="st1" d="M77.4,130.8c-0.6-1.2-1.6-1.8-2.6-1.5c-1.2,0.3-1.7,1-1.7,2.5c0,1.2,0,2.4,0,3.6
		c0,1.2,0.6,2,1.6,2.2c1.3,0.2,2-0.2,2.6-1.4c0-1.5,0-2.9,0-4.4C77.2,131.4,77.1,131.1,77.4,130.8z"/>
	<path id="XMLID_319_" class="st1" d="M117.7,87c0.4,0.9,1,1.7,2.1,1.7c1.5,0,2.9,0,4.4,0c0.7,0,1.2-0.3,1.6-0.9
		c0.8-1.4,0.3-2.6-1.3-3.4c-1,0.4-2,0.1-3,0.2c-0.7,0-1.4,0-2.1,0h0c-0.9,0-1.3,0.7-1.4,1.4C117.8,86.3,118,86.7,117.7,87z"/>
	<path id="XMLID_320_" class="st1" d="M73,41.7c0,1.1,0.6,1.9,1.6,2.1c0.3,0,0.7,0,1,0c0.8-0.2,1.4-0.5,1.4-1.4c0-1.4,0-2.8,0-4.2
		c0-0.3-0.1-0.7,0.2-1c-0.2-0.3-0.3-0.6-0.5-0.9c-0.6-0.8-1.4-1-2.4-0.7c-1,0.3-1.5,1-1.4,2.1C73.1,39.1,73,40.4,73,41.7z"/>
	<path id="XMLID_321_" class="st15" d="M77.4,130.8c-0.2,1.3,0,2.7-0.1,4.1c0,0.4,0.1,0.9-0.1,1.3c0.3-0.3,0.2-0.6,0.2-1
		C77.4,133.7,77.4,132.3,77.4,130.8z"/>
	<path id="XMLID_322_" class="st15" d="M77.3,134.9c0.1-1.4-0.1-2.7,0.1-4.1v0c-0.3,0.3-0.2,0.6-0.2,1c0,1.5,0,2.9,0,4.4
		C77.4,135.8,77.2,135.3,77.3,134.9z"/>
	<path id="XMLID_323_" class="st15" d="M77.3,41.1c0,0.4,0.1,0.8-0.1,1.2c0.3-0.3,0.2-0.6,0.2-1c0-1.4,0-2.8,0-4.2c0,0,0,0,0,0
		C77.2,38.5,77.3,39.8,77.3,41.1z"/>
	<path id="XMLID_324_" class="st15" d="M77.2,38.2c0,1.4,0,2.8,0,4.2c0.2-0.4,0.1-0.8,0.1-1.2c0.1-1.3-0.1-2.6,0.1-4
		C77.1,37.5,77.2,37.8,77.2,38.2z"/>
	<path id="XMLID_325_" class="st15" d="M123.2,84.4c0.4,0,0.9,0.1,1.3-0.1c-0.9,0-1.7-0.1-2.6,0c-0.9,0.1-1.8-0.2-2.6,0.2
		C120.6,84.3,121.9,84.5,123.2,84.4z"/>
	<path id="XMLID_326_" class="st15" d="M121.5,84.5c1-0.1,2,0.2,3-0.2c-0.4,0.2-0.9,0.1-1.3,0.1c-1.3,0.1-2.6-0.1-3.9,0.1
		C120,84.5,120.8,84.5,121.5,84.5z"/>
	<path id="XMLID_327_" class="st7" d="M81.7,87c0.4-0.5,0.1-1.1,0.2-1.6c0,0,0,0,0,0C81.7,85.9,82,86.5,81.7,87z"/>
	<path id="XMLID_328_" class="st7" d="M81.7,87c0.3-0.5-0.1-1.1,0.2-1.6C81.5,85.9,81.8,86.4,81.7,87z"/>
	<path id="XMLID_329_" class="st6" d="M51.5,82c0.5,0.3,1,0.3,1.5,0C52.5,82.2,52,82.2,51.5,82z"/>
	<path id="XMLID_330_" class="st6" d="M53,82C53,82,53,82,53,82c-0.5,0-1,0-1.5,0C52,82.2,52.5,82.2,53,82z"/>
	<path id="XMLID_331_" class="st6" d="M60.6,84.5c0.4,0,0.8,0,1.2,0c0,0,0,0,0,0C61.5,84.4,61,84.3,60.6,84.5z"/>
	<path id="XMLID_332_" class="st6" d="M60.6,84.5c0.4-0.2,0.8-0.2,1.2,0c-0.2-0.1-0.4-0.2-0.6-0.2C61,84.3,60.8,84.4,60.6,84.5z"/>
	<path id="XMLID_333_" class="st7" d="M60,56c-0.4-0.3-0.8-0.3-1.2,0C59.2,55.8,59.6,55.8,60,56z"/>
	<path id="XMLID_334_" class="st7" d="M60,56c-0.4-0.2-0.8-0.2-1.2,0l0,0C59.2,56,59.6,56,60,56z"/>
	<polygon id="XMLID_335_" class="st10" points="41.8,77.9 41.8,77.9 41.8,77.9 	"/>
	<path id="XMLID_336_" class="st10" d="M41.8,77.9C41.8,77.9,41.8,77.9,41.8,77.9c0,0.3,0,0.7,0,1c0,0,0,0,0,0v0
		C42,78.6,42,78.2,41.8,77.9z"/>
	<rect id="XMLID_337_" x="41.8" y="77.9" class="st10" width="0" height="0"/>
	<polygon id="XMLID_338_" class="st10" points="41.8,77.9 41.8,77.9 41.8,77.9 	"/>
	<path id="XMLID_339_" class="st10" d="M41.8,77.9c0.2,0.3,0.1,0.7,0,1v0c0.1-0.2,0.2-0.3,0.2-0.5C42.1,78.2,42,78.1,41.8,77.9z"/>
	<path id="XMLID_340_" class="st10" d="M41.8,77.9c0.1,0.2,0.2,0.3,0.2,0.5C42.1,78.2,42,78.1,41.8,77.9
		C41.8,77.9,41.8,77.9,41.8,77.9C41.8,77.9,41.8,77.9,41.8,77.9z"/>
	<path id="XMLID_341_" class="st10" d="M74.7,43.8c0.3,0.3,0.7,0.3,1,0C75.4,44,75,44,74.7,43.8z"/>
	<path id="XMLID_342_" class="st10" d="M75.7,43.8c-0.3,0-0.7,0-1,0C75,44,75.4,44,75.7,43.8z"/>
	<path id="XMLID_343_" class="st7" d="M117.7,87c0.2-0.3,0-0.7,0.2-1C117.6,86.2,117.7,86.6,117.7,87C117.7,87,117.7,87,117.7,87z"
		/>
	<path id="XMLID_344_" class="st7" d="M117.7,87c0.3-0.3,0.2-0.7,0.2-1C117.6,86.3,117.9,86.7,117.7,87z"/>
	<path id="XMLID_345_" class="st10" d="M59.2,83L59.2,83c0.2-0.3,0.1-0.7,0-1C59.2,82.4,59.2,82.7,59.2,83C59.2,83,59.2,83,59.2,83
		L59.2,83L59.2,83z"/>
	<polygon id="XMLID_346_" class="st10" points="59.2,83 59.2,83 59.2,83 	"/>
	<polygon id="XMLID_347_" class="st10" points="59.2,83 59.2,83 59.2,83 	"/>
	<path id="XMLID_348_" class="st10" d="M59.2,83c0.1-0.2,0.2-0.3,0.2-0.5s-0.1-0.3-0.2-0.5C59.3,82.4,59.4,82.7,59.2,83z"/>
	<path id="XMLID_349_" class="st10" d="M59.2,83L59.2,83c0.1-0.2,0.2-0.3,0.2-0.5C59.4,82.7,59.3,82.9,59.2,83
		C59.2,83,59.2,83,59.2,83z"/>
</g>
</svg>
