<?xml version="1.0" encoding="iso-8859-1"?>
<!-- Generator: Adobe Illustrator 19.0.0, SVG Export Plug-In . SVG Version: 6.00 Build 0)  -->
<svg version="1.1" id="Layer_1" xmlns="http://www.w3.org/2000/svg" xmlns:xlink="http://www.w3.org/1999/xlink" x="0px" y="0px"
	 width="235.338px" height="235.338px" viewBox="-302 179.942 235.338 235.338"
	 style="enable-background:new -302 179.942 235.338 235.338;" xml:space="preserve">
<path style="fill:#3FB661;" d="M-86.782,320.967l-35.646-35.645c-1.406-1.407-3.313-2.197-5.303-2.197h-14.829l20.131-20.126
	c1.407-1.406,2.197-3.314,2.197-5.304v-47.712c0-4.142-3.357-7.5-7.5-7.5s-7.5,3.358-7.5,7.5v44.606l-20.486,20.482
	c-1.661-4.844-4.075-9.182-7.053-12.787c10.299-4.553,16.32-12.721,16.32-23.27c0-12.683-9.326-26.911-23.001-33.217l13.053-13.052
	c2.929-2.929,2.929-7.678,0-10.607c-2.93-2.929-7.678-2.929-10.607,0l-17.237,17.237l-17.068-17.066
	c-2.93-2.929-7.678-2.929-10.607,0s-2.929,7.678,0,10.606l12.831,12.831c-13.743,6.277-23.127,20.549-23.127,33.268
	c0,10.548,6.022,18.716,16.322,23.269c-2.977,3.606-5.392,7.943-7.053,12.788l-20.486-20.482v-44.606c0-4.142-3.357-7.5-7.5-7.5
	s-7.5,3.358-7.5,7.5v47.713c0,1.989,0.79,3.897,2.197,5.304l20.131,20.126h-14.828c-1.989,0-3.896,0.79-5.303,2.197l-35.646,35.644
	c-2.93,2.929-2.93,7.677-0.001,10.606c1.465,1.465,3.384,2.197,5.304,2.197c1.919,0,3.839-0.732,5.303-2.197l33.45-33.448h11.721
	l-20.134,20.127c-1.407,1.407-2.197,3.314-2.197,5.304v70.27c0,4.142,3.357,7.5,7.5,7.5c4.143,0,7.5-3.358,7.5-7.5v-67.162
	l20.49-20.484c1.764,5.142,4.369,9.719,7.602,13.449c-12.958,6.625-20.628,19.896-20.628,37.416
	c0,27.489,17.806,58.234,41.635,58.234c23.833,0,41.641-30.745,41.641-58.234c0-17.519-7.669-30.789-20.627-37.414
	c3.233-3.73,5.84-8.309,7.604-13.451l20.488,20.483v67.163c0,4.142,3.357,7.5,7.5,7.5s7.5-3.358,7.5-7.5v-70.27
	c0-1.989-0.79-3.897-2.197-5.304l-20.133-20.128h11.722l33.45,33.448c1.464,1.465,3.384,2.197,5.303,2.197
	c1.919,0,3.839-0.732,5.304-2.197C-83.853,328.644-83.853,323.895-86.782,320.967L-86.782,320.967z M-168.169,290.628
	c-0.001,13.178-7.402,24.31-16.162,24.31c-8.761,0-16.162-11.134-16.162-24.312c0-13.178,7.401-24.311,16.162-24.311
	s16.162,11.132,16.162,24.31C-168.169,290.625-168.169,290.626-168.169,290.628z M-184.327,217.483
	c12.32,0,22.877,11.839,22.877,21.531c0,11.708-19.057,12.301-22.877,12.301c-3.822,0-22.887-0.593-22.887-12.301
	C-207.214,229.322-196.653,217.483-184.327,217.483z M-184.335,400.28c-12.944,0-26.635-22.223-26.635-43.234
	c0-24.466,18.626-27.108,26.635-27.108c8.01,0,26.641,2.642,26.641,27.108C-157.694,378.057-171.388,400.28-184.335,400.28z"/>
</svg>
