<?xml version="1.0" encoding="iso-8859-1"?>
<!-- Generator: Adobe Illustrator 19.0.0, SVG Export Plug-In . SVG Version: 6.00 Build 0)  -->
<svg version="1.1" id="Layer_1" xmlns="http://www.w3.org/2000/svg" xmlns:xlink="http://www.w3.org/1999/xlink" x="0px" y="0px"
	 width="512px" height="512px" viewBox="-49 141 512 512" style="enable-background:new -49 141 512 512;" xml:space="preserve">
<path style="fill:#3FB661;" d="M-48.788,447.369v83.934c0,9.017,7.77,16.787,16.787,16.787h42.177V430.582h-42.177
	C-41.017,430.582-48.788,438.359-48.788,447.369z M-6.611,531.303h-25.39v-83.934h25.39V531.303z"/>
<path style="fill:#3FB661;" d="M-6.608,422.189v135.21c0,8.772,7.105,15.872,15.872,15.872h34.942
	c9.023,0,16.334-7.306,16.334-16.325V421.727c0-9.013-7.313-16.325-16.334-16.325H10.179C0.927,405.402-6.608,412.937-6.608,422.189
	z M43.753,556.484H10.179V422.189h33.574V556.484z"/>
<path style="fill:#3FB661;" d="M270.376,271.107h-135.21c-8.768,0-15.872,7.11-15.872,15.88v34.942
	c0,9.017,7.308,16.325,16.325,16.325h135.21c9.023,0,16.334-7.306,16.334-16.325v-34.035
	C287.162,278.642,279.628,271.107,270.376,271.107z M136.08,321.467v-33.574h134.295v33.574H136.08z"/>
<path style="fill:#3FB661;" d="M413.063,447.369h25.39v83.934h-25.39V447.369z M455.24,447.369c0-9.01-7.772-16.787-16.787-16.787
	h-42.177V548.09h42.177c9.017,0,16.787-7.77,16.787-16.787V447.369z"/>
<path style="fill:#3FB661;" d="M362.703,556.484V422.189h33.574v134.295H362.703z M413.064,422.189
	c0-9.252-7.535-16.787-16.787-16.787h-34.035c-9.015,0-16.325,7.315-16.325,16.325v135.218c0,9.017,7.308,16.325,16.325,16.325
	h34.95c8.767,0,15.872-7.1,15.872-15.872V422.189z"/>
<path style="fill:#3FB661;" d="M354.75,430.594c-0.477-0.025-1.548-0.12-3.126-0.325c-2.728-0.354-5.792-0.897-9.105-1.667
	c-9.482-2.205-18.959-5.774-27.745-10.981c-4.876-2.89-9.41-6.217-13.542-10.01l-8.615-6.509c-14-10.5-22.24-26.982-22.24-44.492
	v-35.143H136.08v35.143c0,17.511-8.241,33.992-22.249,44.492l-7.968,5.978c-4.771,4.323-9.304,7.65-14.181,10.54
	c-8.787,5.207-18.263,8.775-27.745,10.981c-3.313,0.771-6.378,1.313-9.105,1.667c-1.578,0.205-2.649,0.299-3.126,0.325l-7.953,0.418
	V548.09h8.393c26.202,0,37.88,6.591,41.386,15.208c3.325,8.14,5.551,12.618,9.11,17.28c10.859,14.207,26.237,26.473,44.858,37.012
	c34.551,19.574,76.907,19.574,111.461-0.002c18.628-10.549,34.002-22.81,44.845-37.008c3.565-4.66,5.793-9.137,9.115-17.272
	c3.498-8.622,15.188-15.218,41.39-15.218h8.393V431.012L354.75,430.594z M345.917,531.545
	c-27.328,1.625-42.827,11.343-48.545,25.435c-2.78,6.807-4.502,10.267-6.904,13.407c-9.294,12.17-22.964,23.072-39.781,32.596
	c-29.422,16.668-65.495,16.668-94.916,0.001c-16.811-9.515-30.485-20.42-39.788-32.593c-2.396-3.139-4.118-6.604-6.906-13.428
	c-5.73-14.082-21.216-23.793-48.537-25.417v-85.139c2.155-0.364,4.568-0.841,7.2-1.453c11.056-2.571,22.118-6.737,32.501-12.89
	c5.851-3.467,11.322-7.482,16.335-12.084l7.327-5.446c18.235-13.669,28.965-35.126,28.965-57.922v-18.356h100.721v18.356
	c0,22.793,10.727,44.251,28.957,57.923l7.976,5.978c4.372,4.069,9.843,8.084,15.694,11.551c10.383,6.153,21.445,10.318,32.501,12.89
	c2.632,0.612,5.045,1.089,7.2,1.453V531.545z"/>
<path style="fill:#3FB661;" d="M187.638,224.484l-33.574,50.361c-3.719,5.578,0.28,13.049,6.984,13.049h83.934
	c6.704,0,10.702-7.471,6.984-13.049l-33.574-50.361c-1.557-2.335-4.177-3.738-6.984-3.738h-16.787
	C191.815,220.746,189.194,222.149,187.638,224.484z M206.916,237.533l22.382,33.574h-52.568l22.383-33.574H206.916z"/>
<path style="fill:#3FB661;" d="M211.408,229.14v-33.574c0-4.636-3.758-8.393-8.393-8.393c-4.636,0-8.393,3.758-8.393,8.393v33.574
	c0,4.636,3.758,8.393,8.393,8.393C207.65,237.533,211.408,233.775,211.408,229.14z"/>
<path style="fill:#3FB661;" d="M68.72,178.779c0,13.874,11.31,25.18,25.18,25.18H312.13c13.871,0,25.18-11.306,25.18-25.18
	c0-13.868-11.312-25.18-25.18-25.18H93.9C80.032,153.599,68.72,164.911,68.72,178.779z M85.507,178.779
	c0-4.597,3.796-8.393,8.393-8.393H312.13c4.597,0,8.393,3.796,8.393,8.393c0,4.602-3.793,8.393-8.393,8.393H93.9
	C89.299,187.172,85.507,183.381,85.507,178.779z"/>
</svg>
